<?xml version="1.0" encoding="UTF-8"?>
<svg xmlns="http://www.w3.org/2000/svg" width="481" height="145">
   <defs>
      <style type="text/css">
    @namespace "http://www.w3.org/2000/svg";
    .line                 {fill: none; stroke: #174B00; stroke-width: 1;}
    .bold-line            {stroke: #061400; shape-rendering: crispEdges; stroke-width: 2;}
    .thin-line            {stroke: #091F00; shape-rendering: crispEdges}
    .filled               {fill: #174B00; stroke: none;}
    text.terminal         {font-family: Verdana, Sans-serif;
                            font-size: 12px;
                            fill: #061400;
                            font-weight: bold;
                          }
    text.nonterminal      {font-family: Verdana, Sans-serif;
                            font-size: 12px;
                            fill: #081A00;
                            font-weight: normal;
                          }
    text.regexp           {font-family: Verdana, Sans-serif;
                            font-size: 12px;
                            fill: #091F00;
                            font-weight: normal;
                          }
    rect, circle, polygon {fill: #174B00; stroke: #174B00;}
    rect.terminal         {fill: #F8FFF5; stroke: #174B00; stroke-width: 1;}
    rect.nonterminal      {fill: #FBFFFA; stroke: #174B00; stroke-width: 1;}
    rect.text             {fill: none; stroke: none;}
    polygon.regexp        {fill: #FDFFFC; stroke: #174B00; stroke-width: 1;}
  </style>
   </defs>
   <polygon points="9 17 1 13 1 21"/>
   <polygon points="17 17 9 13 9 21"/>
   <rect x="31" y="3" width="26" height="32" rx="10"/>
   <rect x="29"
         y="1"
         width="26"
         height="32"
         class="terminal"
         rx="10"/>
   <text class="terminal" x="39" y="21">(</text>
   <a xmlns:xlink="http://www.w3.org/1999/xlink"
      xlink:href="#ListItems"
      xlink:title="ListItems">
      <rect x="97" y="35" width="78" height="32"/>
      <rect x="95" y="33" width="78" height="32" class="nonterminal"/>
      <text class="nonterminal" x="105" y="53">ListItems</text>
   </a>
   <rect x="215" y="67" width="24" height="32" rx="10"/>
   <rect x="213"
         y="65"
         width="24"
         height="32"
         class="terminal"
         rx="10"/>
   <text class="terminal" x="223" y="85">,</text>
   <a xmlns:xlink="http://www.w3.org/1999/xlink"
      xlink:href="#NamedArgList"
      xlink:title="NamedArgList">
      <rect x="259" y="67" width="108" height="32"/>
      <rect x="257" y="65" width="108" height="32" class="nonterminal"/>
      <text class="nonterminal" x="267" y="85">NamedArgList</text>
   </a>
   <a xmlns:xlink="http://www.w3.org/1999/xlink"
      xlink:href="#NamedArgList"
      xlink:title="NamedArgList">
      <rect x="97" y="111" width="108" height="32"/>
      <rect x="95" y="109" width="108" height="32" class="nonterminal"/>
      <text class="nonterminal" x="105" y="129">NamedArgList</text>
   </a>
   <rect x="427" y="3" width="26" height="32" rx="10"/>
   <rect x="425"
         y="1"
         width="26"
         height="32"
         class="terminal"
         rx="10"/>
   <text class="terminal" x="435" y="21">)</text>
   <path class="line"
         d="m17 17 h2 m0 0 h10 m26 0 h10 m20 0 h10 m0 0 h300 m-330 0 h20 m310 0 h20 m-350 0 q10 0 10 10 m330 0 q0 -10 10 -10 m-340 10 v12 m330 0 v-12 m-330 12 q0 10 10 10 m310 0 q10 0 10 -10 m-320 10 h10 m78 0 h10 m20 0 h10 m0 0 h162 m-192 0 h20 m172 0 h20 m-212 0 q10 0 10 10 m192 0 q0 -10 10 -10 m-202 10 v12 m192 0 v-12 m-192 12 q0 10 10 10 m172 0 q10 0 10 -10 m-182 10 h10 m24 0 h10 m0 0 h10 m108 0 h10 m-300 -42 v20 m330 0 v-20 m-330 20 v56 m330 0 v-56 m-330 56 q0 10 10 10 m310 0 q10 0 10 -10 m-320 10 h10 m108 0 h10 m0 0 h182 m20 -108 h10 m26 0 h10 m3 0 h-3"/>
   <polygon points="471 17 479 13 479 21"/>
   <polygon points="471 17 463 13 463 21"/>
</svg>
