<?xml version="1.0" encoding="UTF-8"?>
<svg xmlns="http://www.w3.org/2000/svg" width="491" height="145">
   <defs>
      <style type="text/css">
    @namespace "http://www.w3.org/2000/svg";
    .line                 {fill: none; stroke: #000045; stroke-width: 1;}
    .bold-line            {stroke: #000014; shape-rendering: crispEdges; stroke-width: 2;}
    .thin-line            {stroke: #00001F; shape-rendering: crispEdges}
    .filled               {fill: #000045; stroke: none;}
    text.terminal         {font-family: Verdana, Sans-serif;
                            font-size: 12px;
                            fill: #000014;
                            font-weight: bold;
                          }
    text.nonterminal      {font-family: Verdana, Sans-serif;
                            font-size: 12px;
                            fill: #00001A;
                            font-weight: normal;
                          }
    text.regexp           {font-family: Verdana, Sans-serif;
                            font-size: 12px;
                            fill: #00001F;
                            font-weight: normal;
                          }
    rect, circle, polygon {fill: #000045; stroke: #000045;}
    rect.terminal         {fill: #CCCCFF; stroke: #000045; stroke-width: 1;}
    rect.nonterminal      {fill: #E3E3FF; stroke: #000045; stroke-width: 1;}
    rect.text             {fill: none; stroke: none;}
    polygon.regexp        {fill: #EFEFFF; stroke: #000045; stroke-width: 1;}
  </style>
   </defs>
   <polygon points="9 17 1 13 1 21"/>
   <polygon points="17 17 9 13 9 21"/>
   <rect x="31" y="3" width="26" height="32" rx="10"/>
   <rect x="29"
         y="1"
         width="26"
         height="32"
         class="terminal"
         rx="10"/>
   <text class="terminal" x="39" y="21">(</text>
   <a xmlns:xlink="http://www.w3.org/1999/xlink"
      xlink:href="#Arguments"
      xlink:title="Arguments">
      <rect x="97" y="35" width="88" height="32"/>
      <rect x="95" y="33" width="88" height="32" class="nonterminal"/>
      <text class="nonterminal" x="105" y="53">Arguments</text>
   </a>
   <rect x="225" y="67" width="24" height="32" rx="10"/>
   <rect x="223"
         y="65"
         width="24"
         height="32"
         class="terminal"
         rx="10"/>
   <text class="terminal" x="233" y="85">,</text>
   <a xmlns:xlink="http://www.w3.org/1999/xlink"
      xlink:href="#NamedArgList"
      xlink:title="NamedArgList">
      <rect x="269" y="67" width="108" height="32"/>
      <rect x="267" y="65" width="108" height="32" class="nonterminal"/>
      <text class="nonterminal" x="277" y="85">NamedArgList</text>
   </a>
   <a xmlns:xlink="http://www.w3.org/1999/xlink"
      xlink:href="#NamedArgList"
      xlink:title="NamedArgList">
      <rect x="97" y="111" width="108" height="32"/>
      <rect x="95" y="109" width="108" height="32" class="nonterminal"/>
      <text class="nonterminal" x="105" y="129">NamedArgList</text>
   </a>
   <rect x="437" y="3" width="26" height="32" rx="10"/>
   <rect x="435"
         y="1"
         width="26"
         height="32"
         class="terminal"
         rx="10"/>
   <text class="terminal" x="445" y="21">)</text>
   <path class="line"
         d="m17 17 h2 m0 0 h10 m26 0 h10 m20 0 h10 m0 0 h310 m-340 0 h20 m320 0 h20 m-360 0 q10 0 10 10 m340 0 q0 -10 10 -10 m-350 10 v12 m340 0 v-12 m-340 12 q0 10 10 10 m320 0 q10 0 10 -10 m-330 10 h10 m88 0 h10 m20 0 h10 m0 0 h162 m-192 0 h20 m172 0 h20 m-212 0 q10 0 10 10 m192 0 q0 -10 10 -10 m-202 10 v12 m192 0 v-12 m-192 12 q0 10 10 10 m172 0 q10 0 10 -10 m-182 10 h10 m24 0 h10 m0 0 h10 m108 0 h10 m-310 -42 v20 m340 0 v-20 m-340 20 v56 m340 0 v-56 m-340 56 q0 10 10 10 m320 0 q10 0 10 -10 m-330 10 h10 m108 0 h10 m0 0 h192 m20 -108 h10 m26 0 h10 m3 0 h-3"/>
   <polygon points="481 17 489 13 489 21"/>
   <polygon points="481 17 473 13 473 21"/>
</svg>
