<?xml version="1.0" encoding="UTF-8"?>
<svg xmlns="http://www.w3.org/2000/svg" width="515" height="145">
   <defs>
      <style type="text/css">
    @namespace "http://www.w3.org/2000/svg";
    .line                 {fill: none; stroke: #174B00; stroke-width: 1;}
    .bold-line            {stroke: #061400; shape-rendering: crispEdges; stroke-width: 2;}
    .thin-line            {stroke: #091F00; shape-rendering: crispEdges}
    .filled               {fill: #174B00; stroke: none;}
    text.terminal         {font-family: Verdana, Sans-serif;
                            font-size: 12px;
                            fill: #061400;
                            font-weight: bold;
                          }
    text.nonterminal      {font-family: Verdana, Sans-serif;
                            font-size: 12px;
                            fill: #081A00;
                            font-weight: normal;
                          }
    text.regexp           {font-family: Verdana, Sans-serif;
                            font-size: 12px;
                            fill: #091F00;
                            font-weight: normal;
                          }
    rect, circle, polygon {fill: #174B00; stroke: #174B00;}
    rect.terminal         {fill: #F8FFF5; stroke: #174B00; stroke-width: 1;}
    rect.nonterminal      {fill: #FBFFFA; stroke: #174B00; stroke-width: 1;}
    rect.text             {fill: none; stroke: none;}
    polygon.regexp        {fill: #FDFFFC; stroke: #174B00; stroke-width: 1;}
  </style>
   </defs>
   <polygon points="9 17 1 13 1 21"/>
   <polygon points="17 17 9 13 9 21"/>
   <rect x="31" y="3" width="26" height="32" rx="10"/>
   <rect x="29"
         y="1"
         width="26"
         height="32"
         class="terminal"
         rx="10"/>
   <text class="terminal" x="39" y="21">(</text>
   <a xmlns:xlink="http://www.w3.org/1999/xlink"
      xlink:href="#ExpressionList"
      xlink:title="ExpressionList">
      <rect x="97" y="35" width="112" height="32"/>
      <rect x="95" y="33" width="112" height="32" class="nonterminal"/>
      <text class="nonterminal" x="105" y="53">ExpressionList</text>
   </a>
   <rect x="249" y="67" width="24" height="32" rx="10"/>
   <rect x="247"
         y="65"
         width="24"
         height="32"
         class="terminal"
         rx="10"/>
   <text class="terminal" x="257" y="85">,</text>
   <a xmlns:xlink="http://www.w3.org/1999/xlink"
      xlink:href="#NamedArgList"
      xlink:title="NamedArgList">
      <rect x="293" y="67" width="108" height="32"/>
      <rect x="291" y="65" width="108" height="32" class="nonterminal"/>
      <text class="nonterminal" x="301" y="85">NamedArgList</text>
   </a>
   <a xmlns:xlink="http://www.w3.org/1999/xlink"
      xlink:href="#NamedArgList"
      xlink:title="NamedArgList">
      <rect x="97" y="111" width="108" height="32"/>
      <rect x="95" y="109" width="108" height="32" class="nonterminal"/>
      <text class="nonterminal" x="105" y="129">NamedArgList</text>
   </a>
   <rect x="461" y="3" width="26" height="32" rx="10"/>
   <rect x="459"
         y="1"
         width="26"
         height="32"
         class="terminal"
         rx="10"/>
   <text class="terminal" x="469" y="21">)</text>
   <path class="line"
         d="m17 17 h2 m0 0 h10 m26 0 h10 m20 0 h10 m0 0 h334 m-364 0 h20 m344 0 h20 m-384 0 q10 0 10 10 m364 0 q0 -10 10 -10 m-374 10 v12 m364 0 v-12 m-364 12 q0 10 10 10 m344 0 q10 0 10 -10 m-354 10 h10 m112 0 h10 m20 0 h10 m0 0 h162 m-192 0 h20 m172 0 h20 m-212 0 q10 0 10 10 m192 0 q0 -10 10 -10 m-202 10 v12 m192 0 v-12 m-192 12 q0 10 10 10 m172 0 q10 0 10 -10 m-182 10 h10 m24 0 h10 m0 0 h10 m108 0 h10 m-334 -42 v20 m364 0 v-20 m-364 20 v56 m364 0 v-56 m-364 56 q0 10 10 10 m344 0 q10 0 10 -10 m-354 10 h10 m108 0 h10 m0 0 h216 m20 -108 h10 m26 0 h10 m3 0 h-3"/>
   <polygon points="505 17 513 13 513 21"/>
   <polygon points="505 17 497 13 497 21"/>
</svg>
