<?xml version="1.0" encoding="UTF-8"?>
<svg xmlns="http://www.w3.org/2000/svg" width="561" height="69">
   <defs>
      <style type="text/css">
    @namespace "http://www.w3.org/2000/svg";
    .line                 {fill: none; stroke: #000045; stroke-width: 1;}
    .bold-line            {stroke: #000014; shape-rendering: crispEdges; stroke-width: 2;}
    .thin-line            {stroke: #00001F; shape-rendering: crispEdges}
    .filled               {fill: #000045; stroke: none;}
    text.terminal         {font-family: Verdana, Sans-serif;
                            font-size: 12px;
                            fill: #000014;
                            font-weight: bold;
                          }
    text.nonterminal      {font-family: Verdana, Sans-serif;
                            font-size: 12px;
                            fill: #00001A;
                            font-weight: normal;
                          }
    text.regexp           {font-family: Verdana, Sans-serif;
                            font-size: 12px;
                            fill: #00001F;
                            font-weight: normal;
                          }
    rect, circle, polygon {fill: #000045; stroke: #000045;}
    rect.terminal         {fill: #CCCCFF; stroke: #000045; stroke-width: 1;}
    rect.nonterminal      {fill: #E3E3FF; stroke: #000045; stroke-width: 1;}
    rect.text             {fill: none; stroke: none;}
    polygon.regexp        {fill: #EFEFFF; stroke: #000045; stroke-width: 1;}
  </style>
   </defs>
   <polygon points="9 33 1 29 1 37"/>
   <polygon points="17 33 9 29 9 37"/>
   <a xmlns:xlink="http://www.w3.org/1999/xlink"
      xlink:href="#TernaryExpression"
      xlink:title="TernaryExpression">
      <rect x="31" y="19" width="138" height="32"/>
      <rect x="29" y="17" width="138" height="32" class="nonterminal"/>
      <text class="nonterminal" x="39" y="37">TernaryExpression</text>
   </a>
   <a xmlns:xlink="http://www.w3.org/1999/xlink"
      xlink:href="#AssignmentOperator"
      xlink:title="AssignmentOperator">
      <rect x="229" y="19" width="150" height="32"/>
      <rect x="227" y="17" width="150" height="32" class="nonterminal"/>
      <text class="nonterminal" x="237" y="37">AssignmentOperator</text>
   </a>
   <a xmlns:xlink="http://www.w3.org/1999/xlink"
      xlink:href="#Assignment"
      xlink:title="Assignment">
      <rect x="399" y="19" width="94" height="32"/>
      <rect x="397" y="17" width="94" height="32" class="nonterminal"/>
      <text class="nonterminal" x="407" y="37">Assignment</text>
   </a>
   <path class="line"
         d="m17 33 h2 m0 0 h10 m138 0 h10 m40 0 h10 m150 0 h10 m0 0 h10 m94 0 h10 m-304 0 l20 0 m-1 0 q-9 0 -9 -10 l0 -12 q0 -10 10 -10 m284 32 l20 0 m-20 0 q10 0 10 -10 l0 -12 q0 -10 -10 -10 m-284 0 h10 m0 0 h274 m-324 32 h20 m324 0 h20 m-364 0 q10 0 10 10 m344 0 q0 -10 10 -10 m-354 10 v14 m344 0 v-14 m-344 14 q0 10 10 10 m324 0 q10 0 10 -10 m-334 10 h10 m0 0 h314 m23 -34 h-3"/>
   <polygon points="551 33 559 29 559 37"/>
   <polygon points="551 33 543 29 543 37"/>
</svg>
