<?xml version="1.0" encoding="UTF-8"?>
<svg xmlns="http://www.w3.org/2000/svg" width="405" height="37">
   <defs>
      <style type="text/css">
    @namespace "http://www.w3.org/2000/svg";
    .line                 {fill: none; stroke: #004900; stroke-width: 1;}
    .bold-line            {stroke: #001400; shape-rendering: crispEdges; stroke-width: 2;}
    .thin-line            {stroke: #001F00; shape-rendering: crispEdges}
    .filled               {fill: #004900; stroke: none;}
    text.terminal         {font-family: Verdana, Sans-serif;
                            font-size: 12px;
                            fill: #001400;
                            font-weight: bold;
                          }
    text.nonterminal      {font-family: Verdana, Sans-serif;
                            font-size: 12px;
                            fill: #001A00;
                            font-weight: normal;
                          }
    text.regexp           {font-family: Verdana, Sans-serif;
                            font-size: 12px;
                            fill: #001F00;
                            font-weight: normal;
                          }
    rect, circle, polygon {fill: #004900; stroke: #004900;}
    rect.terminal         {fill: #E5FFE5; stroke: #004900; stroke-width: 1;}
    rect.nonterminal      {fill: #F1FFF1; stroke: #004900; stroke-width: 1;}
    rect.text             {fill: none; stroke: none;}
    polygon.regexp        {fill: #F7FFF7; stroke: #004900; stroke-width: 1;}
  </style>
   </defs>
   <polygon points="9 17 1 13 1 21"/>
   <polygon points="17 17 9 13 9 21"/>
   <rect x="31" y="3" width="38" height="32" rx="10"/>
   <rect x="29"
         y="1"
         width="38"
         height="32"
         class="terminal"
         rx="10"/>
   <text class="terminal" x="39" y="21">let</text>
   <a xmlns:xlink="http://www.w3.org/1999/xlink"
      xlink:href="#Reference"
      xlink:title="Reference">
      <rect x="89" y="3" width="84" height="32"/>
      <rect x="87" y="1" width="84" height="32" class="nonterminal"/>
      <text class="nonterminal" x="97" y="21">Reference</text>
   </a>
   <rect x="193" y="3" width="30" height="32" rx="10"/>
   <rect x="191"
         y="1"
         width="30"
         height="32"
         class="terminal"
         rx="10"/>
   <text class="terminal" x="201" y="21">=</text>
   <a xmlns:xlink="http://www.w3.org/1999/xlink"
      xlink:href="#Expression"
      xlink:title="Expression">
      <rect x="243" y="3" width="90" height="32"/>
      <rect x="241" y="1" width="90" height="32" class="nonterminal"/>
      <text class="nonterminal" x="251" y="21">Expression</text>
   </a>
   <rect x="353" y="3" width="24" height="32" rx="10"/>
   <rect x="351"
         y="1"
         width="24"
         height="32"
         class="terminal"
         rx="10"/>
   <text class="terminal" x="361" y="21">;</text>
   <path class="line"
         d="m17 17 h2 m0 0 h10 m38 0 h10 m0 0 h10 m84 0 h10 m0 0 h10 m30 0 h10 m0 0 h10 m90 0 h10 m0 0 h10 m24 0 h10 m3 0 h-3"/>
   <polygon points="395 17 403 13 403 21"/>
   <polygon points="395 17 387 13 387 21"/>
</svg>
