<?xml version="1.0" encoding="UTF-8"?>
<svg xmlns="http://www.w3.org/2000/svg" width="479" height="69">
   <defs>
      <style type="text/css">
    @namespace "http://www.w3.org/2000/svg";
    .line                 {fill: none; stroke: #004900; stroke-width: 1;}
    .bold-line            {stroke: #001400; shape-rendering: crispEdges; stroke-width: 2;}
    .thin-line            {stroke: #001F00; shape-rendering: crispEdges}
    .filled               {fill: #004900; stroke: none;}
    text.terminal         {font-family: Verdana, Sans-serif;
                            font-size: 12px;
                            fill: #001400;
                            font-weight: bold;
                          }
    text.nonterminal      {font-family: Verdana, Sans-serif;
                            font-size: 12px;
                            fill: #001A00;
                            font-weight: normal;
                          }
    text.regexp           {font-family: Verdana, Sans-serif;
                            font-size: 12px;
                            fill: #001F00;
                            font-weight: normal;
                          }
    rect, circle, polygon {fill: #004900; stroke: #004900;}
    rect.terminal         {fill: #E5FFE5; stroke: #004900; stroke-width: 1;}
    rect.nonterminal      {fill: #F1FFF1; stroke: #004900; stroke-width: 1;}
    rect.text             {fill: none; stroke: none;}
    polygon.regexp        {fill: #F7FFF7; stroke: #004900; stroke-width: 1;}
  </style>
   </defs>
   <polygon points="9 17 1 13 1 21"/>
   <polygon points="17 17 9 13 9 21"/>
   <a xmlns:xlink="http://www.w3.org/1999/xlink"
      xlink:href="#TYPE_NAME"
      xlink:title="TYPE_NAME">
      <rect x="31" y="3" width="94" height="32"/>
      <rect x="29" y="1" width="94" height="32" class="nonterminal"/>
      <text class="nonterminal" x="39" y="21">TYPE_NAME</text>
   </a>
   <rect x="145" y="3" width="30" height="32" rx="10"/>
   <rect x="143"
         y="1"
         width="30"
         height="32"
         class="terminal"
         rx="10"/>
   <text class="terminal" x="153" y="21">::</text>
   <a xmlns:xlink="http://www.w3.org/1999/xlink"
      xlink:href="#IDENTIFIER"
      xlink:title="IDENTIFIER">
      <rect x="195" y="3" width="92" height="32"/>
      <rect x="193" y="1" width="92" height="32" class="nonterminal"/>
      <text class="nonterminal" x="203" y="21">IDENTIFIER</text>
   </a>
   <a xmlns:xlink="http://www.w3.org/1999/xlink"
      xlink:href="#ArgumentList"
      xlink:title="ArgumentList">
      <rect x="327" y="35" width="104" height="32"/>
      <rect x="325" y="33" width="104" height="32" class="nonterminal"/>
      <text class="nonterminal" x="335" y="53">ArgumentList</text>
   </a>
   <path class="line"
         d="m17 17 h2 m0 0 h10 m94 0 h10 m0 0 h10 m30 0 h10 m0 0 h10 m92 0 h10 m20 0 h10 m0 0 h114 m-144 0 h20 m124 0 h20 m-164 0 q10 0 10 10 m144 0 q0 -10 10 -10 m-154 10 v12 m144 0 v-12 m-144 12 q0 10 10 10 m124 0 q10 0 10 -10 m-134 10 h10 m104 0 h10 m23 -32 h-3"/>
   <polygon points="469 17 477 13 477 21"/>
   <polygon points="469 17 461 13 461 21"/>
</svg>
