<?xml version="1.0" encoding="UTF-8"?>
<svg xmlns="http://www.w3.org/2000/svg" width="297" height="521">
   <defs>
      <style type="text/css">
    @namespace "http://www.w3.org/2000/svg";
    .line                 {fill: none; stroke: #00174B; stroke-width: 1;}
    .bold-line            {stroke: #000614; shape-rendering: crispEdges; stroke-width: 2;}
    .thin-line            {stroke: #00091F; shape-rendering: crispEdges}
    .filled               {fill: #00174B; stroke: none;}
    text.terminal         {font-family: Verdana, Sans-serif;
                            font-size: 12px;
                            fill: #000614;
                            font-weight: bold;
                          }
    text.nonterminal      {font-family: Verdana, Sans-serif;
                            font-size: 12px;
                            fill: #00081A;
                            font-weight: normal;
                          }
    text.regexp           {font-family: Verdana, Sans-serif;
                            font-size: 12px;
                            fill: #00091F;
                            font-weight: normal;
                          }
    rect, circle, polygon {fill: #00174B; stroke: #00174B;}
    rect.terminal         {fill: #F5F8FF; stroke: #00174B; stroke-width: 1;}
    rect.nonterminal      {fill: #FAFBFF; stroke: #00174B; stroke-width: 1;}
    rect.text             {fill: none; stroke: none;}
    polygon.regexp        {fill: #FCFDFF; stroke: #00174B; stroke-width: 1;}
  </style>
   </defs>
   <polygon points="9 17 1 13 1 21"/>
   <polygon points="17 17 9 13 9 21"/>
   <a xmlns:xlink="http://www.w3.org/1999/xlink"
      xlink:href="#Literal"
      xlink:title="Literal">
      <rect x="51" y="3" width="60" height="32"/>
      <rect x="49" y="1" width="60" height="32" class="nonterminal"/>
      <text class="nonterminal" x="59" y="21">Literal</text>
   </a>
   <rect x="51" y="47" width="44" height="32" rx="10"/>
   <rect x="49"
         y="45"
         width="44"
         height="32"
         class="terminal"
         rx="10"/>
   <text class="terminal" x="59" y="65">this</text>
   <a xmlns:xlink="http://www.w3.org/1999/xlink"
      xlink:href="#AtomStartingWithSuper"
      xlink:title="AtomStartingWithSuper">
      <rect x="51" y="91" width="170" height="32"/>
      <rect x="49" y="89" width="170" height="32" class="nonterminal"/>
      <text class="nonterminal" x="59" y="109">AtomStartingWithSuper</text>
   </a>
   <a xmlns:xlink="http://www.w3.org/1999/xlink"
      xlink:href="#AtomStartingWithTypeOf"
      xlink:title="AtomStartingWithTypeOf">
      <rect x="51" y="135" width="176" height="32"/>
      <rect x="49" y="133" width="176" height="32" class="nonterminal"/>
      <text class="nonterminal" x="59" y="153">AtomStartingWithTypeOf</text>
   </a>
   <a xmlns:xlink="http://www.w3.org/1999/xlink"
      xlink:href="#AtomStartingWithTypeName"
      xlink:title="AtomStartingWithTypeName">
      <rect x="51" y="179" width="198" height="32"/>
      <rect x="49" y="177" width="198" height="32" class="nonterminal"/>
      <text class="nonterminal" x="59" y="197">AtomStartingWithTypeName</text>
   </a>
   <a xmlns:xlink="http://www.w3.org/1999/xlink"
      xlink:href="#AtomStartingWithId"
      xlink:title="AtomStartingWithId">
      <rect x="51" y="223" width="146" height="32"/>
      <rect x="49" y="221" width="146" height="32" class="nonterminal"/>
      <text class="nonterminal" x="59" y="241">AtomStartingWithId</text>
   </a>
   <a xmlns:xlink="http://www.w3.org/1999/xlink"
      xlink:href="#AtomStartingWithNew"
      xlink:title="AtomStartingWithNew">
      <rect x="51" y="267" width="158" height="32"/>
      <rect x="49" y="265" width="158" height="32" class="nonterminal"/>
      <text class="nonterminal" x="59" y="285">AtomStartingWithNew</text>
   </a>
   <a xmlns:xlink="http://www.w3.org/1999/xlink"
      xlink:href="#AtomStartingWithLParen"
      xlink:title="AtomStartingWithLParen">
      <rect x="51" y="311" width="176" height="32"/>
      <rect x="49" y="309" width="176" height="32" class="nonterminal"/>
      <text class="nonterminal" x="59" y="329">AtomStartingWithLParen</text>
   </a>
   <a xmlns:xlink="http://www.w3.org/1999/xlink"
      xlink:href="#AtomStartingWithLBrace"
      xlink:title="AtomStartingWithLBrace">
      <rect x="51" y="355" width="174" height="32"/>
      <rect x="49" y="353" width="174" height="32" class="nonterminal"/>
      <text class="nonterminal" x="59" y="373">AtomStartingWithLBrace</text>
   </a>
   <a xmlns:xlink="http://www.w3.org/1999/xlink"
      xlink:href="#ListInitializer"
      xlink:title="ListInitializer">
      <rect x="51" y="399" width="102" height="32"/>
      <rect x="49" y="397" width="102" height="32" class="nonterminal"/>
      <text class="nonterminal" x="59" y="417">ListInitializer</text>
   </a>
   <a xmlns:xlink="http://www.w3.org/1999/xlink"
      xlink:href="#Lambda"
      xlink:title="Lambda">
      <rect x="51" y="443" width="70" height="32"/>
      <rect x="49" y="441" width="70" height="32" class="nonterminal"/>
      <text class="nonterminal" x="59" y="461">Lambda</text>
   </a>
   <a xmlns:xlink="http://www.w3.org/1999/xlink"
      xlink:href="#InlineFunction"
      xlink:title="InlineFunction">
      <rect x="51" y="487" width="108" height="32"/>
      <rect x="49" y="485" width="108" height="32" class="nonterminal"/>
      <text class="nonterminal" x="59" y="505">InlineFunction</text>
   </a>
   <path class="line"
         d="m17 17 h2 m20 0 h10 m60 0 h10 m0 0 h138 m-238 0 h20 m218 0 h20 m-258 0 q10 0 10 10 m238 0 q0 -10 10 -10 m-248 10 v24 m238 0 v-24 m-238 24 q0 10 10 10 m218 0 q10 0 10 -10 m-228 10 h10 m44 0 h10 m0 0 h154 m-228 -10 v20 m238 0 v-20 m-238 20 v24 m238 0 v-24 m-238 24 q0 10 10 10 m218 0 q10 0 10 -10 m-228 10 h10 m170 0 h10 m0 0 h28 m-228 -10 v20 m238 0 v-20 m-238 20 v24 m238 0 v-24 m-238 24 q0 10 10 10 m218 0 q10 0 10 -10 m-228 10 h10 m176 0 h10 m0 0 h22 m-228 -10 v20 m238 0 v-20 m-238 20 v24 m238 0 v-24 m-238 24 q0 10 10 10 m218 0 q10 0 10 -10 m-228 10 h10 m198 0 h10 m-228 -10 v20 m238 0 v-20 m-238 20 v24 m238 0 v-24 m-238 24 q0 10 10 10 m218 0 q10 0 10 -10 m-228 10 h10 m146 0 h10 m0 0 h52 m-228 -10 v20 m238 0 v-20 m-238 20 v24 m238 0 v-24 m-238 24 q0 10 10 10 m218 0 q10 0 10 -10 m-228 10 h10 m158 0 h10 m0 0 h40 m-228 -10 v20 m238 0 v-20 m-238 20 v24 m238 0 v-24 m-238 24 q0 10 10 10 m218 0 q10 0 10 -10 m-228 10 h10 m176 0 h10 m0 0 h22 m-228 -10 v20 m238 0 v-20 m-238 20 v24 m238 0 v-24 m-238 24 q0 10 10 10 m218 0 q10 0 10 -10 m-228 10 h10 m174 0 h10 m0 0 h24 m-228 -10 v20 m238 0 v-20 m-238 20 v24 m238 0 v-24 m-238 24 q0 10 10 10 m218 0 q10 0 10 -10 m-228 10 h10 m102 0 h10 m0 0 h96 m-228 -10 v20 m238 0 v-20 m-238 20 v24 m238 0 v-24 m-238 24 q0 10 10 10 m218 0 q10 0 10 -10 m-228 10 h10 m70 0 h10 m0 0 h128 m-228 -10 v20 m238 0 v-20 m-238 20 v24 m238 0 v-24 m-238 24 q0 10 10 10 m218 0 q10 0 10 -10 m-228 10 h10 m108 0 h10 m0 0 h90 m23 -484 h-3"/>
   <polygon points="287 17 295 13 295 21"/>
   <polygon points="287 17 279 13 279 21"/>
</svg>
