<?xml version="1.0" encoding="UTF-8"?>
<svg xmlns="http://www.w3.org/2000/svg" width="219" height="81">
   <defs>
      <style type="text/css">
    @namespace "http://www.w3.org/2000/svg";
    .line                 {fill: none; stroke: #00174B; stroke-width: 1;}
    .bold-line            {stroke: #000614; shape-rendering: crispEdges; stroke-width: 2;}
    .thin-line            {stroke: #00091F; shape-rendering: crispEdges}
    .filled               {fill: #00174B; stroke: none;}
    text.terminal         {font-family: Verdana, Sans-serif;
                            font-size: 12px;
                            fill: #000614;
                            font-weight: bold;
                          }
    text.nonterminal      {font-family: Verdana, Sans-serif;
                            font-size: 12px;
                            fill: #00081A;
                            font-weight: normal;
                          }
    text.regexp           {font-family: Verdana, Sans-serif;
                            font-size: 12px;
                            fill: #00091F;
                            font-weight: normal;
                          }
    rect, circle, polygon {fill: #00174B; stroke: #00174B;}
    rect.terminal         {fill: #F5F8FF; stroke: #00174B; stroke-width: 1;}
    rect.nonterminal      {fill: #FAFBFF; stroke: #00174B; stroke-width: 1;}
    rect.text             {fill: none; stroke: none;}
    polygon.regexp        {fill: #FCFDFF; stroke: #00174B; stroke-width: 1;}
  </style>
   </defs>
   <polygon points="9 17 1 13 1 21"/>
   <polygon points="17 17 9 13 9 21"/>
   <a xmlns:xlink="http://www.w3.org/1999/xlink"
      xlink:href="#ObjectInitializer"
      xlink:title="ObjectInitializer">
      <rect x="51" y="3" width="120" height="32"/>
      <rect x="49" y="1" width="120" height="32" class="nonterminal"/>
      <text class="nonterminal" x="59" y="21">ObjectInitializer</text>
   </a>
   <a xmlns:xlink="http://www.w3.org/1999/xlink"
      xlink:href="#ConstructorCall"
      xlink:title="ConstructorCall">
      <rect x="51" y="47" width="118" height="32"/>
      <rect x="49" y="45" width="118" height="32" class="nonterminal"/>
      <text class="nonterminal" x="59" y="65">ConstructorCall</text>
   </a>
   <path class="line"
         d="m17 17 h2 m20 0 h10 m120 0 h10 m-160 0 h20 m140 0 h20 m-180 0 q10 0 10 10 m160 0 q0 -10 10 -10 m-170 10 v24 m160 0 v-24 m-160 24 q0 10 10 10 m140 0 q10 0 10 -10 m-150 10 h10 m118 0 h10 m0 0 h2 m23 -44 h-3"/>
   <polygon points="209 17 217 13 217 21"/>
   <polygon points="209 17 201 13 201 21"/>
</svg>
