<?xml version="1.0" encoding="UTF-8"?>
<svg xmlns="http://www.w3.org/2000/svg" width="693" height="177">
   <defs>
      <style type="text/css">
    @namespace "http://www.w3.org/2000/svg";
    .line                 {fill: none; stroke: #174B00; stroke-width: 1;}
    .bold-line            {stroke: #061400; shape-rendering: crispEdges; stroke-width: 2;}
    .thin-line            {stroke: #091F00; shape-rendering: crispEdges}
    .filled               {fill: #174B00; stroke: none;}
    text.terminal         {font-family: Verdana, Sans-serif;
                            font-size: 12px;
                            fill: #061400;
                            font-weight: bold;
                          }
    text.nonterminal      {font-family: Verdana, Sans-serif;
                            font-size: 12px;
                            fill: #081A00;
                            font-weight: normal;
                          }
    text.regexp           {font-family: Verdana, Sans-serif;
                            font-size: 12px;
                            fill: #091F00;
                            font-weight: normal;
                          }
    rect, circle, polygon {fill: #174B00; stroke: #174B00;}
    rect.terminal         {fill: #F8FFF5; stroke: #174B00; stroke-width: 1;}
    rect.nonterminal      {fill: #FBFFFA; stroke: #174B00; stroke-width: 1;}
    rect.text             {fill: none; stroke: none;}
    polygon.regexp        {fill: #FDFFFC; stroke: #174B00; stroke-width: 1;}
  </style>
   </defs>
   <polygon points="9 17 1 13 1 21"/>
   <polygon points="17 17 9 13 9 21"/>
   <a xmlns:xlink="http://www.w3.org/1999/xlink"
      xlink:href="#IDENTIFIER"
      xlink:title="IDENTIFIER">
      <rect x="31" y="3" width="92" height="32"/>
      <rect x="29" y="1" width="92" height="32" class="nonterminal"/>
      <text class="nonterminal" x="39" y="21">IDENTIFIER</text>
   </a>
   <rect x="163" y="35" width="26" height="32" rx="10"/>
   <rect x="161"
         y="33"
         width="26"
         height="32"
         class="terminal"
         rx="10"/>
   <text class="terminal" x="171" y="53">(</text>
   <a xmlns:xlink="http://www.w3.org/1999/xlink"
      xlink:href="#Expression"
      xlink:title="Expression">
      <rect x="229" y="67" width="90" height="32"/>
      <rect x="227" y="65" width="90" height="32" class="nonterminal"/>
      <text class="nonterminal" x="237" y="85">Expression</text>
   </a>
   <a xmlns:xlink="http://www.w3.org/1999/xlink"
      xlink:href="#Expression"
      xlink:title="Expression">
      <rect x="249" y="143" width="90" height="32"/>
      <rect x="247" y="141" width="90" height="32" class="nonterminal"/>
      <text class="nonterminal" x="257" y="161">Expression</text>
   </a>
   <rect x="359" y="143" width="24" height="32" rx="10"/>
   <rect x="357"
         y="141"
         width="24"
         height="32"
         class="terminal"
         rx="10"/>
   <text class="terminal" x="367" y="161">,</text>
   <a xmlns:xlink="http://www.w3.org/1999/xlink"
      xlink:href="#PropertyInitializerList"
      xlink:title="PropertyInitializerList">
      <rect x="423" y="111" width="156" height="32"/>
      <rect x="421" y="109" width="156" height="32" class="nonterminal"/>
      <text class="nonterminal" x="431" y="129">PropertyInitializerList</text>
   </a>
   <rect x="619" y="35" width="26" height="32" rx="10"/>
   <rect x="617"
         y="33"
         width="26"
         height="32"
         class="terminal"
         rx="10"/>
   <text class="terminal" x="627" y="53">)</text>
   <path class="line"
         d="m17 17 h2 m0 0 h10 m92 0 h10 m20 0 h10 m0 0 h492 m-522 0 h20 m502 0 h20 m-542 0 q10 0 10 10 m522 0 q0 -10 10 -10 m-532 10 v12 m522 0 v-12 m-522 12 q0 10 10 10 m502 0 q10 0 10 -10 m-512 10 h10 m26 0 h10 m20 0 h10 m0 0 h360 m-390 0 h20 m370 0 h20 m-410 0 q10 0 10 10 m390 0 q0 -10 10 -10 m-400 10 v12 m390 0 v-12 m-390 12 q0 10 10 10 m370 0 q10 0 10 -10 m-380 10 h10 m90 0 h10 m0 0 h260 m-380 -10 v20 m390 0 v-20 m-390 20 v24 m390 0 v-24 m-390 24 q0 10 10 10 m370 0 q10 0 10 -10 m-360 10 h10 m0 0 h144 m-174 0 h20 m154 0 h20 m-194 0 q10 0 10 10 m174 0 q0 -10 10 -10 m-184 10 v12 m174 0 v-12 m-174 12 q0 10 10 10 m154 0 q10 0 10 -10 m-164 10 h10 m90 0 h10 m0 0 h10 m24 0 h10 m20 -32 h10 m156 0 h10 m20 -76 h10 m26 0 h10 m23 -32 h-3"/>
   <polygon points="683 17 691 13 691 21"/>
   <polygon points="683 17 675 13 675 21"/>
</svg>
