<?xml version="1.0" encoding="UTF-8"?>
<svg xmlns="http://www.w3.org/2000/svg" width="677" height="177">
   <defs>
      <style type="text/css">
    @namespace "http://www.w3.org/2000/svg";
    .line                 {fill: none; stroke: #332900; stroke-width: 1;}
    .bold-line            {stroke: #141000; shape-rendering: crispEdges; stroke-width: 2;}
    .thin-line            {stroke: #1F1800; shape-rendering: crispEdges}
    .filled               {fill: #332900; stroke: none;}
    text.terminal         {font-family: Verdana, Sans-serif;
                            font-size: 12px;
                            fill: #141000;
                            font-weight: bold;
                          }
    text.nonterminal      {font-family: Verdana, Sans-serif;
                            font-size: 12px;
                            fill: #1A1400;
                            font-weight: normal;
                          }
    text.regexp           {font-family: Verdana, Sans-serif;
                            font-size: 12px;
                            fill: #1F1800;
                            font-weight: normal;
                          }
    rect, circle, polygon {fill: #332900; stroke: #332900;}
    rect.terminal         {fill: #FFDB4D; stroke: #332900; stroke-width: 1;}
    rect.nonterminal      {fill: #FFEC9E; stroke: #332900; stroke-width: 1;}
    rect.text             {fill: none; stroke: none;}
    polygon.regexp        {fill: #FFF4C7; stroke: #332900; stroke-width: 1;}
  </style>
   </defs>
   <polygon points="9 17 1 13 1 21"/>
   <polygon points="17 17 9 13 9 21"/>
   <a xmlns:xlink="http://www.w3.org/1999/xlink"
      xlink:href="#IDENTIFIER"
      xlink:title="IDENTIFIER">
      <rect x="31" y="3" width="92" height="32"/>
      <rect x="29" y="1" width="92" height="32" class="nonterminal"/>
      <text class="nonterminal" x="39" y="21">IDENTIFIER</text>
   </a>
   <rect x="163" y="35" width="26" height="32" rx="10"/>
   <rect x="161"
         y="33"
         width="26"
         height="32"
         class="terminal"
         rx="10"/>
   <text class="terminal" x="171" y="53">(</text>
   <a xmlns:xlink="http://www.w3.org/1999/xlink"
      xlink:href="#Expression"
      xlink:title="Expression">
      <rect x="229" y="67" width="90" height="32"/>
      <rect x="227" y="65" width="90" height="32" class="nonterminal"/>
      <text class="nonterminal" x="237" y="85">Expression</text>
   </a>
   <a xmlns:xlink="http://www.w3.org/1999/xlink"
      xlink:href="#Expression"
      xlink:title="Expression">
      <rect x="249" y="143" width="90" height="32"/>
      <rect x="247" y="141" width="90" height="32" class="nonterminal"/>
      <text class="nonterminal" x="257" y="161">Expression</text>
   </a>
   <rect x="359" y="143" width="24" height="32" rx="10"/>
   <rect x="357"
         y="141"
         width="24"
         height="32"
         class="terminal"
         rx="10"/>
   <text class="terminal" x="367" y="161">,</text>
   <a xmlns:xlink="http://www.w3.org/1999/xlink"
      xlink:href="#PropertyInitializers"
      xlink:title="PropertyInitializers">
      <rect x="423" y="111" width="140" height="32"/>
      <rect x="421" y="109" width="140" height="32" class="nonterminal"/>
      <text class="nonterminal" x="431" y="129">PropertyInitializers</text>
   </a>
   <rect x="603" y="35" width="26" height="32" rx="10"/>
   <rect x="601"
         y="33"
         width="26"
         height="32"
         class="terminal"
         rx="10"/>
   <text class="terminal" x="611" y="53">)</text>
   <path class="line"
         d="m17 17 h2 m0 0 h10 m92 0 h10 m20 0 h10 m0 0 h476 m-506 0 h20 m486 0 h20 m-526 0 q10 0 10 10 m506 0 q0 -10 10 -10 m-516 10 v12 m506 0 v-12 m-506 12 q0 10 10 10 m486 0 q10 0 10 -10 m-496 10 h10 m26 0 h10 m20 0 h10 m0 0 h344 m-374 0 h20 m354 0 h20 m-394 0 q10 0 10 10 m374 0 q0 -10 10 -10 m-384 10 v12 m374 0 v-12 m-374 12 q0 10 10 10 m354 0 q10 0 10 -10 m-364 10 h10 m90 0 h10 m0 0 h244 m-364 -10 v20 m374 0 v-20 m-374 20 v24 m374 0 v-24 m-374 24 q0 10 10 10 m354 0 q10 0 10 -10 m-344 10 h10 m0 0 h144 m-174 0 h20 m154 0 h20 m-194 0 q10 0 10 10 m174 0 q0 -10 10 -10 m-184 10 v12 m174 0 v-12 m-174 12 q0 10 10 10 m154 0 q10 0 10 -10 m-164 10 h10 m90 0 h10 m0 0 h10 m24 0 h10 m20 -32 h10 m140 0 h10 m20 -76 h10 m26 0 h10 m23 -32 h-3"/>
   <polygon points="667 17 675 13 675 21"/>
   <polygon points="667 17 659 13 659 21"/>
</svg>
