<?xml version="1.0" encoding="UTF-8"?>
<svg xmlns="http://www.w3.org/2000/svg" width="497" height="141">
   <defs>
      <style type="text/css">
    @namespace "http://www.w3.org/2000/svg";
    .line                 {fill: none; stroke: #332900; stroke-width: 1;}
    .bold-line            {stroke: #141000; shape-rendering: crispEdges; stroke-width: 2;}
    .thin-line            {stroke: #1F1800; shape-rendering: crispEdges}
    .filled               {fill: #332900; stroke: none;}
    text.terminal         {font-family: Verdana, Sans-serif;
                            font-size: 12px;
                            fill: #141000;
                            font-weight: bold;
                          }
    text.nonterminal      {font-family: Verdana, Sans-serif;
                            font-size: 12px;
                            fill: #1A1400;
                            font-weight: normal;
                          }
    text.regexp           {font-family: Verdana, Sans-serif;
                            font-size: 12px;
                            fill: #1F1800;
                            font-weight: normal;
                          }
    rect, circle, polygon {fill: #332900; stroke: #332900;}
    rect.terminal         {fill: #FFDB4D; stroke: #332900; stroke-width: 1;}
    rect.nonterminal      {fill: #FFEC9E; stroke: #332900; stroke-width: 1;}
    rect.text             {fill: none; stroke: none;}
    polygon.regexp        {fill: #FFF4C7; stroke: #332900; stroke-width: 1;}
  </style>
   </defs>
   <polygon points="9 33 1 29 1 37"/>
   <polygon points="17 33 9 29 9 37"/>
   <rect x="51" y="19" width="28" height="32" rx="10"/>
   <rect x="49"
         y="17"
         width="28"
         height="32"
         class="terminal"
         rx="10"/>
   <text class="terminal" x="59" y="37">{</text>
   <a xmlns:xlink="http://www.w3.org/1999/xlink"
      xlink:href="#SCOPE"
      xlink:title="SCOPE">
      <rect x="139" y="51" width="62" height="32"/>
      <rect x="137" y="49" width="62" height="32" class="nonterminal"/>
      <text class="nonterminal" x="147" y="69">SCOPE</text>
   </a>
   <rect x="261" y="19" width="50" height="32" rx="10"/>
   <rect x="259"
         y="17"
         width="50"
         height="32"
         class="terminal"
         rx="10"/>
   <text class="terminal" x="269" y="37">read</text>
   <rect x="261" y="63" width="56" height="32" rx="10"/>
   <rect x="259"
         y="61"
         width="56"
         height="32"
         class="terminal"
         rx="10"/>
   <text class="terminal" x="269" y="81">write</text>
   <rect x="357" y="19" width="24" height="32" rx="10"/>
   <rect x="355"
         y="17"
         width="24"
         height="32"
         class="terminal"
         rx="10"/>
   <text class="terminal" x="365" y="37">;</text>
   <rect x="421" y="19" width="28" height="32" rx="10"/>
   <rect x="419"
         y="17"
         width="28"
         height="32"
         class="terminal"
         rx="10"/>
   <text class="terminal" x="429" y="37">}</text>
   <rect x="51" y="107" width="24" height="32" rx="10"/>
   <rect x="49"
         y="105"
         width="24"
         height="32"
         class="terminal"
         rx="10"/>
   <text class="terminal" x="59" y="125">;</text>
   <path class="line"
         d="m17 33 h2 m20 0 h10 m28 0 h10 m40 0 h10 m0 0 h72 m-102 0 h20 m82 0 h20 m-122 0 q10 0 10 10 m102 0 q0 -10 10 -10 m-112 10 v12 m102 0 v-12 m-102 12 q0 10 10 10 m82 0 q10 0 10 -10 m-92 10 h10 m62 0 h10 m40 -32 h10 m50 0 h10 m0 0 h6 m-96 0 h20 m76 0 h20 m-116 0 q10 0 10 10 m96 0 q0 -10 10 -10 m-106 10 v24 m96 0 v-24 m-96 24 q0 10 10 10 m76 0 q10 0 10 -10 m-86 10 h10 m56 0 h10 m20 -44 h10 m24 0 h10 m-302 0 l20 0 m-1 0 q-9 0 -9 -10 l0 -12 q0 -10 10 -10 m282 32 l20 0 m-20 0 q10 0 10 -10 l0 -12 q0 -10 -10 -10 m-282 0 h10 m0 0 h272 m20 32 h10 m28 0 h10 m-438 0 h20 m418 0 h20 m-458 0 q10 0 10 10 m438 0 q0 -10 10 -10 m-448 10 v68 m438 0 v-68 m-438 68 q0 10 10 10 m418 0 q10 0 10 -10 m-428 10 h10 m24 0 h10 m0 0 h374 m23 -88 h-3"/>
   <polygon points="487 33 495 29 495 37"/>
   <polygon points="487 33 479 29 479 37"/>
</svg>
