<?xml version="1.0" encoding="UTF-8"?>
<svg xmlns="http://www.w3.org/2000/svg" width="905" height="145">
   <defs>
      <style type="text/css">
    @namespace "http://www.w3.org/2000/svg";
    .line                 {fill: none; stroke: #332900; stroke-width: 1;}
    .bold-line            {stroke: #141000; shape-rendering: crispEdges; stroke-width: 2;}
    .thin-line            {stroke: #1F1800; shape-rendering: crispEdges}
    .filled               {fill: #332900; stroke: none;}
    text.terminal         {font-family: Verdana, Sans-serif;
                            font-size: 12px;
                            fill: #141000;
                            font-weight: bold;
                          }
    text.nonterminal      {font-family: Verdana, Sans-serif;
                            font-size: 12px;
                            fill: #1A1400;
                            font-weight: normal;
                          }
    text.regexp           {font-family: Verdana, Sans-serif;
                            font-size: 12px;
                            fill: #1F1800;
                            font-weight: normal;
                          }
    rect, circle, polygon {fill: #332900; stroke: #332900;}
    rect.terminal         {fill: #FFDB4D; stroke: #332900; stroke-width: 1;}
    rect.nonterminal      {fill: #FFEC9E; stroke: #332900; stroke-width: 1;}
    rect.text             {fill: none; stroke: none;}
    polygon.regexp        {fill: #FFF4C7; stroke: #332900; stroke-width: 1;}
  </style>
   </defs>
   <polygon points="9 17 1 13 1 21"/>
   <polygon points="17 17 9 13 9 21"/>
   <a xmlns:xlink="http://www.w3.org/1999/xlink"
      xlink:href="#DECIMAL_INTEGER"
      xlink:title="DECIMAL_INTEGER">
      <rect x="31" y="3" width="138" height="32"/>
      <rect x="29" y="1" width="138" height="32" class="nonterminal"/>
      <text class="nonterminal" x="39" y="21">DECIMAL_INTEGER</text>
   </a>
   <rect x="209" y="35" width="24" height="32" rx="10"/>
   <rect x="207"
         y="33"
         width="24"
         height="32"
         class="terminal"
         rx="10"/>
   <text class="terminal" x="217" y="53">.</text>
   <a xmlns:xlink="http://www.w3.org/1999/xlink"
      xlink:href="#DECIMAL_INTEGER"
      xlink:title="DECIMAL_INTEGER">
      <rect x="253" y="35" width="138" height="32"/>
      <rect x="251" y="33" width="138" height="32" class="nonterminal"/>
      <text class="nonterminal" x="261" y="53">DECIMAL_INTEGER</text>
   </a>
   <rect x="471" y="35" width="28" height="32" rx="10"/>
   <rect x="469"
         y="33"
         width="28"
         height="32"
         class="terminal"
         rx="10"/>
   <text class="terminal" x="479" y="53">e</text>
   <rect x="471" y="79" width="28" height="32" rx="10"/>
   <rect x="469"
         y="77"
         width="28"
         height="32"
         class="terminal"
         rx="10"/>
   <text class="terminal" x="479" y="97">E</text>
   <rect x="559" y="67" width="30" height="32" rx="10"/>
   <rect x="557"
         y="65"
         width="30"
         height="32"
         class="terminal"
         rx="10"/>
   <text class="terminal" x="567" y="85">+</text>
   <rect x="559" y="111" width="26" height="32" rx="10"/>
   <rect x="557"
         y="109"
         width="26"
         height="32"
         class="terminal"
         rx="10"/>
   <text class="terminal" x="567" y="129">-</text>
   <a xmlns:xlink="http://www.w3.org/1999/xlink"
      xlink:href="#DECIMAL_INTEGER"
      xlink:title="DECIMAL_INTEGER">
      <rect x="629" y="35" width="138" height="32"/>
      <rect x="627" y="33" width="138" height="32" class="nonterminal"/>
      <text class="nonterminal" x="637" y="53">DECIMAL_INTEGER</text>
   </a>
   <rect x="827" y="3" width="28" height="32" rx="10"/>
   <rect x="825"
         y="1"
         width="28"
         height="32"
         class="terminal"
         rx="10"/>
   <text class="terminal" x="835" y="21">d</text>
   <rect x="827" y="47" width="30" height="32" rx="10"/>
   <rect x="825"
         y="45"
         width="30"
         height="32"
         class="terminal"
         rx="10"/>
   <text class="terminal" x="835" y="65">D</text>
   <path class="line"
         d="m17 17 h2 m0 0 h10 m138 0 h10 m20 0 h10 m0 0 h192 m-222 0 h20 m202 0 h20 m-242 0 q10 0 10 10 m222 0 q0 -10 10 -10 m-232 10 v12 m222 0 v-12 m-222 12 q0 10 10 10 m202 0 q10 0 10 -10 m-212 10 h10 m24 0 h10 m0 0 h10 m138 0 h10 m40 -32 h10 m0 0 h326 m-356 0 h20 m336 0 h20 m-376 0 q10 0 10 10 m356 0 q0 -10 10 -10 m-366 10 v12 m356 0 v-12 m-356 12 q0 10 10 10 m336 0 q10 0 10 -10 m-326 10 h10 m28 0 h10 m-68 0 h20 m48 0 h20 m-88 0 q10 0 10 10 m68 0 q0 -10 10 -10 m-78 10 v24 m68 0 v-24 m-68 24 q0 10 10 10 m48 0 q10 0 10 -10 m-58 10 h10 m28 0 h10 m40 -44 h10 m0 0 h40 m-70 0 h20 m50 0 h20 m-90 0 q10 0 10 10 m70 0 q0 -10 10 -10 m-80 10 v12 m70 0 v-12 m-70 12 q0 10 10 10 m50 0 q10 0 10 -10 m-60 10 h10 m30 0 h10 m-60 -10 v20 m70 0 v-20 m-70 20 v24 m70 0 v-24 m-70 24 q0 10 10 10 m50 0 q10 0 10 -10 m-60 10 h10 m26 0 h10 m0 0 h4 m20 -76 h10 m138 0 h10 m40 -32 h10 m28 0 h10 m0 0 h2 m-70 0 h20 m50 0 h20 m-90 0 q10 0 10 10 m70 0 q0 -10 10 -10 m-80 10 v24 m70 0 v-24 m-70 24 q0 10 10 10 m50 0 q10 0 10 -10 m-60 10 h10 m30 0 h10 m23 -44 h-3"/>
   <polygon points="895 17 903 13 903 21"/>
   <polygon points="895 17 887 13 887 21"/>
</svg>
