<?xml version="1.0" encoding="UTF-8"?>
<svg xmlns="http://www.w3.org/2000/svg" width="345" height="71">
   <defs>
      <style type="text/css">
    @namespace "http://www.w3.org/2000/svg";
    .line                 {fill: none; stroke: #00174B; stroke-width: 1;}
    .bold-line            {stroke: #000614; shape-rendering: crispEdges; stroke-width: 2;}
    .thin-line            {stroke: #00091F; shape-rendering: crispEdges}
    .filled               {fill: #00174B; stroke: none;}
    text.terminal         {font-family: Verdana, Sans-serif;
                            font-size: 12px;
                            fill: #000614;
                            font-weight: bold;
                          }
    text.nonterminal      {font-family: Verdana, Sans-serif;
                            font-size: 12px;
                            fill: #00081A;
                            font-weight: normal;
                          }
    text.regexp           {font-family: Verdana, Sans-serif;
                            font-size: 12px;
                            fill: #00091F;
                            font-weight: normal;
                          }
    rect, circle, polygon {fill: #00174B; stroke: #00174B;}
    rect.terminal         {fill: #F5F8FF; stroke: #00174B; stroke-width: 1;}
    rect.nonterminal      {fill: #FAFBFF; stroke: #00174B; stroke-width: 1;}
    rect.text             {fill: none; stroke: none;}
    polygon.regexp        {fill: #FCFDFF; stroke: #00174B; stroke-width: 1;}
  </style>
   </defs>
   <polygon points="9 51 1 47 1 55"/>
   <polygon points="17 51 9 47 9 55"/>
   <rect x="31" y="37" width="28" height="32" rx="10"/>
   <rect x="29"
         y="35"
         width="28"
         height="32"
         class="terminal"
         rx="10"/>
   <text class="terminal" x="39" y="55">{</text>
   <a xmlns:xlink="http://www.w3.org/1999/xlink"
      xlink:href="#StatementWithLabel"
      xlink:title="StatementWithLabel">
      <rect x="99" y="3" width="150" height="32"/>
      <rect x="97" y="1" width="150" height="32" class="nonterminal"/>
      <text class="nonterminal" x="107" y="21">StatementWithLabel</text>
   </a>
   <rect x="289" y="37" width="28" height="32" rx="10"/>
   <rect x="287"
         y="35"
         width="28"
         height="32"
         class="terminal"
         rx="10"/>
   <text class="terminal" x="297" y="55">}</text>
   <path class="line"
         d="m17 51 h2 m0 0 h10 m28 0 h10 m20 0 h10 m0 0 h160 m-190 0 l20 0 m-1 0 q-9 0 -9 -10 l0 -14 q0 -10 10 -10 m170 34 l20 0 m-20 0 q10 0 10 -10 l0 -14 q0 -10 -10 -10 m-170 0 h10 m150 0 h10 m20 34 h10 m28 0 h10 m3 0 h-3"/>
   <polygon points="335 51 343 47 343 55"/>
   <polygon points="335 51 327 47 327 55"/>
</svg>
