<?xml version="1.0" encoding="UTF-8"?>
<svg xmlns="http://www.w3.org/2000/svg" width="331" height="169">
   <defs>
      <style type="text/css">
    @namespace "http://www.w3.org/2000/svg";
    .line                 {fill: none; stroke: #332900; stroke-width: 1;}
    .bold-line            {stroke: #141000; shape-rendering: crispEdges; stroke-width: 2;}
    .thin-line            {stroke: #1F1800; shape-rendering: crispEdges}
    .filled               {fill: #332900; stroke: none;}
    text.terminal         {font-family: Verdana, Sans-serif;
                            font-size: 12px;
                            fill: #141000;
                            font-weight: bold;
                          }
    text.nonterminal      {font-family: Verdana, Sans-serif;
                            font-size: 12px;
                            fill: #1A1400;
                            font-weight: normal;
                          }
    text.regexp           {font-family: Verdana, Sans-serif;
                            font-size: 12px;
                            fill: #1F1800;
                            font-weight: normal;
                          }
    rect, circle, polygon {fill: #332900; stroke: #332900;}
    rect.terminal         {fill: #FFDB4D; stroke: #332900; stroke-width: 1;}
    rect.nonterminal      {fill: #FFEC9E; stroke: #332900; stroke-width: 1;}
    rect.text             {fill: none; stroke: none;}
    polygon.regexp        {fill: #FFF4C7; stroke: #332900; stroke-width: 1;}
  </style>
   </defs>
   <polygon points="9 17 1 13 1 21"/>
   <polygon points="17 17 9 13 9 21"/>
   <rect x="51" y="3" width="50" height="32" rx="10"/>
   <rect x="49"
         y="1"
         width="50"
         height="32"
         class="terminal"
         rx="10"/>
   <text class="terminal" x="59" y="21">case</text>
   <a xmlns:xlink="http://www.w3.org/1999/xlink"
      xlink:href="#BOOLEAN"
      xlink:title="BOOLEAN">
      <rect x="141" y="3" width="78" height="32"/>
      <rect x="139" y="1" width="78" height="32" class="nonterminal"/>
      <text class="nonterminal" x="149" y="21">BOOLEAN</text>
   </a>
   <a xmlns:xlink="http://www.w3.org/1999/xlink"
      xlink:href="#INTEGER"
      xlink:title="INTEGER">
      <rect x="141" y="47" width="74" height="32"/>
      <rect x="139" y="45" width="74" height="32" class="nonterminal"/>
      <text class="nonterminal" x="149" y="65">INTEGER</text>
   </a>
   <a xmlns:xlink="http://www.w3.org/1999/xlink"
      xlink:href="#STRING"
      xlink:title="STRING">
      <rect x="141" y="91" width="66" height="32"/>
      <rect x="139" y="89" width="66" height="32" class="nonterminal"/>
      <text class="nonterminal" x="149" y="109">STRING</text>
   </a>
   <rect x="51" y="135" width="68" height="32" rx="10"/>
   <rect x="49"
         y="133"
         width="68"
         height="32"
         class="terminal"
         rx="10"/>
   <text class="terminal" x="59" y="153">default</text>
   <rect x="279" y="3" width="24" height="32" rx="10"/>
   <rect x="277"
         y="1"
         width="24"
         height="32"
         class="terminal"
         rx="10"/>
   <text class="terminal" x="287" y="21">:</text>
   <path class="line"
         d="m17 17 h2 m20 0 h10 m50 0 h10 m20 0 h10 m78 0 h10 m-118 0 h20 m98 0 h20 m-138 0 q10 0 10 10 m118 0 q0 -10 10 -10 m-128 10 v24 m118 0 v-24 m-118 24 q0 10 10 10 m98 0 q10 0 10 -10 m-108 10 h10 m74 0 h10 m0 0 h4 m-108 -10 v20 m118 0 v-20 m-118 20 v24 m118 0 v-24 m-118 24 q0 10 10 10 m98 0 q10 0 10 -10 m-108 10 h10 m66 0 h10 m0 0 h12 m-208 -88 h20 m208 0 h20 m-248 0 q10 0 10 10 m228 0 q0 -10 10 -10 m-238 10 v112 m228 0 v-112 m-228 112 q0 10 10 10 m208 0 q10 0 10 -10 m-218 10 h10 m68 0 h10 m0 0 h120 m20 -132 h10 m24 0 h10 m3 0 h-3"/>
   <polygon points="321 17 329 13 329 21"/>
   <polygon points="321 17 313 13 313 21"/>
</svg>
