<?xml version="1.0" encoding="UTF-8"?>
<svg xmlns="http://www.w3.org/2000/svg" width="247" height="125">
   <defs>
      <style type="text/css">
    @namespace "http://www.w3.org/2000/svg";
    .line                 {fill: none; stroke: #004900; stroke-width: 1;}
    .bold-line            {stroke: #001400; shape-rendering: crispEdges; stroke-width: 2;}
    .thin-line            {stroke: #001F00; shape-rendering: crispEdges}
    .filled               {fill: #004900; stroke: none;}
    text.terminal         {font-family: Verdana, Sans-serif;
                            font-size: 12px;
                            fill: #001400;
                            font-weight: bold;
                          }
    text.nonterminal      {font-family: Verdana, Sans-serif;
                            font-size: 12px;
                            fill: #001A00;
                            font-weight: normal;
                          }
    text.regexp           {font-family: Verdana, Sans-serif;
                            font-size: 12px;
                            fill: #001F00;
                            font-weight: normal;
                          }
    rect, circle, polygon {fill: #004900; stroke: #004900;}
    rect.terminal         {fill: #E5FFE5; stroke: #004900; stroke-width: 1;}
    rect.nonterminal      {fill: #F1FFF1; stroke: #004900; stroke-width: 1;}
    rect.text             {fill: none; stroke: none;}
    polygon.regexp        {fill: #F7FFF7; stroke: #004900; stroke-width: 1;}
  </style>
   </defs>
   <polygon points="9 17 1 13 1 21"/>
   <polygon points="17 17 9 13 9 21"/>
   <rect x="31" y="3" width="50" height="32" rx="10"/>
   <rect x="29"
         y="1"
         width="50"
         height="32"
         class="terminal"
         rx="10"/>
   <text class="terminal" x="39" y="21">case</text>
   <a xmlns:xlink="http://www.w3.org/1999/xlink"
      xlink:href="#BOOLEAN"
      xlink:title="BOOLEAN">
      <rect x="121" y="3" width="78" height="32"/>
      <rect x="119" y="1" width="78" height="32" class="nonterminal"/>
      <text class="nonterminal" x="129" y="21">BOOLEAN</text>
   </a>
   <a xmlns:xlink="http://www.w3.org/1999/xlink"
      xlink:href="#INTEGER"
      xlink:title="INTEGER">
      <rect x="121" y="47" width="74" height="32"/>
      <rect x="119" y="45" width="74" height="32" class="nonterminal"/>
      <text class="nonterminal" x="129" y="65">INTEGER</text>
   </a>
   <a xmlns:xlink="http://www.w3.org/1999/xlink"
      xlink:href="#STRING"
      xlink:title="STRING">
      <rect x="121" y="91" width="66" height="32"/>
      <rect x="119" y="89" width="66" height="32" class="nonterminal"/>
      <text class="nonterminal" x="129" y="109">STRING</text>
   </a>
   <path class="line"
         d="m17 17 h2 m0 0 h10 m50 0 h10 m20 0 h10 m78 0 h10 m-118 0 h20 m98 0 h20 m-138 0 q10 0 10 10 m118 0 q0 -10 10 -10 m-128 10 v24 m118 0 v-24 m-118 24 q0 10 10 10 m98 0 q10 0 10 -10 m-108 10 h10 m74 0 h10 m0 0 h4 m-108 -10 v20 m118 0 v-20 m-118 20 v24 m118 0 v-24 m-118 24 q0 10 10 10 m98 0 q10 0 10 -10 m-108 10 h10 m66 0 h10 m0 0 h12 m23 -88 h-3"/>
   <polygon points="237 17 245 13 245 21"/>
   <polygon points="237 17 229 13 229 21"/>
</svg>
