<?xml version="1.0" encoding="UTF-8"?>
<svg xmlns="http://www.w3.org/2000/svg" width="711" height="353">
   <defs>
      <style type="text/css">
    @namespace "http://www.w3.org/2000/svg";
    .line                 {fill: none; stroke: #174B00; stroke-width: 1;}
    .bold-line            {stroke: #061400; shape-rendering: crispEdges; stroke-width: 2;}
    .thin-line            {stroke: #091F00; shape-rendering: crispEdges}
    .filled               {fill: #174B00; stroke: none;}
    text.terminal         {font-family: Verdana, Sans-serif;
                            font-size: 12px;
                            fill: #061400;
                            font-weight: bold;
                          }
    text.nonterminal      {font-family: Verdana, Sans-serif;
                            font-size: 12px;
                            fill: #081A00;
                            font-weight: normal;
                          }
    text.regexp           {font-family: Verdana, Sans-serif;
                            font-size: 12px;
                            fill: #091F00;
                            font-weight: normal;
                          }
    rect, circle, polygon {fill: #174B00; stroke: #174B00;}
    rect.terminal         {fill: #F8FFF5; stroke: #174B00; stroke-width: 1;}
    rect.nonterminal      {fill: #FBFFFA; stroke: #174B00; stroke-width: 1;}
    rect.text             {fill: none; stroke: none;}
    polygon.regexp        {fill: #FDFFFC; stroke: #174B00; stroke-width: 1;}
  </style>
   </defs>
   <polygon points="9 33 1 29 1 37"/>
   <polygon points="17 33 9 29 9 37"/>
   <a xmlns:xlink="http://www.w3.org/1999/xlink"
      xlink:href="#Atom"
      xlink:title="Atom">
      <rect x="31" y="19" width="52" height="32"/>
      <rect x="29" y="17" width="52" height="32" class="nonterminal"/>
      <text class="nonterminal" x="39" y="37">Atom</text>
   </a>
   <rect x="163" y="19" width="26" height="32" rx="10"/>
   <rect x="161"
         y="17"
         width="26"
         height="32"
         class="terminal"
         rx="10"/>
   <text class="terminal" x="171" y="37">[</text>
   <a xmlns:xlink="http://www.w3.org/1999/xlink"
      xlink:href="#Expression"
      xlink:title="Expression">
      <rect x="229" y="19" width="90" height="32"/>
      <rect x="227" y="17" width="90" height="32" class="nonterminal"/>
      <text class="nonterminal" x="237" y="37">Expression</text>
   </a>
   <a xmlns:xlink="http://www.w3.org/1999/xlink"
      xlink:href="#Expression"
      xlink:title="Expression">
      <rect x="249" y="95" width="90" height="32"/>
      <rect x="247" y="93" width="90" height="32" class="nonterminal"/>
      <text class="nonterminal" x="257" y="113">Expression</text>
   </a>
   <rect x="379" y="63" width="28" height="32" rx="10"/>
   <rect x="377"
         y="61"
         width="28"
         height="32"
         class="terminal"
         rx="10"/>
   <text class="terminal" x="387" y="81">..</text>
   <a xmlns:xlink="http://www.w3.org/1999/xlink"
      xlink:href="#Expression"
      xlink:title="Expression">
      <rect x="447" y="95" width="90" height="32"/>
      <rect x="445" y="93" width="90" height="32" class="nonterminal"/>
      <text class="nonterminal" x="455" y="113">Expression</text>
   </a>
   <rect x="597" y="19" width="26" height="32" rx="10"/>
   <rect x="595"
         y="17"
         width="26"
         height="32"
         class="terminal"
         rx="10"/>
   <text class="terminal" x="605" y="37">]</text>
   <rect x="163" y="139" width="24" height="32" rx="10"/>
   <rect x="161"
         y="137"
         width="24"
         height="32"
         class="terminal"
         rx="10"/>
   <text class="terminal" x="171" y="157">.</text>
   <a xmlns:xlink="http://www.w3.org/1999/xlink"
      xlink:href="#IDENTIFIER"
      xlink:title="IDENTIFIER">
      <rect x="207" y="139" width="92" height="32"/>
      <rect x="205" y="137" width="92" height="32" class="nonterminal"/>
      <text class="nonterminal" x="215" y="157">IDENTIFIER</text>
   </a>
   <a xmlns:xlink="http://www.w3.org/1999/xlink"
      xlink:href="#ArgumentList"
      xlink:title="ArgumentList">
      <rect x="339" y="171" width="104" height="32"/>
      <rect x="337" y="169" width="104" height="32" class="nonterminal"/>
      <text class="nonterminal" x="347" y="189">ArgumentList</text>
   </a>
   <a xmlns:xlink="http://www.w3.org/1999/xlink"
      xlink:href="#ArgumentList"
      xlink:title="ArgumentList">
      <rect x="163" y="215" width="104" height="32"/>
      <rect x="161" y="213" width="104" height="32" class="nonterminal"/>
      <text class="nonterminal" x="171" y="233">ArgumentList</text>
   </a>
   <rect x="183" y="259" width="64" height="32" rx="10"/>
   <rect x="181"
         y="257"
         width="64"
         height="32"
         class="terminal"
         rx="10"/>
   <text class="terminal" x="191" y="277">switch</text>
   <rect x="267" y="259" width="28" height="32" rx="10"/>
   <rect x="265"
         y="257"
         width="28"
         height="32"
         class="terminal"
         rx="10"/>
   <text class="terminal" x="275" y="277">{</text>
   <a xmlns:xlink="http://www.w3.org/1999/xlink"
      xlink:href="#MatchCaseList"
      xlink:title="MatchCaseList">
      <rect x="315" y="259" width="112" height="32"/>
      <rect x="313" y="257" width="112" height="32" class="nonterminal"/>
      <text class="nonterminal" x="323" y="277">MatchCaseList</text>
   </a>
   <rect x="183" y="303" width="50" height="32" rx="10"/>
   <rect x="181"
         y="301"
         width="50"
         height="32"
         class="terminal"
         rx="10"/>
   <text class="terminal" x="191" y="321">with</text>
   <rect x="253" y="303" width="28" height="32" rx="10"/>
   <rect x="251"
         y="301"
         width="28"
         height="32"
         class="terminal"
         rx="10"/>
   <text class="terminal" x="261" y="321">{</text>
   <a xmlns:xlink="http://www.w3.org/1999/xlink"
      xlink:href="#PropertyInitializerList"
      xlink:title="PropertyInitializerList">
      <rect x="301" y="303" width="156" height="32"/>
      <rect x="299" y="301" width="156" height="32" class="nonterminal"/>
      <text class="nonterminal" x="309" y="321">PropertyInitializerList</text>
   </a>
   <rect x="497" y="259" width="28" height="32" rx="10"/>
   <rect x="495"
         y="257"
         width="28"
         height="32"
         class="terminal"
         rx="10"/>
   <text class="terminal" x="505" y="277">}</text>
   <path class="line"
         d="m17 33 h2 m0 0 h10 m52 0 h10 m60 0 h10 m26 0 h10 m20 0 h10 m90 0 h10 m0 0 h238 m-368 0 h20 m348 0 h20 m-388 0 q10 0 10 10 m368 0 q0 -10 10 -10 m-378 10 v24 m368 0 v-24 m-368 24 q0 10 10 10 m348 0 q10 0 10 -10 m-338 10 h10 m0 0 h100 m-130 0 h20 m110 0 h20 m-150 0 q10 0 10 10 m130 0 q0 -10 10 -10 m-140 10 v12 m130 0 v-12 m-130 12 q0 10 10 10 m110 0 q10 0 10 -10 m-120 10 h10 m90 0 h10 m20 -32 h10 m28 0 h10 m20 0 h10 m0 0 h100 m-130 0 h20 m110 0 h20 m-150 0 q10 0 10 10 m130 0 q0 -10 10 -10 m-140 10 v12 m130 0 v-12 m-130 12 q0 10 10 10 m110 0 q10 0 10 -10 m-120 10 h10 m90 0 h10 m40 -76 h10 m26 0 h10 m-500 0 h20 m480 0 h20 m-520 0 q10 0 10 10 m500 0 q0 -10 10 -10 m-510 10 v100 m500 0 v-100 m-500 100 q0 10 10 10 m480 0 q10 0 10 -10 m-490 10 h10 m24 0 h10 m0 0 h10 m92 0 h10 m20 0 h10 m0 0 h114 m-144 0 h20 m124 0 h20 m-164 0 q10 0 10 10 m144 0 q0 -10 10 -10 m-154 10 v12 m144 0 v-12 m-144 12 q0 10 10 10 m124 0 q10 0 10 -10 m-134 10 h10 m104 0 h10 m20 -32 h160 m-490 -10 v20 m500 0 v-20 m-500 20 v56 m500 0 v-56 m-500 56 q0 10 10 10 m480 0 q10 0 10 -10 m-490 10 h10 m104 0 h10 m0 0 h356 m-490 -10 v20 m500 0 v-20 m-500 20 v24 m500 0 v-24 m-500 24 q0 10 10 10 m480 0 q10 0 10 -10 m-470 10 h10 m64 0 h10 m0 0 h10 m28 0 h10 m0 0 h10 m112 0 h10 m0 0 h30 m-314 0 h20 m294 0 h20 m-334 0 q10 0 10 10 m314 0 q0 -10 10 -10 m-324 10 v24 m314 0 v-24 m-314 24 q0 10 10 10 m294 0 q10 0 10 -10 m-304 10 h10 m50 0 h10 m0 0 h10 m28 0 h10 m0 0 h10 m156 0 h10 m20 -44 h10 m28 0 h10 m0 0 h98 m-520 -240 l20 0 m-1 0 q-9 0 -9 -10 l0 -12 q0 -10 10 -10 m520 32 l20 0 m-20 0 q10 0 10 -10 l0 -12 q0 -10 -10 -10 m-520 0 h10 m0 0 h510 m-560 32 h20 m560 0 h20 m-600 0 q10 0 10 10 m580 0 q0 -10 10 -10 m-590 10 v298 m580 0 v-298 m-580 298 q0 10 10 10 m560 0 q10 0 10 -10 m-570 10 h10 m0 0 h550 m23 -318 h-3"/>
   <polygon points="701 33 709 29 709 37"/>
   <polygon points="701 33 693 29 693 37"/>
</svg>
