<?xml version="1.0" encoding="UTF-8"?>
<svg xmlns="http://www.w3.org/2000/svg" width="295" height="53">
   <defs>
      <style type="text/css">
    @namespace "http://www.w3.org/2000/svg";
    .line                 {fill: none; stroke: #00174B; stroke-width: 1;}
    .bold-line            {stroke: #000614; shape-rendering: crispEdges; stroke-width: 2;}
    .thin-line            {stroke: #00091F; shape-rendering: crispEdges}
    .filled               {fill: #00174B; stroke: none;}
    text.terminal         {font-family: Verdana, Sans-serif;
                            font-size: 12px;
                            fill: #000614;
                            font-weight: bold;
                          }
    text.nonterminal      {font-family: Verdana, Sans-serif;
                            font-size: 12px;
                            fill: #00081A;
                            font-weight: normal;
                          }
    text.regexp           {font-family: Verdana, Sans-serif;
                            font-size: 12px;
                            fill: #00091F;
                            font-weight: normal;
                          }
    rect, circle, polygon {fill: #00174B; stroke: #00174B;}
    rect.terminal         {fill: #F5F8FF; stroke: #00174B; stroke-width: 1;}
    rect.nonterminal      {fill: #FAFBFF; stroke: #00174B; stroke-width: 1;}
    rect.text             {fill: none; stroke: none;}
    polygon.regexp        {fill: #FCFDFF; stroke: #00174B; stroke-width: 1;}
  </style>
   </defs>
   <polygon points="9 33 1 29 1 37"/>
   <polygon points="17 33 9 29 9 37"/>
   <a xmlns:xlink="http://www.w3.org/1999/xlink"
      xlink:href="#Pattern"
      xlink:title="Pattern">
      <rect x="31" y="19" width="66" height="32"/>
      <rect x="29" y="17" width="66" height="32" class="nonterminal"/>
      <text class="nonterminal" x="39" y="37">Pattern</text>
   </a>
   <rect x="137" y="19" width="24" height="32" rx="10"/>
   <rect x="135"
         y="17"
         width="24"
         height="32"
         class="terminal"
         rx="10"/>
   <text class="terminal" x="145" y="37">,</text>
   <a xmlns:xlink="http://www.w3.org/1999/xlink"
      xlink:href="#Pattern"
      xlink:title="Pattern">
      <rect x="181" y="19" width="66" height="32"/>
      <rect x="179" y="17" width="66" height="32" class="nonterminal"/>
      <text class="nonterminal" x="189" y="37">Pattern</text>
   </a>
   <path class="line"
         d="m17 33 h2 m0 0 h10 m66 0 h10 m20 0 h10 m24 0 h10 m0 0 h10 m66 0 h10 m-150 0 l20 0 m-1 0 q-9 0 -9 -10 l0 -12 q0 -10 10 -10 m130 32 l20 0 m-20 0 q10 0 10 -10 l0 -12 q0 -10 -10 -10 m-130 0 h10 m0 0 h120 m23 32 h-3"/>
   <polygon points="285 33 293 29 293 37"/>
   <polygon points="285 33 277 29 277 37"/>
</svg>
