<?xml version="1.0" encoding="UTF-8"?>
<svg xmlns="http://www.w3.org/2000/svg" width="395" height="37">
   <defs>
      <style type="text/css">
    @namespace "http://www.w3.org/2000/svg";
    .line                 {fill: none; stroke: #00174B; stroke-width: 1;}
    .bold-line            {stroke: #000614; shape-rendering: crispEdges; stroke-width: 2;}
    .thin-line            {stroke: #00091F; shape-rendering: crispEdges}
    .filled               {fill: #00174B; stroke: none;}
    text.terminal         {font-family: Verdana, Sans-serif;
                            font-size: 12px;
                            fill: #000614;
                            font-weight: bold;
                          }
    text.nonterminal      {font-family: Verdana, Sans-serif;
                            font-size: 12px;
                            fill: #00081A;
                            font-weight: normal;
                          }
    text.regexp           {font-family: Verdana, Sans-serif;
                            font-size: 12px;
                            fill: #00091F;
                            font-weight: normal;
                          }
    rect, circle, polygon {fill: #00174B; stroke: #00174B;}
    rect.terminal         {fill: #F5F8FF; stroke: #00174B; stroke-width: 1;}
    rect.nonterminal      {fill: #FAFBFF; stroke: #00174B; stroke-width: 1;}
    rect.text             {fill: none; stroke: none;}
    polygon.regexp        {fill: #FCFDFF; stroke: #00174B; stroke-width: 1;}
  </style>
   </defs>
   <polygon points="9 17 1 13 1 21"/>
   <polygon points="17 17 9 13 9 21"/>
   <rect x="31" y="3" width="26" height="32" rx="10"/>
   <rect x="29"
         y="1"
         width="26"
         height="32"
         class="terminal"
         rx="10"/>
   <text class="terminal" x="39" y="21">(</text>
   <a xmlns:xlink="http://www.w3.org/1999/xlink"
      xlink:href="#Expression"
      xlink:title="Expression">
      <rect x="77" y="3" width="90" height="32"/>
      <rect x="75" y="1" width="90" height="32" class="nonterminal"/>
      <text class="nonterminal" x="85" y="21">Expression</text>
   </a>
   <rect x="187" y="3" width="24" height="32" rx="10"/>
   <rect x="185"
         y="1"
         width="24"
         height="32"
         class="terminal"
         rx="10"/>
   <text class="terminal" x="195" y="21">,</text>
   <a xmlns:xlink="http://www.w3.org/1999/xlink"
      xlink:href="#Expression"
      xlink:title="Expression">
      <rect x="231" y="3" width="90" height="32"/>
      <rect x="229" y="1" width="90" height="32" class="nonterminal"/>
      <text class="nonterminal" x="239" y="21">Expression</text>
   </a>
   <rect x="341" y="3" width="26" height="32" rx="10"/>
   <rect x="339"
         y="1"
         width="26"
         height="32"
         class="terminal"
         rx="10"/>
   <text class="terminal" x="349" y="21">)</text>
   <path class="line"
         d="m17 17 h2 m0 0 h10 m26 0 h10 m0 0 h10 m90 0 h10 m0 0 h10 m24 0 h10 m0 0 h10 m90 0 h10 m0 0 h10 m26 0 h10 m3 0 h-3"/>
   <polygon points="385 17 393 13 393 21"/>
   <polygon points="385 17 377 13 377 21"/>
</svg>
