<?xml version="1.0" encoding="UTF-8"?>
<svg xmlns="http://www.w3.org/2000/svg" width="739" height="101">
   <defs>
      <style type="text/css">
    @namespace "http://www.w3.org/2000/svg";
    .line                 {fill: none; stroke: #332900; stroke-width: 1;}
    .bold-line            {stroke: #141000; shape-rendering: crispEdges; stroke-width: 2;}
    .thin-line            {stroke: #1F1800; shape-rendering: crispEdges}
    .filled               {fill: #332900; stroke: none;}
    text.terminal         {font-family: Verdana, Sans-serif;
                            font-size: 12px;
                            fill: #141000;
                            font-weight: bold;
                          }
    text.nonterminal      {font-family: Verdana, Sans-serif;
                            font-size: 12px;
                            fill: #1A1400;
                            font-weight: normal;
                          }
    text.regexp           {font-family: Verdana, Sans-serif;
                            font-size: 12px;
                            fill: #1F1800;
                            font-weight: normal;
                          }
    rect, circle, polygon {fill: #332900; stroke: #332900;}
    rect.terminal         {fill: #FFDB4D; stroke: #332900; stroke-width: 1;}
    rect.nonterminal      {fill: #FFEC9E; stroke: #332900; stroke-width: 1;}
    rect.text             {fill: none; stroke: none;}
    polygon.regexp        {fill: #FFF4C7; stroke: #332900; stroke-width: 1;}
  </style>
   </defs>
   <polygon points="9 17 1 13 1 21"/>
   <polygon points="17 17 9 13 9 21"/>
   <rect x="31" y="3" width="48" height="32" rx="10"/>
   <rect x="29"
         y="1"
         width="48"
         height="32"
         class="terminal"
         rx="10"/>
   <text class="terminal" x="39" y="21">new</text>
   <a xmlns:xlink="http://www.w3.org/1999/xlink"
      xlink:href="#QualifiedName"
      xlink:title="QualifiedName">
      <rect x="99" y="3" width="112" height="32"/>
      <rect x="97" y="1" width="112" height="32" class="nonterminal"/>
      <text class="nonterminal" x="107" y="21">QualifiedName</text>
   </a>
   <a xmlns:xlink="http://www.w3.org/1999/xlink"
      xlink:href="#ArgumentList"
      xlink:title="ArgumentList">
      <rect x="251" y="35" width="104" height="32"/>
      <rect x="249" y="33" width="104" height="32" class="nonterminal"/>
      <text class="nonterminal" x="259" y="53">ArgumentList</text>
   </a>
   <rect x="415" y="35" width="28" height="32" rx="10"/>
   <rect x="413"
         y="33"
         width="28"
         height="32"
         class="terminal"
         rx="10"/>
   <text class="terminal" x="423" y="53">{</text>
   <a xmlns:xlink="http://www.w3.org/1999/xlink"
      xlink:href="#PropertyInitializers"
      xlink:title="PropertyInitializers">
      <rect x="483" y="67" width="140" height="32"/>
      <rect x="481" y="65" width="140" height="32" class="nonterminal"/>
      <text class="nonterminal" x="491" y="85">PropertyInitializers</text>
   </a>
   <rect x="663" y="35" width="28" height="32" rx="10"/>
   <rect x="661"
         y="33"
         width="28"
         height="32"
         class="terminal"
         rx="10"/>
   <text class="terminal" x="671" y="53">}</text>
   <path class="line"
         d="m17 17 h2 m0 0 h10 m48 0 h10 m0 0 h10 m112 0 h10 m20 0 h10 m0 0 h114 m-144 0 h20 m124 0 h20 m-164 0 q10 0 10 10 m144 0 q0 -10 10 -10 m-154 10 v12 m144 0 v-12 m-144 12 q0 10 10 10 m124 0 q10 0 10 -10 m-134 10 h10 m104 0 h10 m40 -32 h10 m0 0 h286 m-316 0 h20 m296 0 h20 m-336 0 q10 0 10 10 m316 0 q0 -10 10 -10 m-326 10 v12 m316 0 v-12 m-316 12 q0 10 10 10 m296 0 q10 0 10 -10 m-306 10 h10 m28 0 h10 m20 0 h10 m0 0 h150 m-180 0 h20 m160 0 h20 m-200 0 q10 0 10 10 m180 0 q0 -10 10 -10 m-190 10 v12 m180 0 v-12 m-180 12 q0 10 10 10 m160 0 q10 0 10 -10 m-170 10 h10 m140 0 h10 m20 -32 h10 m28 0 h10 m23 -32 h-3"/>
   <polygon points="729 17 737 13 737 21"/>
   <polygon points="729 17 721 13 721 21"/>
</svg>
