<?xml version="1.0" encoding="UTF-8"?>
<svg xmlns="http://www.w3.org/2000/svg" width="755" height="177">
   <defs>
      <style type="text/css">
    @namespace "http://www.w3.org/2000/svg";
    .line                 {fill: none; stroke: #174B00; stroke-width: 1;}
    .bold-line            {stroke: #061400; shape-rendering: crispEdges; stroke-width: 2;}
    .thin-line            {stroke: #091F00; shape-rendering: crispEdges}
    .filled               {fill: #174B00; stroke: none;}
    text.terminal         {font-family: Verdana, Sans-serif;
                            font-size: 12px;
                            fill: #061400;
                            font-weight: bold;
                          }
    text.nonterminal      {font-family: Verdana, Sans-serif;
                            font-size: 12px;
                            fill: #081A00;
                            font-weight: normal;
                          }
    text.regexp           {font-family: Verdana, Sans-serif;
                            font-size: 12px;
                            fill: #091F00;
                            font-weight: normal;
                          }
    rect, circle, polygon {fill: #174B00; stroke: #174B00;}
    rect.terminal         {fill: #F8FFF5; stroke: #174B00; stroke-width: 1;}
    rect.nonterminal      {fill: #FBFFFA; stroke: #174B00; stroke-width: 1;}
    rect.text             {fill: none; stroke: none;}
    polygon.regexp        {fill: #FDFFFC; stroke: #174B00; stroke-width: 1;}
  </style>
   </defs>
   <polygon points="9 17 1 13 1 21"/>
   <polygon points="17 17 9 13 9 21"/>
   <rect x="31" y="3" width="48" height="32" rx="10"/>
   <rect x="29"
         y="1"
         width="48"
         height="32"
         class="terminal"
         rx="10"/>
   <text class="terminal" x="39" y="21">new</text>
   <a xmlns:xlink="http://www.w3.org/1999/xlink"
      xlink:href="#QualifiedName"
      xlink:title="QualifiedName">
      <rect x="99" y="3" width="112" height="32"/>
      <rect x="97" y="1" width="112" height="32" class="nonterminal"/>
      <text class="nonterminal" x="107" y="21">QualifiedName</text>
   </a>
   <a xmlns:xlink="http://www.w3.org/1999/xlink"
      xlink:href="#ArgumentList"
      xlink:title="ArgumentList">
      <rect x="251" y="3" width="104" height="32"/>
      <rect x="249" y="1" width="104" height="32" class="nonterminal"/>
      <text class="nonterminal" x="259" y="21">ArgumentList</text>
   </a>
   <rect x="395" y="35" width="28" height="32" rx="10"/>
   <rect x="393"
         y="33"
         width="28"
         height="32"
         class="terminal"
         rx="10"/>
   <text class="terminal" x="403" y="53">{</text>
   <a xmlns:xlink="http://www.w3.org/1999/xlink"
      xlink:href="#PropertyInitializerList"
      xlink:title="PropertyInitializerList">
      <rect x="463" y="67" width="156" height="32"/>
      <rect x="461" y="65" width="156" height="32" class="nonterminal"/>
      <text class="nonterminal" x="471" y="85">PropertyInitializerList</text>
   </a>
   <rect x="659" y="35" width="28" height="32" rx="10"/>
   <rect x="657"
         y="33"
         width="28"
         height="32"
         class="terminal"
         rx="10"/>
   <text class="terminal" x="667" y="53">}</text>
   <rect x="251" y="111" width="28" height="32" rx="10"/>
   <rect x="249"
         y="109"
         width="28"
         height="32"
         class="terminal"
         rx="10"/>
   <text class="terminal" x="259" y="129">{</text>
   <a xmlns:xlink="http://www.w3.org/1999/xlink"
      xlink:href="#PropertyInitializerList"
      xlink:title="PropertyInitializerList">
      <rect x="319" y="143" width="156" height="32"/>
      <rect x="317" y="141" width="156" height="32" class="nonterminal"/>
      <text class="nonterminal" x="327" y="161">PropertyInitializerList</text>
   </a>
   <rect x="515" y="111" width="28" height="32" rx="10"/>
   <rect x="513"
         y="109"
         width="28"
         height="32"
         class="terminal"
         rx="10"/>
   <text class="terminal" x="523" y="129">}</text>
   <path class="line"
         d="m17 17 h2 m0 0 h10 m48 0 h10 m0 0 h10 m112 0 h10 m20 0 h10 m104 0 h10 m20 0 h10 m0 0 h302 m-332 0 h20 m312 0 h20 m-352 0 q10 0 10 10 m332 0 q0 -10 10 -10 m-342 10 v12 m332 0 v-12 m-332 12 q0 10 10 10 m312 0 q10 0 10 -10 m-322 10 h10 m28 0 h10 m20 0 h10 m0 0 h166 m-196 0 h20 m176 0 h20 m-216 0 q10 0 10 10 m196 0 q0 -10 10 -10 m-206 10 v12 m196 0 v-12 m-196 12 q0 10 10 10 m176 0 q10 0 10 -10 m-186 10 h10 m156 0 h10 m20 -32 h10 m28 0 h10 m-476 -32 h20 m476 0 h20 m-516 0 q10 0 10 10 m496 0 q0 -10 10 -10 m-506 10 v88 m496 0 v-88 m-496 88 q0 10 10 10 m476 0 q10 0 10 -10 m-486 10 h10 m28 0 h10 m20 0 h10 m0 0 h166 m-196 0 h20 m176 0 h20 m-216 0 q10 0 10 10 m196 0 q0 -10 10 -10 m-206 10 v12 m196 0 v-12 m-196 12 q0 10 10 10 m176 0 q10 0 10 -10 m-186 10 h10 m156 0 h10 m20 -32 h10 m28 0 h10 m0 0 h164 m23 -108 h-3"/>
   <polygon points="745 17 753 13 753 21"/>
   <polygon points="745 17 737 13 737 21"/>
</svg>
