<?xml version="1.0" encoding="UTF-8"?>
<svg xmlns="http://www.w3.org/2000/svg" width="755" height="101">
   <defs>
      <style type="text/css">
    @namespace "http://www.w3.org/2000/svg";
    .line                 {fill: none; stroke: #00174B; stroke-width: 1;}
    .bold-line            {stroke: #000614; shape-rendering: crispEdges; stroke-width: 2;}
    .thin-line            {stroke: #00091F; shape-rendering: crispEdges}
    .filled               {fill: #00174B; stroke: none;}
    text.terminal         {font-family: Verdana, Sans-serif;
                            font-size: 12px;
                            fill: #000614;
                            font-weight: bold;
                          }
    text.nonterminal      {font-family: Verdana, Sans-serif;
                            font-size: 12px;
                            fill: #00081A;
                            font-weight: normal;
                          }
    text.regexp           {font-family: Verdana, Sans-serif;
                            font-size: 12px;
                            fill: #00091F;
                            font-weight: normal;
                          }
    rect, circle, polygon {fill: #00174B; stroke: #00174B;}
    rect.terminal         {fill: #F5F8FF; stroke: #00174B; stroke-width: 1;}
    rect.nonterminal      {fill: #FAFBFF; stroke: #00174B; stroke-width: 1;}
    rect.text             {fill: none; stroke: none;}
    polygon.regexp        {fill: #FCFDFF; stroke: #00174B; stroke-width: 1;}
  </style>
   </defs>
   <polygon points="9 17 1 13 1 21"/>
   <polygon points="17 17 9 13 9 21"/>
   <rect x="31" y="3" width="48" height="32" rx="10"/>
   <rect x="29"
         y="1"
         width="48"
         height="32"
         class="terminal"
         rx="10"/>
   <text class="terminal" x="39" y="21">new</text>
   <a xmlns:xlink="http://www.w3.org/1999/xlink"
      xlink:href="#QualifiedName"
      xlink:title="QualifiedName">
      <rect x="99" y="3" width="112" height="32"/>
      <rect x="97" y="1" width="112" height="32" class="nonterminal"/>
      <text class="nonterminal" x="107" y="21">QualifiedName</text>
   </a>
   <a xmlns:xlink="http://www.w3.org/1999/xlink"
      xlink:href="#ArgumentList"
      xlink:title="ArgumentList">
      <rect x="251" y="35" width="104" height="32"/>
      <rect x="249" y="33" width="104" height="32" class="nonterminal"/>
      <text class="nonterminal" x="259" y="53">ArgumentList</text>
   </a>
   <rect x="415" y="35" width="28" height="32" rx="10"/>
   <rect x="413"
         y="33"
         width="28"
         height="32"
         class="terminal"
         rx="10"/>
   <text class="terminal" x="423" y="53">{</text>
   <a xmlns:xlink="http://www.w3.org/1999/xlink"
      xlink:href="#PropertyInitializerList"
      xlink:title="PropertyInitializerList">
      <rect x="483" y="67" width="156" height="32"/>
      <rect x="481" y="65" width="156" height="32" class="nonterminal"/>
      <text class="nonterminal" x="491" y="85">PropertyInitializerList</text>
   </a>
   <rect x="679" y="35" width="28" height="32" rx="10"/>
   <rect x="677"
         y="33"
         width="28"
         height="32"
         class="terminal"
         rx="10"/>
   <text class="terminal" x="687" y="53">}</text>
   <path class="line"
         d="m17 17 h2 m0 0 h10 m48 0 h10 m0 0 h10 m112 0 h10 m20 0 h10 m0 0 h114 m-144 0 h20 m124 0 h20 m-164 0 q10 0 10 10 m144 0 q0 -10 10 -10 m-154 10 v12 m144 0 v-12 m-144 12 q0 10 10 10 m124 0 q10 0 10 -10 m-134 10 h10 m104 0 h10 m40 -32 h10 m0 0 h302 m-332 0 h20 m312 0 h20 m-352 0 q10 0 10 10 m332 0 q0 -10 10 -10 m-342 10 v12 m332 0 v-12 m-332 12 q0 10 10 10 m312 0 q10 0 10 -10 m-322 10 h10 m28 0 h10 m20 0 h10 m0 0 h166 m-196 0 h20 m176 0 h20 m-216 0 q10 0 10 10 m196 0 q0 -10 10 -10 m-206 10 v12 m196 0 v-12 m-196 12 q0 10 10 10 m176 0 q10 0 10 -10 m-186 10 h10 m156 0 h10 m20 -32 h10 m28 0 h10 m23 -32 h-3"/>
   <polygon points="745 17 753 13 753 21"/>
   <polygon points="745 17 737 13 737 21"/>
</svg>
