<?xml version="1.0" encoding="UTF-8"?>
<svg xmlns="http://www.w3.org/2000/svg" width="641" height="69">
   <defs>
      <style type="text/css">
    @namespace "http://www.w3.org/2000/svg";
    .line                 {fill: none; stroke: #000045; stroke-width: 1;}
    .bold-line            {stroke: #000014; shape-rendering: crispEdges; stroke-width: 2;}
    .thin-line            {stroke: #00001F; shape-rendering: crispEdges}
    .filled               {fill: #000045; stroke: none;}
    text.terminal         {font-family: Verdana, Sans-serif;
                            font-size: 12px;
                            fill: #000014;
                            font-weight: bold;
                          }
    text.nonterminal      {font-family: Verdana, Sans-serif;
                            font-size: 12px;
                            fill: #00001A;
                            font-weight: normal;
                          }
    text.regexp           {font-family: Verdana, Sans-serif;
                            font-size: 12px;
                            fill: #00001F;
                            font-weight: normal;
                          }
    rect, circle, polygon {fill: #000045; stroke: #000045;}
    rect.terminal         {fill: #CCCCFF; stroke: #000045; stroke-width: 1;}
    rect.nonterminal      {fill: #E3E3FF; stroke: #000045; stroke-width: 1;}
    rect.text             {fill: none; stroke: none;}
    polygon.regexp        {fill: #EFEFFF; stroke: #000045; stroke-width: 1;}
  </style>
   </defs>
   <polygon points="9 17 1 13 1 21"/>
   <polygon points="17 17 9 13 9 21"/>
   <rect x="31" y="3" width="96" height="32" rx="10"/>
   <rect x="29"
         y="1"
         width="96"
         height="32"
         class="terminal"
         rx="10"/>
   <text class="terminal" x="39" y="21">constructor</text>
   <a xmlns:xlink="http://www.w3.org/1999/xlink"
      xlink:href="#ParameterList"
      xlink:title="ParameterList">
      <rect x="147" y="3" width="108" height="32"/>
      <rect x="145" y="1" width="108" height="32" class="nonterminal"/>
      <text class="nonterminal" x="155" y="21">ParameterList</text>
   </a>
   <rect x="295" y="35" width="24" height="32" rx="10"/>
   <rect x="293"
         y="33"
         width="24"
         height="32"
         class="terminal"
         rx="10"/>
   <text class="terminal" x="303" y="53">:</text>
   <rect x="339" y="35" width="58" height="32" rx="10"/>
   <rect x="337"
         y="33"
         width="58"
         height="32"
         class="terminal"
         rx="10"/>
   <text class="terminal" x="347" y="53">super</text>
   <a xmlns:xlink="http://www.w3.org/1999/xlink"
      xlink:href="#ArgumentList"
      xlink:title="ArgumentList">
      <rect x="417" y="35" width="104" height="32"/>
      <rect x="415" y="33" width="104" height="32" class="nonterminal"/>
      <text class="nonterminal" x="425" y="53">ArgumentList</text>
   </a>
   <a xmlns:xlink="http://www.w3.org/1999/xlink"
      xlink:href="#Block"
      xlink:title="Block">
      <rect x="561" y="3" width="52" height="32"/>
      <rect x="559" y="1" width="52" height="32" class="nonterminal"/>
      <text class="nonterminal" x="569" y="21">Block</text>
   </a>
   <path class="line"
         d="m17 17 h2 m0 0 h10 m96 0 h10 m0 0 h10 m108 0 h10 m20 0 h10 m0 0 h236 m-266 0 h20 m246 0 h20 m-286 0 q10 0 10 10 m266 0 q0 -10 10 -10 m-276 10 v12 m266 0 v-12 m-266 12 q0 10 10 10 m246 0 q10 0 10 -10 m-256 10 h10 m24 0 h10 m0 0 h10 m58 0 h10 m0 0 h10 m104 0 h10 m20 -32 h10 m52 0 h10 m3 0 h-3"/>
   <polygon points="631 17 639 13 639 21"/>
   <polygon points="631 17 623 13 623 21"/>
</svg>
