<?xml version="1.0" encoding="UTF-8"?>
<svg xmlns="http://www.w3.org/2000/svg" width="131" height="37">
   <defs>
      <style type="text/css">
    @namespace "http://www.w3.org/2000/svg";
    .line                 {fill: none; stroke: #000045; stroke-width: 1;}
    .bold-line            {stroke: #000014; shape-rendering: crispEdges; stroke-width: 2;}
    .thin-line            {stroke: #00001F; shape-rendering: crispEdges}
    .filled               {fill: #000045; stroke: none;}
    text.terminal         {font-family: Verdana, Sans-serif;
                            font-size: 12px;
                            fill: #000014;
                            font-weight: bold;
                          }
    text.nonterminal      {font-family: Verdana, Sans-serif;
                            font-size: 12px;
                            fill: #00001A;
                            font-weight: normal;
                          }
    text.regexp           {font-family: Verdana, Sans-serif;
                            font-size: 12px;
                            fill: #00001F;
                            font-weight: normal;
                          }
    rect, circle, polygon {fill: #000045; stroke: #000045;}
    rect.terminal         {fill: #CCCCFF; stroke: #000045; stroke-width: 1;}
    rect.nonterminal      {fill: #E3E3FF; stroke: #000045; stroke-width: 1;}
    rect.text             {fill: none; stroke: none;}
    polygon.regexp        {fill: #EFEFFF; stroke: #000045; stroke-width: 1;}
  </style>
   </defs>
   <polygon points="9 17 1 13 1 21"/>
   <polygon points="17 17 9 13 9 21"/>
   <polygon points="31 19 38 3 96 3 103 19 96 35 38 35"/>
   <polygon points="29 17 36 1 94 1 101 17 94 33 36 33" class="regexp"/>
   <text class="regexp" x="44" y="21">'0' - '9'</text>
   <path class="line" d="m17 17 h2 m0 0 h10 m72 0 h10 m3 0 h-3"/>
   <polygon points="121 17 129 13 129 21"/>
   <polygon points="121 17 113 13 113 21"/>
</svg>
