<?xml version="1.0" encoding="UTF-8"?>
<svg xmlns="http://www.w3.org/2000/svg" width="523" height="37">
   <defs>
      <style type="text/css">
    @namespace "http://www.w3.org/2000/svg";
    .line                 {fill: none; stroke: #004900; stroke-width: 1;}
    .bold-line            {stroke: #001400; shape-rendering: crispEdges; stroke-width: 2;}
    .thin-line            {stroke: #001F00; shape-rendering: crispEdges}
    .filled               {fill: #004900; stroke: none;}
    text.terminal         {font-family: Verdana, Sans-serif;
                            font-size: 12px;
                            fill: #001400;
                            font-weight: bold;
                          }
    text.nonterminal      {font-family: Verdana, Sans-serif;
                            font-size: 12px;
                            fill: #001A00;
                            font-weight: normal;
                          }
    text.regexp           {font-family: Verdana, Sans-serif;
                            font-size: 12px;
                            fill: #001F00;
                            font-weight: normal;
                          }
    rect, circle, polygon {fill: #004900; stroke: #004900;}
    rect.terminal         {fill: #E5FFE5; stroke: #004900; stroke-width: 1;}
    rect.nonterminal      {fill: #F1FFF1; stroke: #004900; stroke-width: 1;}
    rect.text             {fill: none; stroke: none;}
    polygon.regexp        {fill: #F7FFF7; stroke: #004900; stroke-width: 1;}
  </style>
   </defs>
   <polygon points="9 17 1 13 1 21"/>
   <polygon points="17 17 9 13 9 21"/>
   <rect x="31" y="3" width="36" height="32" rx="10"/>
   <rect x="29"
         y="1"
         width="36"
         height="32"
         class="terminal"
         rx="10"/>
   <text class="terminal" x="39" y="21">do</text>
   <a xmlns:xlink="http://www.w3.org/1999/xlink"
      xlink:href="#Statement"
      xlink:title="Statement">
      <rect x="87" y="3" width="86" height="32"/>
      <rect x="85" y="1" width="86" height="32" class="nonterminal"/>
      <text class="nonterminal" x="95" y="21">Statement</text>
   </a>
   <rect x="193" y="3" width="56" height="32" rx="10"/>
   <rect x="191"
         y="1"
         width="56"
         height="32"
         class="terminal"
         rx="10"/>
   <text class="terminal" x="201" y="21">while</text>
   <rect x="269" y="3" width="26" height="32" rx="10"/>
   <rect x="267"
         y="1"
         width="26"
         height="32"
         class="terminal"
         rx="10"/>
   <text class="terminal" x="277" y="21">(</text>
   <a xmlns:xlink="http://www.w3.org/1999/xlink"
      xlink:href="#Expression"
      xlink:title="Expression">
      <rect x="315" y="3" width="90" height="32"/>
      <rect x="313" y="1" width="90" height="32" class="nonterminal"/>
      <text class="nonterminal" x="323" y="21">Expression</text>
   </a>
   <rect x="425" y="3" width="26" height="32" rx="10"/>
   <rect x="423"
         y="1"
         width="26"
         height="32"
         class="terminal"
         rx="10"/>
   <text class="terminal" x="433" y="21">)</text>
   <rect x="471" y="3" width="24" height="32" rx="10"/>
   <rect x="469"
         y="1"
         width="24"
         height="32"
         class="terminal"
         rx="10"/>
   <text class="terminal" x="479" y="21">;</text>
   <path class="line"
         d="m17 17 h2 m0 0 h10 m36 0 h10 m0 0 h10 m86 0 h10 m0 0 h10 m56 0 h10 m0 0 h10 m26 0 h10 m0 0 h10 m90 0 h10 m0 0 h10 m26 0 h10 m0 0 h10 m24 0 h10 m3 0 h-3"/>
   <polygon points="513 17 521 13 521 21"/>
   <polygon points="513 17 505 13 505 21"/>
</svg>
