<?xml version="1.0" encoding="UTF-8"?>
<svg xmlns="http://www.w3.org/2000/svg" width="293" height="115">
   <defs>
      <style type="text/css">
    @namespace "http://www.w3.org/2000/svg";
    .line                 {fill: none; stroke: #004900; stroke-width: 1;}
    .bold-line            {stroke: #001400; shape-rendering: crispEdges; stroke-width: 2;}
    .thin-line            {stroke: #001F00; shape-rendering: crispEdges}
    .filled               {fill: #004900; stroke: none;}
    text.terminal         {font-family: Verdana, Sans-serif;
                            font-size: 12px;
                            fill: #001400;
                            font-weight: bold;
                          }
    text.nonterminal      {font-family: Verdana, Sans-serif;
                            font-size: 12px;
                            fill: #001A00;
                            font-weight: normal;
                          }
    text.regexp           {font-family: Verdana, Sans-serif;
                            font-size: 12px;
                            fill: #001F00;
                            font-weight: normal;
                          }
    rect, circle, polygon {fill: #004900; stroke: #004900;}
    rect.terminal         {fill: #E5FFE5; stroke: #004900; stroke-width: 1;}
    rect.nonterminal      {fill: #F1FFF1; stroke: #004900; stroke-width: 1;}
    rect.text             {fill: none; stroke: none;}
    polygon.regexp        {fill: #F7FFF7; stroke: #004900; stroke-width: 1;}
  </style>
   </defs>
   <polygon points="9 95 1 91 1 99"/>
   <polygon points="17 95 9 91 9 99"/>
   <rect x="31" y="81" width="26" height="32" rx="10"/>
   <rect x="29"
         y="79"
         width="26"
         height="32"
         class="terminal"
         rx="10"/>
   <text class="terminal" x="39" y="99">"</text>
   <polygon points="97 63 104 47 146 47 153 63 146 79 104 79"/>
   <polygon points="95 61 102 45 144 45 151 61 144 77 102 77" class="regexp"/>
   <text class="regexp" x="110" y="65">[^"]</text>
   <a xmlns:xlink="http://www.w3.org/1999/xlink"
      xlink:href="#ESCAPE_SEQ"
      xlink:title="ESCAPE_SEQ">
      <rect x="97" y="3" width="102" height="32"/>
      <rect x="95" y="1" width="102" height="32" class="nonterminal"/>
      <text class="nonterminal" x="105" y="21">ESCAPE_SEQ</text>
   </a>
   <rect x="239" y="81" width="26" height="32" rx="10"/>
   <rect x="237"
         y="79"
         width="26"
         height="32"
         class="terminal"
         rx="10"/>
   <text class="terminal" x="247" y="99">"</text>
   <path class="line"
         d="m17 95 h2 m0 0 h10 m26 0 h10 m20 0 h10 m0 0 h112 m-142 0 l20 0 m-1 0 q-9 0 -9 -10 l0 -14 q0 -10 10 -10 m122 34 l20 0 m-20 0 q10 0 10 -10 l0 -14 q0 -10 -10 -10 m-122 0 h10 m56 0 h10 m0 0 h46 m-132 10 l0 -44 q0 -10 10 -10 m132 54 l0 -44 q0 -10 -10 -10 m-122 0 h10 m102 0 h10 m20 78 h10 m26 0 h10 m3 0 h-3"/>
   <polygon points="283 95 291 91 291 99"/>
   <polygon points="283 95 275 91 275 99"/>
</svg>
