<?xml version="1.0" encoding="UTF-8"?>
<svg xmlns="http://www.w3.org/2000/svg" width="373" height="113">
   <defs>
      <style type="text/css">
    @namespace "http://www.w3.org/2000/svg";
    .line                 {fill: none; stroke: #332900; stroke-width: 1;}
    .bold-line            {stroke: #141000; shape-rendering: crispEdges; stroke-width: 2;}
    .thin-line            {stroke: #1F1800; shape-rendering: crispEdges}
    .filled               {fill: #332900; stroke: none;}
    text.terminal         {font-family: Verdana, Sans-serif;
                            font-size: 12px;
                            fill: #141000;
                            font-weight: bold;
                          }
    text.nonterminal      {font-family: Verdana, Sans-serif;
                            font-size: 12px;
                            fill: #1A1400;
                            font-weight: normal;
                          }
    text.regexp           {font-family: Verdana, Sans-serif;
                            font-size: 12px;
                            fill: #1F1800;
                            font-weight: normal;
                          }
    rect, circle, polygon {fill: #332900; stroke: #332900;}
    rect.terminal         {fill: #FFDB4D; stroke: #332900; stroke-width: 1;}
    rect.nonterminal      {fill: #FFEC9E; stroke: #332900; stroke-width: 1;}
    rect.text             {fill: none; stroke: none;}
    polygon.regexp        {fill: #FFF4C7; stroke: #332900; stroke-width: 1;}
  </style>
   </defs>
   <polygon points="9 33 1 29 1 37"/>
   <polygon points="17 33 9 29 9 37"/>
   <rect x="31" y="19" width="26" height="32" rx="10"/>
   <rect x="29"
         y="17"
         width="26"
         height="32"
         class="terminal"
         rx="10"/>
   <text class="terminal" x="39" y="37">"</text>
   <polygon points="137 35 144 19 186 19 193 35 186 51 144 51"/>
   <polygon points="135 33 142 17 184 17 191 33 184 49 142 49" class="regexp"/>
   <text class="regexp" x="150" y="37">[^"]</text>
   <a xmlns:xlink="http://www.w3.org/1999/xlink"
      xlink:href="#ESCAPE_SEQ"
      xlink:title="ESCAPE_SEQ">
      <rect x="137" y="63" width="102" height="32"/>
      <rect x="135" y="61" width="102" height="32" class="nonterminal"/>
      <text class="nonterminal" x="145" y="81">ESCAPE_SEQ</text>
   </a>
   <rect x="319" y="19" width="26" height="32" rx="10"/>
   <rect x="317"
         y="17"
         width="26"
         height="32"
         class="terminal"
         rx="10"/>
   <text class="terminal" x="327" y="37">"</text>
   <path class="line"
         d="m17 33 h2 m0 0 h10 m26 0 h10 m60 0 h10 m56 0 h10 m0 0 h46 m-142 0 h20 m122 0 h20 m-162 0 q10 0 10 10 m142 0 q0 -10 10 -10 m-152 10 v24 m142 0 v-24 m-142 24 q0 10 10 10 m122 0 q10 0 10 -10 m-132 10 h10 m102 0 h10 m-162 -44 l20 0 m-1 0 q-9 0 -9 -10 l0 -12 q0 -10 10 -10 m162 32 l20 0 m-20 0 q10 0 10 -10 l0 -12 q0 -10 -10 -10 m-162 0 h10 m0 0 h152 m-202 32 h20 m202 0 h20 m-242 0 q10 0 10 10 m222 0 q0 -10 10 -10 m-232 10 v58 m222 0 v-58 m-222 58 q0 10 10 10 m202 0 q10 0 10 -10 m-212 10 h10 m0 0 h192 m20 -78 h10 m26 0 h10 m3 0 h-3"/>
   <polygon points="363 33 371 29 371 37"/>
   <polygon points="363 33 355 29 355 37"/>
</svg>
