<?xml version="1.0" encoding="UTF-8"?>
<svg xmlns="http://www.w3.org/2000/svg" width="575" height="389">
   <defs>
      <style type="text/css">
    @namespace "http://www.w3.org/2000/svg";
    .line                 {fill: none; stroke: #174B00; stroke-width: 1;}
    .bold-line            {stroke: #061400; shape-rendering: crispEdges; stroke-width: 2;}
    .thin-line            {stroke: #091F00; shape-rendering: crispEdges}
    .filled               {fill: #174B00; stroke: none;}
    text.terminal         {font-family: Verdana, Sans-serif;
                            font-size: 12px;
                            fill: #061400;
                            font-weight: bold;
                          }
    text.nonterminal      {font-family: Verdana, Sans-serif;
                            font-size: 12px;
                            fill: #081A00;
                            font-weight: normal;
                          }
    text.regexp           {font-family: Verdana, Sans-serif;
                            font-size: 12px;
                            fill: #091F00;
                            font-weight: normal;
                          }
    rect, circle, polygon {fill: #174B00; stroke: #174B00;}
    rect.terminal         {fill: #F8FFF5; stroke: #174B00; stroke-width: 1;}
    rect.nonterminal      {fill: #FBFFFA; stroke: #174B00; stroke-width: 1;}
    rect.text             {fill: none; stroke: none;}
    polygon.regexp        {fill: #FDFFFC; stroke: #174B00; stroke-width: 1;}
  </style>
   </defs>
   <polygon points="9 17 1 13 1 21"/>
   <polygon points="17 17 9 13 9 21"/>
   <rect x="51" y="3" width="36" height="32" rx="10"/>
   <rect x="49"
         y="1"
         width="36"
         height="32"
         class="terminal"
         rx="10"/>
   <text class="terminal" x="59" y="21">\a</text>
   <rect x="51" y="47" width="36" height="32" rx="10"/>
   <rect x="49"
         y="45"
         width="36"
         height="32"
         class="terminal"
         rx="10"/>
   <text class="terminal" x="59" y="65">\b</text>
   <rect x="51" y="91" width="32" height="32" rx="10"/>
   <rect x="49"
         y="89"
         width="32"
         height="32"
         class="terminal"
         rx="10"/>
   <text class="terminal" x="59" y="109">\f</text>
   <rect x="51" y="135" width="36" height="32" rx="10"/>
   <rect x="49"
         y="133"
         width="36"
         height="32"
         class="terminal"
         rx="10"/>
   <text class="terminal" x="59" y="153">\n</text>
   <rect x="51" y="179" width="34" height="32" rx="10"/>
   <rect x="49"
         y="177"
         width="34"
         height="32"
         class="terminal"
         rx="10"/>
   <text class="terminal" x="59" y="197">\r</text>
   <rect x="51" y="223" width="34" height="32" rx="10"/>
   <rect x="49"
         y="221"
         width="34"
         height="32"
         class="terminal"
         rx="10"/>
   <text class="terminal" x="59" y="241">\t</text>
   <rect x="51" y="267" width="36" height="32" rx="10"/>
   <rect x="49"
         y="265"
         width="36"
         height="32"
         class="terminal"
         rx="10"/>
   <text class="terminal" x="59" y="285">\v</text>
   <rect x="71" y="311" width="36" height="32" rx="10"/>
   <rect x="69"
         y="309"
         width="36"
         height="32"
         class="terminal"
         rx="10"/>
   <text class="terminal" x="79" y="329">\x</text>
   <rect x="71" y="355" width="36" height="32" rx="10"/>
   <rect x="69"
         y="353"
         width="36"
         height="32"
         class="terminal"
         rx="10"/>
   <text class="terminal" x="79" y="373">\u</text>
   <a xmlns:xlink="http://www.w3.org/1999/xlink"
      xlink:href="#HEXDIGIT"
      xlink:title="HEXDIGIT">
      <rect x="127" y="355" width="80" height="32"/>
      <rect x="125" y="353" width="80" height="32" class="nonterminal"/>
      <text class="nonterminal" x="135" y="373">HEXDIGIT</text>
   </a>
   <a xmlns:xlink="http://www.w3.org/1999/xlink"
      xlink:href="#HEXDIGIT"
      xlink:title="HEXDIGIT">
      <rect x="227" y="355" width="80" height="32"/>
      <rect x="225" y="353" width="80" height="32" class="nonterminal"/>
      <text class="nonterminal" x="235" y="373">HEXDIGIT</text>
   </a>
   <a xmlns:xlink="http://www.w3.org/1999/xlink"
      xlink:href="#HEXDIGIT"
      xlink:title="HEXDIGIT">
      <rect x="347" y="311" width="80" height="32"/>
      <rect x="345" y="309" width="80" height="32" class="nonterminal"/>
      <text class="nonterminal" x="355" y="329">HEXDIGIT</text>
   </a>
   <a xmlns:xlink="http://www.w3.org/1999/xlink"
      xlink:href="#HEXDIGIT"
      xlink:title="HEXDIGIT">
      <rect x="447" y="311" width="80" height="32"/>
      <rect x="445" y="309" width="80" height="32" class="nonterminal"/>
      <text class="nonterminal" x="455" y="329">HEXDIGIT</text>
   </a>
   <path class="line"
         d="m17 17 h2 m20 0 h10 m36 0 h10 m0 0 h440 m-516 0 h20 m496 0 h20 m-536 0 q10 0 10 10 m516 0 q0 -10 10 -10 m-526 10 v24 m516 0 v-24 m-516 24 q0 10 10 10 m496 0 q10 0 10 -10 m-506 10 h10 m36 0 h10 m0 0 h440 m-506 -10 v20 m516 0 v-20 m-516 20 v24 m516 0 v-24 m-516 24 q0 10 10 10 m496 0 q10 0 10 -10 m-506 10 h10 m32 0 h10 m0 0 h444 m-506 -10 v20 m516 0 v-20 m-516 20 v24 m516 0 v-24 m-516 24 q0 10 10 10 m496 0 q10 0 10 -10 m-506 10 h10 m36 0 h10 m0 0 h440 m-506 -10 v20 m516 0 v-20 m-516 20 v24 m516 0 v-24 m-516 24 q0 10 10 10 m496 0 q10 0 10 -10 m-506 10 h10 m34 0 h10 m0 0 h442 m-506 -10 v20 m516 0 v-20 m-516 20 v24 m516 0 v-24 m-516 24 q0 10 10 10 m496 0 q10 0 10 -10 m-506 10 h10 m34 0 h10 m0 0 h442 m-506 -10 v20 m516 0 v-20 m-516 20 v24 m516 0 v-24 m-516 24 q0 10 10 10 m496 0 q10 0 10 -10 m-506 10 h10 m36 0 h10 m0 0 h440 m-506 -10 v20 m516 0 v-20 m-516 20 v24 m516 0 v-24 m-516 24 q0 10 10 10 m496 0 q10 0 10 -10 m-486 10 h10 m36 0 h10 m0 0 h200 m-276 0 h20 m256 0 h20 m-296 0 q10 0 10 10 m276 0 q0 -10 10 -10 m-286 10 v24 m276 0 v-24 m-276 24 q0 10 10 10 m256 0 q10 0 10 -10 m-266 10 h10 m36 0 h10 m0 0 h10 m80 0 h10 m0 0 h10 m80 0 h10 m20 -44 h10 m80 0 h10 m0 0 h10 m80 0 h10 m23 -308 h-3"/>
   <polygon points="565 17 573 13 573 21"/>
   <polygon points="565 17 557 13 557 21"/>
</svg>
