<?xml version="1.0" encoding="UTF-8"?>
<svg xmlns="http://www.w3.org/2000/svg" width="577" height="147">
   <defs>
      <style type="text/css">
    @namespace "http://www.w3.org/2000/svg";
    .line                 {fill: none; stroke: #332900; stroke-width: 1;}
    .bold-line            {stroke: #141000; shape-rendering: crispEdges; stroke-width: 2;}
    .thin-line            {stroke: #1F1800; shape-rendering: crispEdges}
    .filled               {fill: #332900; stroke: none;}
    text.terminal         {font-family: Verdana, Sans-serif;
                            font-size: 12px;
                            fill: #141000;
                            font-weight: bold;
                          }
    text.nonterminal      {font-family: Verdana, Sans-serif;
                            font-size: 12px;
                            fill: #1A1400;
                            font-weight: normal;
                          }
    text.regexp           {font-family: Verdana, Sans-serif;
                            font-size: 12px;
                            fill: #1F1800;
                            font-weight: normal;
                          }
    rect, circle, polygon {fill: #332900; stroke: #332900;}
    rect.terminal         {fill: #FFDB4D; stroke: #332900; stroke-width: 1;}
    rect.nonterminal      {fill: #FFEC9E; stroke: #332900; stroke-width: 1;}
    rect.text             {fill: none; stroke: none;}
    polygon.regexp        {fill: #FFF4C7; stroke: #332900; stroke-width: 1;}
  </style>
   </defs>
   <polygon points="9 17 1 13 1 21"/>
   <polygon points="17 17 9 13 9 21"/>
   <rect x="51" y="3" width="40" height="32" rx="10"/>
   <rect x="49"
         y="1"
         width="40"
         height="32"
         class="terminal"
         rx="10"/>
   <text class="terminal" x="59" y="21">=&gt;</text>
   <a xmlns:xlink="http://www.w3.org/1999/xlink"
      xlink:href="#Expression"
      xlink:title="Expression">
      <rect x="111" y="3" width="90" height="32"/>
      <rect x="109" y="1" width="90" height="32" class="nonterminal"/>
      <text class="nonterminal" x="119" y="21">Expression</text>
   </a>
   <rect x="221" y="3" width="24" height="32" rx="10"/>
   <rect x="219"
         y="1"
         width="24"
         height="32"
         class="terminal"
         rx="10"/>
   <text class="terminal" x="229" y="21">;</text>
   <rect x="51" y="69" width="28" height="32" rx="10"/>
   <rect x="49"
         y="67"
         width="28"
         height="32"
         class="terminal"
         rx="10"/>
   <text class="terminal" x="59" y="87">{</text>
   <a xmlns:xlink="http://www.w3.org/1999/xlink"
      xlink:href="#SCOPE"
      xlink:title="SCOPE">
      <rect x="139" y="101" width="62" height="32"/>
      <rect x="137" y="99" width="62" height="32" class="nonterminal"/>
      <text class="nonterminal" x="147" y="119">SCOPE</text>
   </a>
   <rect x="261" y="69" width="50" height="32" rx="10"/>
   <rect x="259"
         y="67"
         width="50"
         height="32"
         class="terminal"
         rx="10"/>
   <text class="terminal" x="269" y="87">read</text>
   <rect x="261" y="113" width="56" height="32" rx="10"/>
   <rect x="259"
         y="111"
         width="56"
         height="32"
         class="terminal"
         rx="10"/>
   <text class="terminal" x="269" y="131">write</text>
   <a xmlns:xlink="http://www.w3.org/1999/xlink"
      xlink:href="#FunctionBody"
      xlink:title="FunctionBody">
      <rect x="357" y="69" width="104" height="32"/>
      <rect x="355" y="67" width="104" height="32" class="nonterminal"/>
      <text class="nonterminal" x="365" y="87">FunctionBody</text>
   </a>
   <rect x="501" y="69" width="28" height="32" rx="10"/>
   <rect x="499"
         y="67"
         width="28"
         height="32"
         class="terminal"
         rx="10"/>
   <text class="terminal" x="509" y="87">}</text>
   <path class="line"
         d="m17 17 h2 m20 0 h10 m40 0 h10 m0 0 h10 m90 0 h10 m0 0 h10 m24 0 h10 m0 0 h284 m-518 0 h20 m498 0 h20 m-538 0 q10 0 10 10 m518 0 q0 -10 10 -10 m-528 10 v46 m518 0 v-46 m-518 46 q0 10 10 10 m498 0 q10 0 10 -10 m-508 10 h10 m28 0 h10 m40 0 h10 m0 0 h72 m-102 0 h20 m82 0 h20 m-122 0 q10 0 10 10 m102 0 q0 -10 10 -10 m-112 10 v12 m102 0 v-12 m-102 12 q0 10 10 10 m82 0 q10 0 10 -10 m-92 10 h10 m62 0 h10 m40 -32 h10 m50 0 h10 m0 0 h6 m-96 0 h20 m76 0 h20 m-116 0 q10 0 10 10 m96 0 q0 -10 10 -10 m-106 10 v24 m96 0 v-24 m-96 24 q0 10 10 10 m76 0 q10 0 10 -10 m-86 10 h10 m56 0 h10 m20 -44 h10 m104 0 h10 m-382 0 l20 0 m-1 0 q-9 0 -9 -10 l0 -12 q0 -10 10 -10 m362 32 l20 0 m-20 0 q10 0 10 -10 l0 -12 q0 -10 -10 -10 m-362 0 h10 m0 0 h352 m20 32 h10 m28 0 h10 m23 -66 h-3"/>
   <polygon points="567 17 575 13 575 21"/>
   <polygon points="567 17 559 13 559 21"/>
</svg>
