<?xml version="1.0" encoding="UTF-8"?>
<svg xmlns="http://www.w3.org/2000/svg" width="501" height="69">
   <defs>
      <style type="text/css">
    @namespace "http://www.w3.org/2000/svg";
    .line                 {fill: none; stroke: #000045; stroke-width: 1;}
    .bold-line            {stroke: #000014; shape-rendering: crispEdges; stroke-width: 2;}
    .thin-line            {stroke: #00001F; shape-rendering: crispEdges}
    .filled               {fill: #000045; stroke: none;}
    text.terminal         {font-family: Verdana, Sans-serif;
                            font-size: 12px;
                            fill: #000014;
                            font-weight: bold;
                          }
    text.nonterminal      {font-family: Verdana, Sans-serif;
                            font-size: 12px;
                            fill: #00001A;
                            font-weight: normal;
                          }
    text.regexp           {font-family: Verdana, Sans-serif;
                            font-size: 12px;
                            fill: #00001F;
                            font-weight: normal;
                          }
    rect, circle, polygon {fill: #000045; stroke: #000045;}
    rect.terminal         {fill: #CCCCFF; stroke: #000045; stroke-width: 1;}
    rect.nonterminal      {fill: #E3E3FF; stroke: #000045; stroke-width: 1;}
    rect.text             {fill: none; stroke: none;}
    polygon.regexp        {fill: #EFEFFF; stroke: #000045; stroke-width: 1;}
  </style>
   </defs>
   <polygon points="9 33 1 29 1 37"/>
   <polygon points="17 33 9 29 9 37"/>
   <a xmlns:xlink="http://www.w3.org/1999/xlink"
      xlink:href="#PostfixUnaryExpression"
      xlink:title="PostfixUnaryExpression">
      <rect x="31" y="19" width="168" height="32"/>
      <rect x="29" y="17" width="168" height="32" class="nonterminal"/>
      <text class="nonterminal" x="39" y="37">PostfixUnaryExpression</text>
   </a>
   <rect x="259" y="19" width="38" height="32" rx="10"/>
   <rect x="257"
         y="17"
         width="38"
         height="32"
         class="terminal"
         rx="10"/>
   <text class="terminal" x="267" y="37">**</text>
   <a xmlns:xlink="http://www.w3.org/1999/xlink"
      xlink:href="#Exponentiation"
      xlink:title="Exponentiation">
      <rect x="317" y="19" width="116" height="32"/>
      <rect x="315" y="17" width="116" height="32" class="nonterminal"/>
      <text class="nonterminal" x="325" y="37">Exponentiation</text>
   </a>
   <path class="line"
         d="m17 33 h2 m0 0 h10 m168 0 h10 m40 0 h10 m38 0 h10 m0 0 h10 m116 0 h10 m-214 0 l20 0 m-1 0 q-9 0 -9 -10 l0 -12 q0 -10 10 -10 m194 32 l20 0 m-20 0 q10 0 10 -10 l0 -12 q0 -10 -10 -10 m-194 0 h10 m0 0 h184 m-234 32 h20 m234 0 h20 m-274 0 q10 0 10 10 m254 0 q0 -10 10 -10 m-264 10 v14 m254 0 v-14 m-254 14 q0 10 10 10 m234 0 q10 0 10 -10 m-244 10 h10 m0 0 h224 m23 -34 h-3"/>
   <polygon points="491 33 499 29 499 37"/>
   <polygon points="491 33 483 29 483 37"/>
</svg>
