<?xml version="1.0" encoding="UTF-8"?>
<svg xmlns="http://www.w3.org/2000/svg" width="643" height="69">
   <defs>
      <style type="text/css">
    @namespace "http://www.w3.org/2000/svg";
    .line                 {fill: none; stroke: #332900; stroke-width: 1;}
    .bold-line            {stroke: #141000; shape-rendering: crispEdges; stroke-width: 2;}
    .thin-line            {stroke: #1F1800; shape-rendering: crispEdges}
    .filled               {fill: #332900; stroke: none;}
    text.terminal         {font-family: Verdana, Sans-serif;
                            font-size: 12px;
                            fill: #141000;
                            font-weight: bold;
                          }
    text.nonterminal      {font-family: Verdana, Sans-serif;
                            font-size: 12px;
                            fill: #1A1400;
                            font-weight: normal;
                          }
    text.regexp           {font-family: Verdana, Sans-serif;
                            font-size: 12px;
                            fill: #1F1800;
                            font-weight: normal;
                          }
    rect, circle, polygon {fill: #332900; stroke: #332900;}
    rect.terminal         {fill: #FFDB4D; stroke: #332900; stroke-width: 1;}
    rect.nonterminal      {fill: #FFEC9E; stroke: #332900; stroke-width: 1;}
    rect.text             {fill: none; stroke: none;}
    polygon.regexp        {fill: #FFF4C7; stroke: #332900; stroke-width: 1;}
  </style>
   </defs>
   <polygon points="9 17 1 13 1 21"/>
   <polygon points="17 17 9 13 9 21"/>
   <a xmlns:xlink="http://www.w3.org/1999/xlink"
      xlink:href="#Attributes"
      xlink:title="Attributes">
      <rect x="51" y="35" width="82" height="32"/>
      <rect x="49" y="33" width="82" height="32" class="nonterminal"/>
      <text class="nonterminal" x="59" y="53">Attributes</text>
   </a>
   <rect x="173" y="3" width="64" height="32" rx="10"/>
   <rect x="171"
         y="1"
         width="64"
         height="32"
         class="terminal"
         rx="10"/>
   <text class="terminal" x="181" y="21">extern</text>
   <rect x="257" y="3" width="74" height="32" rx="10"/>
   <rect x="255"
         y="1"
         width="74"
         height="32"
         class="terminal"
         rx="10"/>
   <text class="terminal" x="265" y="21">function</text>
   <a xmlns:xlink="http://www.w3.org/1999/xlink"
      xlink:href="#IDENTIFIER"
      xlink:title="IDENTIFIER">
      <rect x="351" y="3" width="92" height="32"/>
      <rect x="349" y="1" width="92" height="32" class="nonterminal"/>
      <text class="nonterminal" x="359" y="21">IDENTIFIER</text>
   </a>
   <a xmlns:xlink="http://www.w3.org/1999/xlink"
      xlink:href="#ParameterList"
      xlink:title="ParameterList">
      <rect x="463" y="3" width="108" height="32"/>
      <rect x="461" y="1" width="108" height="32" class="nonterminal"/>
      <text class="nonterminal" x="471" y="21">ParameterList</text>
   </a>
   <rect x="591" y="3" width="24" height="32" rx="10"/>
   <rect x="589"
         y="1"
         width="24"
         height="32"
         class="terminal"
         rx="10"/>
   <text class="terminal" x="599" y="21">;</text>
   <path class="line"
         d="m17 17 h2 m20 0 h10 m0 0 h92 m-122 0 h20 m102 0 h20 m-142 0 q10 0 10 10 m122 0 q0 -10 10 -10 m-132 10 v12 m122 0 v-12 m-122 12 q0 10 10 10 m102 0 q10 0 10 -10 m-112 10 h10 m82 0 h10 m20 -32 h10 m64 0 h10 m0 0 h10 m74 0 h10 m0 0 h10 m92 0 h10 m0 0 h10 m108 0 h10 m0 0 h10 m24 0 h10 m3 0 h-3"/>
   <polygon points="633 17 641 13 641 21"/>
   <polygon points="633 17 625 13 625 21"/>
</svg>
