<?xml version="1.0" encoding="UTF-8"?>
<svg xmlns="http://www.w3.org/2000/svg" width="215" height="257">
   <defs>
      <style type="text/css">
    @namespace "http://www.w3.org/2000/svg";
    .line                 {fill: none; stroke: #00174B; stroke-width: 1;}
    .bold-line            {stroke: #000614; shape-rendering: crispEdges; stroke-width: 2;}
    .thin-line            {stroke: #00091F; shape-rendering: crispEdges}
    .filled               {fill: #00174B; stroke: none;}
    text.terminal         {font-family: Verdana, Sans-serif;
                            font-size: 12px;
                            fill: #000614;
                            font-weight: bold;
                          }
    text.nonterminal      {font-family: Verdana, Sans-serif;
                            font-size: 12px;
                            fill: #00081A;
                            font-weight: normal;
                          }
    text.regexp           {font-family: Verdana, Sans-serif;
                            font-size: 12px;
                            fill: #00091F;
                            font-weight: normal;
                          }
    rect, circle, polygon {fill: #00174B; stroke: #00174B;}
    rect.terminal         {fill: #F5F8FF; stroke: #00174B; stroke-width: 1;}
    rect.nonterminal      {fill: #FAFBFF; stroke: #00174B; stroke-width: 1;}
    rect.text             {fill: none; stroke: none;}
    polygon.regexp        {fill: #FCFDFF; stroke: #00174B; stroke-width: 1;}
  </style>
   </defs>
   <polygon points="9 237 1 233 1 241"/>
   <polygon points="17 237 9 233 9 241"/>
   <a xmlns:xlink="http://www.w3.org/1999/xlink"
      xlink:href="#Exponentiation"
      xlink:title="Exponentiation">
      <rect x="51" y="223" width="116" height="32"/>
      <rect x="49" y="221" width="116" height="32" class="nonterminal"/>
      <text class="nonterminal" x="59" y="241">Exponentiation</text>
   </a>
   <rect x="51" y="179" width="28" height="32" rx="10"/>
   <rect x="49"
         y="177"
         width="28"
         height="32"
         class="terminal"
         rx="10"/>
   <text class="terminal" x="59" y="197">*</text>
   <rect x="51" y="135" width="28" height="32" rx="10"/>
   <rect x="49"
         y="133"
         width="28"
         height="32"
         class="terminal"
         rx="10"/>
   <text class="terminal" x="59" y="153">/</text>
   <rect x="51" y="91" width="34" height="32" rx="10"/>
   <rect x="49"
         y="89"
         width="34"
         height="32"
         class="terminal"
         rx="10"/>
   <text class="terminal" x="59" y="109">%</text>
   <rect x="51" y="47" width="40" height="32" rx="10"/>
   <rect x="49"
         y="45"
         width="40"
         height="32"
         class="terminal"
         rx="10"/>
   <text class="terminal" x="59" y="65">&lt;&lt;</text>
   <rect x="51" y="3" width="40" height="32" rx="10"/>
   <rect x="49"
         y="1"
         width="40"
         height="32"
         class="terminal"
         rx="10"/>
   <text class="terminal" x="59" y="21">&gt;&gt;</text>
   <path class="line"
         d="m17 237 h2 m20 0 h10 m116 0 h10 m-156 0 l20 0 m-1 0 q-9 0 -9 -10 l0 -24 q0 -10 10 -10 m136 44 l20 0 m-20 0 q10 0 10 -10 l0 -24 q0 -10 -10 -10 m-136 0 h10 m28 0 h10 m0 0 h88 m-146 10 l0 -44 q0 -10 10 -10 m146 54 l0 -44 q0 -10 -10 -10 m-136 0 h10 m28 0 h10 m0 0 h88 m-146 10 l0 -44 q0 -10 10 -10 m146 54 l0 -44 q0 -10 -10 -10 m-136 0 h10 m34 0 h10 m0 0 h82 m-146 10 l0 -44 q0 -10 10 -10 m146 54 l0 -44 q0 -10 -10 -10 m-136 0 h10 m40 0 h10 m0 0 h76 m-146 10 l0 -44 q0 -10 10 -10 m146 54 l0 -44 q0 -10 -10 -10 m-136 0 h10 m40 0 h10 m0 0 h76 m23 220 h-3"/>
   <polygon points="205 237 213 233 213 241"/>
   <polygon points="205 237 197 233 197 241"/>
</svg>
