<?xml version="1.0" encoding="UTF-8"?>
<svg xmlns="http://www.w3.org/2000/svg" width="293" height="81">
   <defs>
      <style type="text/css">
    @namespace "http://www.w3.org/2000/svg";
    .line                 {fill: none; stroke: #000045; stroke-width: 1;}
    .bold-line            {stroke: #000014; shape-rendering: crispEdges; stroke-width: 2;}
    .thin-line            {stroke: #00001F; shape-rendering: crispEdges}
    .filled               {fill: #000045; stroke: none;}
    text.terminal         {font-family: Verdana, Sans-serif;
                            font-size: 12px;
                            fill: #000014;
                            font-weight: bold;
                          }
    text.nonterminal      {font-family: Verdana, Sans-serif;
                            font-size: 12px;
                            fill: #00001A;
                            font-weight: normal;
                          }
    text.regexp           {font-family: Verdana, Sans-serif;
                            font-size: 12px;
                            fill: #00001F;
                            font-weight: normal;
                          }
    rect, circle, polygon {fill: #000045; stroke: #000045;}
    rect.terminal         {fill: #CCCCFF; stroke: #000045; stroke-width: 1;}
    rect.nonterminal      {fill: #E3E3FF; stroke: #000045; stroke-width: 1;}
    rect.text             {fill: none; stroke: none;}
    polygon.regexp        {fill: #EFEFFF; stroke: #000045; stroke-width: 1;}
  </style>
   </defs>
   <polygon points="9 17 1 13 1 21"/>
   <polygon points="17 17 9 13 9 21"/>
   <rect x="51" y="3" width="40" height="32" rx="10"/>
   <rect x="49"
         y="1"
         width="40"
         height="32"
         class="terminal"
         rx="10"/>
   <text class="terminal" x="59" y="21">=&gt;</text>
   <a xmlns:xlink="http://www.w3.org/1999/xlink"
      xlink:href="#Expression"
      xlink:title="Expression">
      <rect x="111" y="3" width="90" height="32"/>
      <rect x="109" y="1" width="90" height="32" class="nonterminal"/>
      <text class="nonterminal" x="119" y="21">Expression</text>
   </a>
   <rect x="221" y="3" width="24" height="32" rx="10"/>
   <rect x="219"
         y="1"
         width="24"
         height="32"
         class="terminal"
         rx="10"/>
   <text class="terminal" x="229" y="21">;</text>
   <a xmlns:xlink="http://www.w3.org/1999/xlink"
      xlink:href="#Block"
      xlink:title="Block">
      <rect x="51" y="47" width="52" height="32"/>
      <rect x="49" y="45" width="52" height="32" class="nonterminal"/>
      <text class="nonterminal" x="59" y="65">Block</text>
   </a>
   <path class="line"
         d="m17 17 h2 m20 0 h10 m40 0 h10 m0 0 h10 m90 0 h10 m0 0 h10 m24 0 h10 m-234 0 h20 m214 0 h20 m-254 0 q10 0 10 10 m234 0 q0 -10 10 -10 m-244 10 v24 m234 0 v-24 m-234 24 q0 10 10 10 m214 0 q10 0 10 -10 m-224 10 h10 m52 0 h10 m0 0 h142 m23 -44 h-3"/>
   <polygon points="283 17 291 13 291 21"/>
   <polygon points="283 17 275 13 275 21"/>
</svg>
