<?xml version="1.0" encoding="UTF-8"?>
<svg xmlns="http://www.w3.org/2000/svg" width="639" height="69">
   <defs>
      <style type="text/css">
    @namespace "http://www.w3.org/2000/svg";
    .line                 {fill: none; stroke: #004900; stroke-width: 1;}
    .bold-line            {stroke: #001400; shape-rendering: crispEdges; stroke-width: 2;}
    .thin-line            {stroke: #001F00; shape-rendering: crispEdges}
    .filled               {fill: #004900; stroke: none;}
    text.terminal         {font-family: Verdana, Sans-serif;
                            font-size: 12px;
                            fill: #001400;
                            font-weight: bold;
                          }
    text.nonterminal      {font-family: Verdana, Sans-serif;
                            font-size: 12px;
                            fill: #001A00;
                            font-weight: normal;
                          }
    text.regexp           {font-family: Verdana, Sans-serif;
                            font-size: 12px;
                            fill: #001F00;
                            font-weight: normal;
                          }
    rect, circle, polygon {fill: #004900; stroke: #004900;}
    rect.terminal         {fill: #E5FFE5; stroke: #004900; stroke-width: 1;}
    rect.nonterminal      {fill: #F1FFF1; stroke: #004900; stroke-width: 1;}
    rect.text             {fill: none; stroke: none;}
    polygon.regexp        {fill: #F7FFF7; stroke: #004900; stroke-width: 1;}
  </style>
   </defs>
   <polygon points="9 17 1 13 1 21"/>
   <polygon points="17 17 9 13 9 21"/>
   <a xmlns:xlink="http://www.w3.org/1999/xlink"
      xlink:href="#Attributes"
      xlink:title="Attributes">
      <rect x="51" y="35" width="82" height="32"/>
      <rect x="49" y="33" width="82" height="32" class="nonterminal"/>
      <text class="nonterminal" x="59" y="53">Attributes</text>
   </a>
   <rect x="173" y="3" width="74" height="32" rx="10"/>
   <rect x="171"
         y="1"
         width="74"
         height="32"
         class="terminal"
         rx="10"/>
   <text class="terminal" x="181" y="21">function</text>
   <a xmlns:xlink="http://www.w3.org/1999/xlink"
      xlink:href="#IDENTIFIER"
      xlink:title="IDENTIFIER">
      <rect x="267" y="3" width="92" height="32"/>
      <rect x="265" y="1" width="92" height="32" class="nonterminal"/>
      <text class="nonterminal" x="275" y="21">IDENTIFIER</text>
   </a>
   <a xmlns:xlink="http://www.w3.org/1999/xlink"
      xlink:href="#ParameterList"
      xlink:title="ParameterList">
      <rect x="379" y="3" width="108" height="32"/>
      <rect x="377" y="1" width="108" height="32" class="nonterminal"/>
      <text class="nonterminal" x="387" y="21">ParameterList</text>
   </a>
   <a xmlns:xlink="http://www.w3.org/1999/xlink"
      xlink:href="#FunctionBody"
      xlink:title="FunctionBody">
      <rect x="507" y="3" width="104" height="32"/>
      <rect x="505" y="1" width="104" height="32" class="nonterminal"/>
      <text class="nonterminal" x="515" y="21">FunctionBody</text>
   </a>
   <path class="line"
         d="m17 17 h2 m20 0 h10 m0 0 h92 m-122 0 h20 m102 0 h20 m-142 0 q10 0 10 10 m122 0 q0 -10 10 -10 m-132 10 v12 m122 0 v-12 m-122 12 q0 10 10 10 m102 0 q10 0 10 -10 m-112 10 h10 m82 0 h10 m20 -32 h10 m74 0 h10 m0 0 h10 m92 0 h10 m0 0 h10 m108 0 h10 m0 0 h10 m104 0 h10 m3 0 h-3"/>
   <polygon points="629 17 637 13 637 21"/>
   <polygon points="629 17 621 13 621 21"/>
</svg>
