<?xml version="1.0" encoding="UTF-8"?>
<svg xmlns="http://www.w3.org/2000/svg" width="401" height="213">
   <defs>
      <style type="text/css">
    @namespace "http://www.w3.org/2000/svg";
    .line                 {fill: none; stroke: #000045; stroke-width: 1;}
    .bold-line            {stroke: #000014; shape-rendering: crispEdges; stroke-width: 2;}
    .thin-line            {stroke: #00001F; shape-rendering: crispEdges}
    .filled               {fill: #000045; stroke: none;}
    text.terminal         {font-family: Verdana, Sans-serif;
                            font-size: 12px;
                            fill: #000014;
                            font-weight: bold;
                          }
    text.nonterminal      {font-family: Verdana, Sans-serif;
                            font-size: 12px;
                            fill: #00001A;
                            font-weight: normal;
                          }
    text.regexp           {font-family: Verdana, Sans-serif;
                            font-size: 12px;
                            fill: #00001F;
                            font-weight: normal;
                          }
    rect, circle, polygon {fill: #000045; stroke: #000045;}
    rect.terminal         {fill: #CCCCFF; stroke: #000045; stroke-width: 1;}
    rect.nonterminal      {fill: #E3E3FF; stroke: #000045; stroke-width: 1;}
    rect.text             {fill: none; stroke: none;}
    polygon.regexp        {fill: #EFEFFF; stroke: #000045; stroke-width: 1;}
  </style>
   </defs>
   <polygon points="9 17 1 13 1 21"/>
   <polygon points="17 17 9 13 9 21"/>
   <rect x="31" y="3" width="50" height="32" rx="10"/>
   <rect x="29"
         y="1"
         width="50"
         height="32"
         class="terminal"
         rx="10"/>
   <text class="terminal" x="39" y="21">goto</text>
   <a xmlns:xlink="http://www.w3.org/1999/xlink"
      xlink:href="#IDENTIFIER"
      xlink:title="IDENTIFIER">
      <rect x="121" y="3" width="92" height="32"/>
      <rect x="119" y="1" width="92" height="32" class="nonterminal"/>
      <text class="nonterminal" x="129" y="21">IDENTIFIER</text>
   </a>
   <rect x="121" y="47" width="50" height="32" rx="10"/>
   <rect x="119"
         y="45"
         width="50"
         height="32"
         class="terminal"
         rx="10"/>
   <text class="terminal" x="129" y="65">case</text>
   <a xmlns:xlink="http://www.w3.org/1999/xlink"
      xlink:href="#BOOLEAN"
      xlink:title="BOOLEAN">
      <rect x="211" y="47" width="78" height="32"/>
      <rect x="209" y="45" width="78" height="32" class="nonterminal"/>
      <text class="nonterminal" x="219" y="65">BOOLEAN</text>
   </a>
   <a xmlns:xlink="http://www.w3.org/1999/xlink"
      xlink:href="#INTEGER"
      xlink:title="INTEGER">
      <rect x="211" y="91" width="74" height="32"/>
      <rect x="209" y="89" width="74" height="32" class="nonterminal"/>
      <text class="nonterminal" x="219" y="109">INTEGER</text>
   </a>
   <a xmlns:xlink="http://www.w3.org/1999/xlink"
      xlink:href="#STRING"
      xlink:title="STRING">
      <rect x="211" y="135" width="66" height="32"/>
      <rect x="209" y="133" width="66" height="32" class="nonterminal"/>
      <text class="nonterminal" x="219" y="153">STRING</text>
   </a>
   <rect x="121" y="179" width="68" height="32" rx="10"/>
   <rect x="119"
         y="177"
         width="68"
         height="32"
         class="terminal"
         rx="10"/>
   <text class="terminal" x="129" y="197">default</text>
   <rect x="349" y="3" width="24" height="32" rx="10"/>
   <rect x="347"
         y="1"
         width="24"
         height="32"
         class="terminal"
         rx="10"/>
   <text class="terminal" x="357" y="21">;</text>
   <path class="line"
         d="m17 17 h2 m0 0 h10 m50 0 h10 m20 0 h10 m92 0 h10 m0 0 h96 m-228 0 h20 m208 0 h20 m-248 0 q10 0 10 10 m228 0 q0 -10 10 -10 m-238 10 v24 m228 0 v-24 m-228 24 q0 10 10 10 m208 0 q10 0 10 -10 m-218 10 h10 m50 0 h10 m20 0 h10 m78 0 h10 m-118 0 h20 m98 0 h20 m-138 0 q10 0 10 10 m118 0 q0 -10 10 -10 m-128 10 v24 m118 0 v-24 m-118 24 q0 10 10 10 m98 0 q10 0 10 -10 m-108 10 h10 m74 0 h10 m0 0 h4 m-108 -10 v20 m118 0 v-20 m-118 20 v24 m118 0 v-24 m-118 24 q0 10 10 10 m98 0 q10 0 10 -10 m-108 10 h10 m66 0 h10 m0 0 h12 m-198 -98 v20 m228 0 v-20 m-228 20 v112 m228 0 v-112 m-228 112 q0 10 10 10 m208 0 q10 0 10 -10 m-218 10 h10 m68 0 h10 m0 0 h120 m20 -176 h10 m24 0 h10 m3 0 h-3"/>
   <polygon points="391 17 399 13 399 21"/>
   <polygon points="391 17 383 13 383 21"/>
</svg>
