<?xml version="1.0" encoding="UTF-8"?>
<svg xmlns="http://www.w3.org/2000/svg" width="277" height="97">
   <defs>
      <style type="text/css">
    @namespace "http://www.w3.org/2000/svg";
    .line                 {fill: none; stroke: #332900; stroke-width: 1;}
    .bold-line            {stroke: #141000; shape-rendering: crispEdges; stroke-width: 2;}
    .thin-line            {stroke: #1F1800; shape-rendering: crispEdges}
    .filled               {fill: #332900; stroke: none;}
    text.terminal         {font-family: Verdana, Sans-serif;
                            font-size: 12px;
                            fill: #141000;
                            font-weight: bold;
                          }
    text.nonterminal      {font-family: Verdana, Sans-serif;
                            font-size: 12px;
                            fill: #1A1400;
                            font-weight: normal;
                          }
    text.regexp           {font-family: Verdana, Sans-serif;
                            font-size: 12px;
                            fill: #1F1800;
                            font-weight: normal;
                          }
    rect, circle, polygon {fill: #332900; stroke: #332900;}
    rect.terminal         {fill: #FFDB4D; stroke: #332900; stroke-width: 1;}
    rect.nonterminal      {fill: #FFEC9E; stroke: #332900; stroke-width: 1;}
    rect.text             {fill: none; stroke: none;}
    polygon.regexp        {fill: #FFF4C7; stroke: #332900; stroke-width: 1;}
  </style>
   </defs>
   <polygon points="9 33 1 29 1 37"/>
   <polygon points="17 33 9 29 9 37"/>
   <rect x="51" y="19" width="36" height="32" rx="10"/>
   <rect x="49"
         y="17"
         width="36"
         height="32"
         class="terminal"
         rx="10"/>
   <text class="terminal" x="59" y="37">0x</text>
   <rect x="51" y="63" width="38" height="32" rx="10"/>
   <rect x="49"
         y="61"
         width="38"
         height="32"
         class="terminal"
         rx="10"/>
   <text class="terminal" x="59" y="81">0X</text>
   <a xmlns:xlink="http://www.w3.org/1999/xlink"
      xlink:href="#HEXDIGIT"
      xlink:title="HEXDIGIT">
      <rect x="149" y="19" width="80" height="32"/>
      <rect x="147" y="17" width="80" height="32" class="nonterminal"/>
      <text class="nonterminal" x="157" y="37">HEXDIGIT</text>
   </a>
   <path class="line"
         d="m17 33 h2 m20 0 h10 m36 0 h10 m0 0 h2 m-78 0 h20 m58 0 h20 m-98 0 q10 0 10 10 m78 0 q0 -10 10 -10 m-88 10 v24 m78 0 v-24 m-78 24 q0 10 10 10 m58 0 q10 0 10 -10 m-68 10 h10 m38 0 h10 m40 -44 h10 m80 0 h10 m-120 0 l20 0 m-1 0 q-9 0 -9 -10 l0 -12 q0 -10 10 -10 m100 32 l20 0 m-20 0 q10 0 10 -10 l0 -12 q0 -10 -10 -10 m-100 0 h10 m0 0 h90 m23 32 h-3"/>
   <polygon points="267 33 275 29 275 37"/>
   <polygon points="267 33 259 29 259 37"/>
</svg>
