<?xml version="1.0" encoding="UTF-8"?>
<svg xmlns="http://www.w3.org/2000/svg" width="607" height="69">
   <defs>
      <style type="text/css">
    @namespace "http://www.w3.org/2000/svg";
    .line                 {fill: none; stroke: #174B00; stroke-width: 1;}
    .bold-line            {stroke: #061400; shape-rendering: crispEdges; stroke-width: 2;}
    .thin-line            {stroke: #091F00; shape-rendering: crispEdges}
    .filled               {fill: #174B00; stroke: none;}
    text.terminal         {font-family: Verdana, Sans-serif;
                            font-size: 12px;
                            fill: #061400;
                            font-weight: bold;
                          }
    text.nonterminal      {font-family: Verdana, Sans-serif;
                            font-size: 12px;
                            fill: #081A00;
                            font-weight: normal;
                          }
    text.regexp           {font-family: Verdana, Sans-serif;
                            font-size: 12px;
                            fill: #091F00;
                            font-weight: normal;
                          }
    rect, circle, polygon {fill: #174B00; stroke: #174B00;}
    rect.terminal         {fill: #F8FFF5; stroke: #174B00; stroke-width: 1;}
    rect.nonterminal      {fill: #FBFFFA; stroke: #174B00; stroke-width: 1;}
    rect.text             {fill: none; stroke: none;}
    polygon.regexp        {fill: #FDFFFC; stroke: #174B00; stroke-width: 1;}
  </style>
   </defs>
   <polygon points="9 17 1 13 1 21"/>
   <polygon points="17 17 9 13 9 21"/>
   <rect x="31" y="3" width="28" height="32" rx="10"/>
   <rect x="29"
         y="1"
         width="28"
         height="32"
         class="terminal"
         rx="10"/>
   <text class="terminal" x="39" y="21">if</text>
   <rect x="79" y="3" width="26" height="32" rx="10"/>
   <rect x="77"
         y="1"
         width="26"
         height="32"
         class="terminal"
         rx="10"/>
   <text class="terminal" x="87" y="21">(</text>
   <a xmlns:xlink="http://www.w3.org/1999/xlink"
      xlink:href="#Expression"
      xlink:title="Expression">
      <rect x="125" y="3" width="90" height="32"/>
      <rect x="123" y="1" width="90" height="32" class="nonterminal"/>
      <text class="nonterminal" x="133" y="21">Expression</text>
   </a>
   <rect x="235" y="3" width="26" height="32" rx="10"/>
   <rect x="233"
         y="1"
         width="26"
         height="32"
         class="terminal"
         rx="10"/>
   <text class="terminal" x="243" y="21">)</text>
   <a xmlns:xlink="http://www.w3.org/1999/xlink"
      xlink:href="#Statement"
      xlink:title="Statement">
      <rect x="281" y="3" width="86" height="32"/>
      <rect x="279" y="1" width="86" height="32" class="nonterminal"/>
      <text class="nonterminal" x="289" y="21">Statement</text>
   </a>
   <rect x="407" y="35" width="46" height="32" rx="10"/>
   <rect x="405"
         y="33"
         width="46"
         height="32"
         class="terminal"
         rx="10"/>
   <text class="terminal" x="415" y="53">else</text>
   <a xmlns:xlink="http://www.w3.org/1999/xlink"
      xlink:href="#Statement"
      xlink:title="Statement">
      <rect x="473" y="35" width="86" height="32"/>
      <rect x="471" y="33" width="86" height="32" class="nonterminal"/>
      <text class="nonterminal" x="481" y="53">Statement</text>
   </a>
   <path class="line"
         d="m17 17 h2 m0 0 h10 m28 0 h10 m0 0 h10 m26 0 h10 m0 0 h10 m90 0 h10 m0 0 h10 m26 0 h10 m0 0 h10 m86 0 h10 m20 0 h10 m0 0 h162 m-192 0 h20 m172 0 h20 m-212 0 q10 0 10 10 m192 0 q0 -10 10 -10 m-202 10 v12 m192 0 v-12 m-192 12 q0 10 10 10 m172 0 q10 0 10 -10 m-182 10 h10 m46 0 h10 m0 0 h10 m86 0 h10 m23 -32 h-3"/>
   <polygon points="597 17 605 13 605 21"/>
   <polygon points="597 17 589 13 589 21"/>
</svg>
