<?xml version="1.0" encoding="UTF-8"?>
<svg xmlns="http://www.w3.org/2000/svg" width="571" height="125">
   <defs>
      <style type="text/css">
    @namespace "http://www.w3.org/2000/svg";
    .line                 {fill: none; stroke: #174B00; stroke-width: 1;}
    .bold-line            {stroke: #061400; shape-rendering: crispEdges; stroke-width: 2;}
    .thin-line            {stroke: #091F00; shape-rendering: crispEdges}
    .filled               {fill: #174B00; stroke: none;}
    text.terminal         {font-family: Verdana, Sans-serif;
                            font-size: 12px;
                            fill: #061400;
                            font-weight: bold;
                          }
    text.nonterminal      {font-family: Verdana, Sans-serif;
                            font-size: 12px;
                            fill: #081A00;
                            font-weight: normal;
                          }
    text.regexp           {font-family: Verdana, Sans-serif;
                            font-size: 12px;
                            fill: #091F00;
                            font-weight: normal;
                          }
    rect, circle, polygon {fill: #174B00; stroke: #174B00;}
    rect.terminal         {fill: #F8FFF5; stroke: #174B00; stroke-width: 1;}
    rect.nonterminal      {fill: #FBFFFA; stroke: #174B00; stroke-width: 1;}
    rect.text             {fill: none; stroke: none;}
    polygon.regexp        {fill: #FDFFFC; stroke: #174B00; stroke-width: 1;}
  </style>
   </defs>
   <polygon points="9 61 1 57 1 65"/>
   <polygon points="17 61 9 57 9 65"/>
   <rect x="31" y="47" width="26" height="32" rx="10"/>
   <rect x="29"
         y="45"
         width="26"
         height="32"
         class="terminal"
         rx="10"/>
   <text class="terminal" x="39" y="65">|</text>
   <a xmlns:xlink="http://www.w3.org/1999/xlink"
      xlink:href="#Parameter"
      xlink:title="Parameter">
      <rect x="117" y="47" width="86" height="32"/>
      <rect x="115" y="45" width="86" height="32" class="nonterminal"/>
      <text class="nonterminal" x="125" y="65">Parameter</text>
   </a>
   <rect x="117" y="3" width="24" height="32" rx="10"/>
   <rect x="115"
         y="1"
         width="24"
         height="32"
         class="terminal"
         rx="10"/>
   <text class="terminal" x="125" y="21">,</text>
   <rect x="263" y="47" width="26" height="32" rx="10"/>
   <rect x="261"
         y="45"
         width="26"
         height="32"
         class="terminal"
         rx="10"/>
   <text class="terminal" x="271" y="65">|</text>
   <rect x="309" y="47" width="40" height="32" rx="10"/>
   <rect x="307"
         y="45"
         width="40"
         height="32"
         class="terminal"
         rx="10"/>
   <text class="terminal" x="317" y="65">=&gt;</text>
   <a xmlns:xlink="http://www.w3.org/1999/xlink"
      xlink:href="#Expression"
      xlink:title="Expression">
      <rect x="389" y="47" width="90" height="32"/>
      <rect x="387" y="45" width="90" height="32" class="nonterminal"/>
      <text class="nonterminal" x="397" y="65">Expression</text>
   </a>
   <rect x="499" y="47" width="24" height="32" rx="10"/>
   <rect x="497"
         y="45"
         width="24"
         height="32"
         class="terminal"
         rx="10"/>
   <text class="terminal" x="507" y="65">;</text>
   <a xmlns:xlink="http://www.w3.org/1999/xlink"
      xlink:href="#Block"
      xlink:title="Block">
      <rect x="389" y="91" width="52" height="32"/>
      <rect x="387" y="89" width="52" height="32" class="nonterminal"/>
      <text class="nonterminal" x="397" y="109">Block</text>
   </a>
   <path class="line"
         d="m17 61 h2 m0 0 h10 m26 0 h10 m40 0 h10 m86 0 h10 m-126 0 l20 0 m-1 0 q-9 0 -9 -10 l0 -24 q0 -10 10 -10 m106 44 l20 0 m-20 0 q10 0 10 -10 l0 -24 q0 -10 -10 -10 m-106 0 h10 m24 0 h10 m0 0 h62 m-146 44 h20 m146 0 h20 m-186 0 q10 0 10 10 m166 0 q0 -10 10 -10 m-176 10 v14 m166 0 v-14 m-166 14 q0 10 10 10 m146 0 q10 0 10 -10 m-156 10 h10 m0 0 h136 m20 -34 h10 m26 0 h10 m0 0 h10 m40 0 h10 m20 0 h10 m90 0 h10 m0 0 h10 m24 0 h10 m-174 0 h20 m154 0 h20 m-194 0 q10 0 10 10 m174 0 q0 -10 10 -10 m-184 10 v24 m174 0 v-24 m-174 24 q0 10 10 10 m154 0 q10 0 10 -10 m-164 10 h10 m52 0 h10 m0 0 h82 m23 -44 h-3"/>
   <polygon points="561 61 569 57 569 65"/>
   <polygon points="561 61 553 57 553 65"/>
</svg>
