<?xml version="1.0" encoding="UTF-8"?>
<svg xmlns="http://www.w3.org/2000/svg" width="209" height="213">
   <defs>
      <style type="text/css">
    @namespace "http://www.w3.org/2000/svg";
    .line                 {fill: none; stroke: #004900; stroke-width: 1;}
    .bold-line            {stroke: #001400; shape-rendering: crispEdges; stroke-width: 2;}
    .thin-line            {stroke: #001F00; shape-rendering: crispEdges}
    .filled               {fill: #004900; stroke: none;}
    text.terminal         {font-family: Verdana, Sans-serif;
                            font-size: 12px;
                            fill: #001400;
                            font-weight: bold;
                          }
    text.nonterminal      {font-family: Verdana, Sans-serif;
                            font-size: 12px;
                            fill: #001A00;
                            font-weight: normal;
                          }
    text.regexp           {font-family: Verdana, Sans-serif;
                            font-size: 12px;
                            fill: #001F00;
                            font-weight: normal;
                          }
    rect, circle, polygon {fill: #004900; stroke: #004900;}
    rect.terminal         {fill: #E5FFE5; stroke: #004900; stroke-width: 1;}
    rect.nonterminal      {fill: #F1FFF1; stroke: #004900; stroke-width: 1;}
    rect.text             {fill: none; stroke: none;}
    polygon.regexp        {fill: #F7FFF7; stroke: #004900; stroke-width: 1;}
  </style>
   </defs>
   <polygon points="9 17 1 13 1 21"/>
   <polygon points="17 17 9 13 9 21"/>
   <a xmlns:xlink="http://www.w3.org/1999/xlink"
      xlink:href="#LETTER"
      xlink:title="LETTER">
      <rect x="51" y="3" width="64" height="32"/>
      <rect x="49" y="1" width="64" height="32" class="nonterminal"/>
      <text class="nonterminal" x="59" y="21">LETTER</text>
   </a>
   <rect x="51" y="47" width="28" height="32" rx="10"/>
   <rect x="49"
         y="45"
         width="28"
         height="32"
         class="terminal"
         rx="10"/>
   <text class="terminal" x="59" y="65">_</text>
   <polygon points="51 107 58 91 154 91 161 107 154 123 58 123"/>
   <polygon points="49 105 56 89 152 89 159 105 152 121 56 121" class="regexp"/>
   <text class="regexp" x="64" y="109">'\xc0' - '\xd6'</text>
   <polygon points="51 151 58 135 152 135 159 151 152 167 58 167"/>
   <polygon points="49 149 56 133 150 133 157 149 150 165 56 165" class="regexp"/>
   <text class="regexp" x="64" y="153">'\xd8' - '\xf6'</text>
   <polygon points="51 195 58 179 146 179 153 195 146 211 58 211"/>
   <polygon points="49 193 56 177 144 177 151 193 144 209 56 209" class="regexp"/>
   <text class="regexp" x="64" y="197">'\xf8' - '\xff'</text>
   <path class="line"
         d="m17 17 h2 m20 0 h10 m64 0 h10 m0 0 h46 m-150 0 h20 m130 0 h20 m-170 0 q10 0 10 10 m150 0 q0 -10 10 -10 m-160 10 v24 m150 0 v-24 m-150 24 q0 10 10 10 m130 0 q10 0 10 -10 m-140 10 h10 m28 0 h10 m0 0 h82 m-140 -10 v20 m150 0 v-20 m-150 20 v24 m150 0 v-24 m-150 24 q0 10 10 10 m130 0 q10 0 10 -10 m-140 10 h10 m110 0 h10 m-140 -10 v20 m150 0 v-20 m-150 20 v24 m150 0 v-24 m-150 24 q0 10 10 10 m130 0 q10 0 10 -10 m-140 10 h10 m108 0 h10 m0 0 h2 m-140 -10 v20 m150 0 v-20 m-150 20 v24 m150 0 v-24 m-150 24 q0 10 10 10 m130 0 q10 0 10 -10 m-140 10 h10 m102 0 h10 m0 0 h8 m23 -176 h-3"/>
   <polygon points="199 17 207 13 207 21"/>
   <polygon points="199 17 191 13 191 21"/>
</svg>
