<?xml version="1.0" encoding="UTF-8"?>
<svg xmlns="http://www.w3.org/2000/svg" width="205" height="345">
   <defs>
      <style type="text/css">
    @namespace "http://www.w3.org/2000/svg";
    .line                 {fill: none; stroke: #00174B; stroke-width: 1;}
    .bold-line            {stroke: #000614; shape-rendering: crispEdges; stroke-width: 2;}
    .thin-line            {stroke: #00091F; shape-rendering: crispEdges}
    .filled               {fill: #00174B; stroke: none;}
    text.terminal         {font-family: Verdana, Sans-serif;
                            font-size: 12px;
                            fill: #000614;
                            font-weight: bold;
                          }
    text.nonterminal      {font-family: Verdana, Sans-serif;
                            font-size: 12px;
                            fill: #00081A;
                            font-weight: normal;
                          }
    text.regexp           {font-family: Verdana, Sans-serif;
                            font-size: 12px;
                            fill: #00091F;
                            font-weight: normal;
                          }
    rect, circle, polygon {fill: #00174B; stroke: #00174B;}
    rect.terminal         {fill: #F5F8FF; stroke: #00174B; stroke-width: 1;}
    rect.nonterminal      {fill: #FAFBFF; stroke: #00174B; stroke-width: 1;}
    rect.text             {fill: none; stroke: none;}
    polygon.regexp        {fill: #FCFDFF; stroke: #00174B; stroke-width: 1;}
  </style>
   </defs>
   <polygon points="9 17 1 13 1 21"/>
   <polygon points="17 17 9 13 9 21"/>
   <rect x="51" y="3" width="44" height="32" rx="10"/>
   <rect x="49"
         y="1"
         width="44"
         height="32"
         class="terminal"
         rx="10"/>
   <text class="terminal" x="59" y="21">null</text>
   <a xmlns:xlink="http://www.w3.org/1999/xlink"
      xlink:href="#BOOLEAN"
      xlink:title="BOOLEAN">
      <rect x="51" y="47" width="78" height="32"/>
      <rect x="49" y="45" width="78" height="32" class="nonterminal"/>
      <text class="nonterminal" x="59" y="65">BOOLEAN</text>
   </a>
   <a xmlns:xlink="http://www.w3.org/1999/xlink"
      xlink:href="#INTEGER"
      xlink:title="INTEGER">
      <rect x="51" y="91" width="74" height="32"/>
      <rect x="49" y="89" width="74" height="32" class="nonterminal"/>
      <text class="nonterminal" x="59" y="109">INTEGER</text>
   </a>
   <a xmlns:xlink="http://www.w3.org/1999/xlink"
      xlink:href="#BIG_INTEGER"
      xlink:title="BIG_INTEGER">
      <rect x="51" y="135" width="104" height="32"/>
      <rect x="49" y="133" width="104" height="32" class="nonterminal"/>
      <text class="nonterminal" x="59" y="153">BIG_INTEGER</text>
   </a>
   <a xmlns:xlink="http://www.w3.org/1999/xlink"
      xlink:href="#FLOAT"
      xlink:title="FLOAT">
      <rect x="51" y="179" width="58" height="32"/>
      <rect x="49" y="177" width="58" height="32" class="nonterminal"/>
      <text class="nonterminal" x="59" y="197">FLOAT</text>
   </a>
   <a xmlns:xlink="http://www.w3.org/1999/xlink"
      xlink:href="#BIG_DECIMAL"
      xlink:title="BIG_DECIMAL">
      <rect x="51" y="223" width="106" height="32"/>
      <rect x="49" y="221" width="106" height="32" class="nonterminal"/>
      <text class="nonterminal" x="59" y="241">BIG_DECIMAL</text>
   </a>
   <a xmlns:xlink="http://www.w3.org/1999/xlink"
      xlink:href="#DATE"
      xlink:title="DATE">
      <rect x="51" y="267" width="52" height="32"/>
      <rect x="49" y="265" width="52" height="32" class="nonterminal"/>
      <text class="nonterminal" x="59" y="285">DATE</text>
   </a>
   <a xmlns:xlink="http://www.w3.org/1999/xlink"
      xlink:href="#STRING"
      xlink:title="STRING">
      <rect x="51" y="311" width="66" height="32"/>
      <rect x="49" y="309" width="66" height="32" class="nonterminal"/>
      <text class="nonterminal" x="59" y="329">STRING</text>
   </a>
   <path class="line"
         d="m17 17 h2 m20 0 h10 m44 0 h10 m0 0 h62 m-146 0 h20 m126 0 h20 m-166 0 q10 0 10 10 m146 0 q0 -10 10 -10 m-156 10 v24 m146 0 v-24 m-146 24 q0 10 10 10 m126 0 q10 0 10 -10 m-136 10 h10 m78 0 h10 m0 0 h28 m-136 -10 v20 m146 0 v-20 m-146 20 v24 m146 0 v-24 m-146 24 q0 10 10 10 m126 0 q10 0 10 -10 m-136 10 h10 m74 0 h10 m0 0 h32 m-136 -10 v20 m146 0 v-20 m-146 20 v24 m146 0 v-24 m-146 24 q0 10 10 10 m126 0 q10 0 10 -10 m-136 10 h10 m104 0 h10 m0 0 h2 m-136 -10 v20 m146 0 v-20 m-146 20 v24 m146 0 v-24 m-146 24 q0 10 10 10 m126 0 q10 0 10 -10 m-136 10 h10 m58 0 h10 m0 0 h48 m-136 -10 v20 m146 0 v-20 m-146 20 v24 m146 0 v-24 m-146 24 q0 10 10 10 m126 0 q10 0 10 -10 m-136 10 h10 m106 0 h10 m-136 -10 v20 m146 0 v-20 m-146 20 v24 m146 0 v-24 m-146 24 q0 10 10 10 m126 0 q10 0 10 -10 m-136 10 h10 m52 0 h10 m0 0 h54 m-136 -10 v20 m146 0 v-20 m-146 20 v24 m146 0 v-24 m-146 24 q0 10 10 10 m126 0 q10 0 10 -10 m-136 10 h10 m66 0 h10 m0 0 h40 m23 -308 h-3"/>
   <polygon points="195 17 203 13 203 21"/>
   <polygon points="195 17 187 13 187 21"/>
</svg>
