<?xml version="1.0" encoding="UTF-8"?>
<svg xmlns="http://www.w3.org/2000/svg" width="355" height="97">
   <defs>
      <style type="text/css">
    @namespace "http://www.w3.org/2000/svg";
    .line                 {fill: none; stroke: #000045; stroke-width: 1;}
    .bold-line            {stroke: #000014; shape-rendering: crispEdges; stroke-width: 2;}
    .thin-line            {stroke: #00001F; shape-rendering: crispEdges}
    .filled               {fill: #000045; stroke: none;}
    text.terminal         {font-family: Verdana, Sans-serif;
                            font-size: 12px;
                            fill: #000014;
                            font-weight: bold;
                          }
    text.nonterminal      {font-family: Verdana, Sans-serif;
                            font-size: 12px;
                            fill: #00001A;
                            font-weight: normal;
                          }
    text.regexp           {font-family: Verdana, Sans-serif;
                            font-size: 12px;
                            fill: #00001F;
                            font-weight: normal;
                          }
    rect, circle, polygon {fill: #000045; stroke: #000045;}
    rect.terminal         {fill: #CCCCFF; stroke: #000045; stroke-width: 1;}
    rect.nonterminal      {fill: #E3E3FF; stroke: #000045; stroke-width: 1;}
    rect.text             {fill: none; stroke: none;}
    polygon.regexp        {fill: #EFEFFF; stroke: #000045; stroke-width: 1;}
  </style>
   </defs>
   <polygon points="9 33 1 29 1 37"/>
   <polygon points="17 33 9 29 9 37"/>
   <a xmlns:xlink="http://www.w3.org/1999/xlink"
      xlink:href="#Pattern"
      xlink:title="Pattern">
      <rect x="31" y="19" width="66" height="32"/>
      <rect x="29" y="17" width="66" height="32" class="nonterminal"/>
      <text class="nonterminal" x="39" y="37">Pattern</text>
   </a>
   <rect x="157" y="19" width="34" height="32" rx="10"/>
   <rect x="155"
         y="17"
         width="34"
         height="32"
         class="terminal"
         rx="10"/>
   <text class="terminal" x="165" y="37">or</text>
   <rect x="157" y="63" width="44" height="32" rx="10"/>
   <rect x="155"
         y="61"
         width="44"
         height="32"
         class="terminal"
         rx="10"/>
   <text class="terminal" x="165" y="81">and</text>
   <a xmlns:xlink="http://www.w3.org/1999/xlink"
      xlink:href="#Pattern"
      xlink:title="Pattern">
      <rect x="241" y="19" width="66" height="32"/>
      <rect x="239" y="17" width="66" height="32" class="nonterminal"/>
      <text class="nonterminal" x="249" y="37">Pattern</text>
   </a>
   <path class="line"
         d="m17 33 h2 m0 0 h10 m66 0 h10 m40 0 h10 m34 0 h10 m0 0 h10 m-84 0 h20 m64 0 h20 m-104 0 q10 0 10 10 m84 0 q0 -10 10 -10 m-94 10 v24 m84 0 v-24 m-84 24 q0 10 10 10 m64 0 q10 0 10 -10 m-74 10 h10 m44 0 h10 m20 -44 h10 m66 0 h10 m-210 0 l20 0 m-1 0 q-9 0 -9 -10 l0 -12 q0 -10 10 -10 m190 32 l20 0 m-20 0 q10 0 10 -10 l0 -12 q0 -10 -10 -10 m-190 0 h10 m0 0 h180 m23 32 h-3"/>
   <polygon points="345 33 353 29 353 37"/>
   <polygon points="345 33 337 29 337 37"/>
</svg>
