<?xml version="1.0" encoding="UTF-8"?>
<svg xmlns="http://www.w3.org/2000/svg" width="589" height="69">
   <defs>
      <style type="text/css">
    @namespace "http://www.w3.org/2000/svg";
    .line                 {fill: none; stroke: #000045; stroke-width: 1;}
    .bold-line            {stroke: #000014; shape-rendering: crispEdges; stroke-width: 2;}
    .thin-line            {stroke: #00001F; shape-rendering: crispEdges}
    .filled               {fill: #000045; stroke: none;}
    text.terminal         {font-family: Verdana, Sans-serif;
                            font-size: 12px;
                            fill: #000014;
                            font-weight: bold;
                          }
    text.nonterminal      {font-family: Verdana, Sans-serif;
                            font-size: 12px;
                            fill: #00001A;
                            font-weight: normal;
                          }
    text.regexp           {font-family: Verdana, Sans-serif;
                            font-size: 12px;
                            fill: #00001F;
                            font-weight: normal;
                          }
    rect, circle, polygon {fill: #000045; stroke: #000045;}
    rect.terminal         {fill: #CCCCFF; stroke: #000045; stroke-width: 1;}
    rect.nonterminal      {fill: #E3E3FF; stroke: #000045; stroke-width: 1;}
    rect.text             {fill: none; stroke: none;}
    polygon.regexp        {fill: #EFEFFF; stroke: #000045; stroke-width: 1;}
  </style>
   </defs>
   <polygon points="9 17 1 13 1 21"/>
   <polygon points="17 17 9 13 9 21"/>
   <a xmlns:xlink="http://www.w3.org/1999/xlink"
      xlink:href="#Pattern"
      xlink:title="Pattern">
      <rect x="31" y="3" width="66" height="32"/>
      <rect x="29" y="1" width="66" height="32" class="nonterminal"/>
      <text class="nonterminal" x="39" y="21">Pattern</text>
   </a>
   <rect x="137" y="35" width="56" height="32" rx="10"/>
   <rect x="135"
         y="33"
         width="56"
         height="32"
         class="terminal"
         rx="10"/>
   <text class="terminal" x="145" y="53">when</text>
   <a xmlns:xlink="http://www.w3.org/1999/xlink"
      xlink:href="#Expression"
      xlink:title="Expression">
      <rect x="213" y="35" width="90" height="32"/>
      <rect x="211" y="33" width="90" height="32" class="nonterminal"/>
      <text class="nonterminal" x="221" y="53">Expression</text>
   </a>
   <rect x="343" y="3" width="40" height="32" rx="10"/>
   <rect x="341"
         y="1"
         width="40"
         height="32"
         class="terminal"
         rx="10"/>
   <text class="terminal" x="351" y="21">=&gt;</text>
   <a xmlns:xlink="http://www.w3.org/1999/xlink"
      xlink:href="#MatchCaseExpression"
      xlink:title="MatchCaseExpression">
      <rect x="403" y="3" width="158" height="32"/>
      <rect x="401" y="1" width="158" height="32" class="nonterminal"/>
      <text class="nonterminal" x="411" y="21">MatchCaseExpression</text>
   </a>
   <path class="line"
         d="m17 17 h2 m0 0 h10 m66 0 h10 m20 0 h10 m0 0 h176 m-206 0 h20 m186 0 h20 m-226 0 q10 0 10 10 m206 0 q0 -10 10 -10 m-216 10 v12 m206 0 v-12 m-206 12 q0 10 10 10 m186 0 q10 0 10 -10 m-196 10 h10 m56 0 h10 m0 0 h10 m90 0 h10 m20 -32 h10 m40 0 h10 m0 0 h10 m158 0 h10 m3 0 h-3"/>
   <polygon points="579 17 587 13 587 21"/>
   <polygon points="579 17 571 13 571 21"/>
</svg>
