<?xml version="1.0" encoding="UTF-8"?>
<svg xmlns="http://www.w3.org/2000/svg" width="223" height="257">
   <defs>
      <style type="text/css">
    @namespace "http://www.w3.org/2000/svg";
    .line                 {fill: none; stroke: #004900; stroke-width: 1;}
    .bold-line            {stroke: #001400; shape-rendering: crispEdges; stroke-width: 2;}
    .thin-line            {stroke: #001F00; shape-rendering: crispEdges}
    .filled               {fill: #004900; stroke: none;}
    text.terminal         {font-family: Verdana, Sans-serif;
                            font-size: 12px;
                            fill: #001400;
                            font-weight: bold;
                          }
    text.nonterminal      {font-family: Verdana, Sans-serif;
                            font-size: 12px;
                            fill: #001A00;
                            font-weight: normal;
                          }
    text.regexp           {font-family: Verdana, Sans-serif;
                            font-size: 12px;
                            fill: #001F00;
                            font-weight: normal;
                          }
    rect, circle, polygon {fill: #004900; stroke: #004900;}
    rect.terminal         {fill: #E5FFE5; stroke: #004900; stroke-width: 1;}
    rect.nonterminal      {fill: #F1FFF1; stroke: #004900; stroke-width: 1;}
    rect.text             {fill: none; stroke: none;}
    polygon.regexp        {fill: #F7FFF7; stroke: #004900; stroke-width: 1;}
  </style>
   </defs>
   <polygon points="9 17 1 13 1 21"/>
   <polygon points="17 17 9 13 9 21"/>
   <a xmlns:xlink="http://www.w3.org/1999/xlink"
      xlink:href="#ConstructorSpec"
      xlink:title="ConstructorSpec">
      <rect x="51" y="3" width="124" height="32"/>
      <rect x="49" y="1" width="124" height="32" class="nonterminal"/>
      <text class="nonterminal" x="59" y="21">ConstructorSpec</text>
   </a>
   <a xmlns:xlink="http://www.w3.org/1999/xlink"
      xlink:href="#FieldSpec"
      xlink:title="FieldSpec">
      <rect x="51" y="47" width="80" height="32"/>
      <rect x="49" y="45" width="80" height="32" class="nonterminal"/>
      <text class="nonterminal" x="59" y="65">FieldSpec</text>
   </a>
   <a xmlns:xlink="http://www.w3.org/1999/xlink"
      xlink:href="#PropertySpec"
      xlink:title="PropertySpec">
      <rect x="51" y="91" width="104" height="32"/>
      <rect x="49" y="89" width="104" height="32" class="nonterminal"/>
      <text class="nonterminal" x="59" y="109">PropertySpec</text>
   </a>
   <a xmlns:xlink="http://www.w3.org/1999/xlink"
      xlink:href="#MethodSpec"
      xlink:title="MethodSpec">
      <rect x="51" y="135" width="96" height="32"/>
      <rect x="49" y="133" width="96" height="32" class="nonterminal"/>
      <text class="nonterminal" x="59" y="153">MethodSpec</text>
   </a>
   <a xmlns:xlink="http://www.w3.org/1999/xlink"
      xlink:href="#OperatorSpec"
      xlink:title="OperatorSpec">
      <rect x="51" y="179" width="106" height="32"/>
      <rect x="49" y="177" width="106" height="32" class="nonterminal"/>
      <text class="nonterminal" x="59" y="197">OperatorSpec</text>
   </a>
   <a xmlns:xlink="http://www.w3.org/1999/xlink"
      xlink:href="#EventSpec"
      xlink:title="EventSpec">
      <rect x="51" y="223" width="86" height="32"/>
      <rect x="49" y="221" width="86" height="32" class="nonterminal"/>
      <text class="nonterminal" x="59" y="241">EventSpec</text>
   </a>
   <path class="line"
         d="m17 17 h2 m20 0 h10 m124 0 h10 m-164 0 h20 m144 0 h20 m-184 0 q10 0 10 10 m164 0 q0 -10 10 -10 m-174 10 v24 m164 0 v-24 m-164 24 q0 10 10 10 m144 0 q10 0 10 -10 m-154 10 h10 m80 0 h10 m0 0 h44 m-154 -10 v20 m164 0 v-20 m-164 20 v24 m164 0 v-24 m-164 24 q0 10 10 10 m144 0 q10 0 10 -10 m-154 10 h10 m104 0 h10 m0 0 h20 m-154 -10 v20 m164 0 v-20 m-164 20 v24 m164 0 v-24 m-164 24 q0 10 10 10 m144 0 q10 0 10 -10 m-154 10 h10 m96 0 h10 m0 0 h28 m-154 -10 v20 m164 0 v-20 m-164 20 v24 m164 0 v-24 m-164 24 q0 10 10 10 m144 0 q10 0 10 -10 m-154 10 h10 m106 0 h10 m0 0 h18 m-154 -10 v20 m164 0 v-20 m-164 20 v24 m164 0 v-24 m-164 24 q0 10 10 10 m144 0 q10 0 10 -10 m-154 10 h10 m86 0 h10 m0 0 h38 m23 -220 h-3"/>
   <polygon points="213 17 221 13 221 21"/>
   <polygon points="213 17 205 13 205 21"/>
</svg>
