<?xml version="1.0" encoding="UTF-8"?>
<svg xmlns="http://www.w3.org/2000/svg" width="445" height="165">
   <defs>
      <style type="text/css">
    @namespace "http://www.w3.org/2000/svg";
    .line                 {fill: none; stroke: #004900; stroke-width: 1;}
    .bold-line            {stroke: #001400; shape-rendering: crispEdges; stroke-width: 2;}
    .thin-line            {stroke: #001F00; shape-rendering: crispEdges}
    .filled               {fill: #004900; stroke: none;}
    text.terminal         {font-family: Verdana, Sans-serif;
                            font-size: 12px;
                            fill: #001400;
                            font-weight: bold;
                          }
    text.nonterminal      {font-family: Verdana, Sans-serif;
                            font-size: 12px;
                            fill: #001A00;
                            font-weight: normal;
                          }
    text.regexp           {font-family: Verdana, Sans-serif;
                            font-size: 12px;
                            fill: #001F00;
                            font-weight: normal;
                          }
    rect, circle, polygon {fill: #004900; stroke: #004900;}
    rect.terminal         {fill: #E5FFE5; stroke: #004900; stroke-width: 1;}
    rect.nonterminal      {fill: #F1FFF1; stroke: #004900; stroke-width: 1;}
    rect.text             {fill: none; stroke: none;}
    polygon.regexp        {fill: #F7FFF7; stroke: #004900; stroke-width: 1;}
  </style>
   </defs>
   <polygon points="9 5 1 1 1 9"/>
   <polygon points="17 5 9 1 9 9"/>
   <a xmlns:xlink="http://www.w3.org/1999/xlink"
      xlink:href="#Attributes"
      xlink:title="Attributes">
      <rect x="51" y="23" width="82" height="32"/>
      <rect x="49" y="21" width="82" height="32" class="nonterminal"/>
      <text class="nonterminal" x="59" y="41">Attributes</text>
   </a>
   <a xmlns:xlink="http://www.w3.org/1999/xlink"
      xlink:href="#SCOPE"
      xlink:title="SCOPE">
      <rect x="193" y="23" width="62" height="32"/>
      <rect x="191" y="21" width="62" height="32" class="nonterminal"/>
      <text class="nonterminal" x="201" y="41">SCOPE</text>
   </a>
   <a xmlns:xlink="http://www.w3.org/1999/xlink"
      xlink:href="#MODIFIER"
      xlink:title="MODIFIER">
      <rect x="295" y="55" width="82" height="32"/>
      <rect x="293" y="53" width="82" height="32" class="nonterminal"/>
      <text class="nonterminal" x="303" y="73">MODIFIER</text>
   </a>
   <a xmlns:xlink="http://www.w3.org/1999/xlink"
      xlink:href="#MODIFIER"
      xlink:title="MODIFIER">
      <rect x="193" y="99" width="82" height="32"/>
      <rect x="191" y="97" width="82" height="32" class="nonterminal"/>
      <text class="nonterminal" x="201" y="117">MODIFIER</text>
   </a>
   <a xmlns:xlink="http://www.w3.org/1999/xlink"
      xlink:href="#SCOPE"
      xlink:title="SCOPE">
      <rect x="315" y="131" width="62" height="32"/>
      <rect x="313" y="129" width="62" height="32" class="nonterminal"/>
      <text class="nonterminal" x="323" y="149">SCOPE</text>
   </a>
   <path class="line"
         d="m17 5 h2 m20 0 h10 m0 0 h92 m-122 0 h20 m102 0 h20 m-142 0 q10 0 10 10 m122 0 q0 -10 10 -10 m-132 10 v12 m122 0 v-12 m-122 12 q0 10 10 10 m102 0 q10 0 10 -10 m-112 10 h10 m82 0 h10 m40 -32 h10 m0 0 h214 m-244 0 h20 m224 0 h20 m-264 0 q10 0 10 10 m244 0 q0 -10 10 -10 m-254 10 v12 m244 0 v-12 m-244 12 q0 10 10 10 m224 0 q10 0 10 -10 m-234 10 h10 m62 0 h10 m20 0 h10 m0 0 h92 m-122 0 h20 m102 0 h20 m-142 0 q10 0 10 10 m122 0 q0 -10 10 -10 m-132 10 v12 m122 0 v-12 m-122 12 q0 10 10 10 m102 0 q10 0 10 -10 m-112 10 h10 m82 0 h10 m-214 -42 v20 m244 0 v-20 m-244 20 v56 m244 0 v-56 m-244 56 q0 10 10 10 m224 0 q10 0 10 -10 m-234 10 h10 m82 0 h10 m20 0 h10 m0 0 h72 m-102 0 h20 m82 0 h20 m-122 0 q10 0 10 10 m102 0 q0 -10 10 -10 m-112 10 v12 m102 0 v-12 m-102 12 q0 10 10 10 m82 0 q10 0 10 -10 m-92 10 h10 m62 0 h10 m43 -140 h-3"/>
   <polygon points="435 5 443 1 443 9"/>
   <polygon points="435 5 427 1 427 9"/>
</svg>
