<?xml version="1.0" encoding="UTF-8"?>
<svg xmlns="http://www.w3.org/2000/svg" width="445" height="545">
   <defs>
      <style type="text/css">
    @namespace "http://www.w3.org/2000/svg";
    .line                 {fill: none; stroke: #332900; stroke-width: 1;}
    .bold-line            {stroke: #141000; shape-rendering: crispEdges; stroke-width: 2;}
    .thin-line            {stroke: #1F1800; shape-rendering: crispEdges}
    .filled               {fill: #332900; stroke: none;}
    text.terminal         {font-family: Verdana, Sans-serif;
                            font-size: 12px;
                            fill: #141000;
                            font-weight: bold;
                          }
    text.nonterminal      {font-family: Verdana, Sans-serif;
                            font-size: 12px;
                            fill: #1A1400;
                            font-weight: normal;
                          }
    text.regexp           {font-family: Verdana, Sans-serif;
                            font-size: 12px;
                            fill: #1F1800;
                            font-weight: normal;
                          }
    rect, circle, polygon {fill: #332900; stroke: #332900;}
    rect.terminal         {fill: #FFDB4D; stroke: #332900; stroke-width: 1;}
    rect.nonterminal      {fill: #FFEC9E; stroke: #332900; stroke-width: 1;}
    rect.text             {fill: none; stroke: none;}
    polygon.regexp        {fill: #FFF4C7; stroke: #332900; stroke-width: 1;}
  </style>
   </defs>
   <polygon points="9 17 1 13 1 21"/>
   <polygon points="17 17 9 13 9 21"/>
   <a xmlns:xlink="http://www.w3.org/1999/xlink"
      xlink:href="#SCOPE"
      xlink:title="SCOPE">
      <rect x="51" y="3" width="62" height="32"/>
      <rect x="49" y="1" width="62" height="32" class="nonterminal"/>
      <text class="nonterminal" x="59" y="21">SCOPE</text>
   </a>
   <a xmlns:xlink="http://www.w3.org/1999/xlink"
      xlink:href="#MODIFIER"
      xlink:title="MODIFIER">
      <rect x="153" y="35" width="82" height="32"/>
      <rect x="151" y="33" width="82" height="32" class="nonterminal"/>
      <text class="nonterminal" x="161" y="53">MODIFIER</text>
   </a>
   <a xmlns:xlink="http://www.w3.org/1999/xlink"
      xlink:href="#Attributes"
      xlink:title="Attributes">
      <rect x="275" y="67" width="82" height="32"/>
      <rect x="273" y="65" width="82" height="32" class="nonterminal"/>
      <text class="nonterminal" x="283" y="85">Attributes</text>
   </a>
   <a xmlns:xlink="http://www.w3.org/1999/xlink"
      xlink:href="#Attributes"
      xlink:title="Attributes">
      <rect x="153" y="111" width="82" height="32"/>
      <rect x="151" y="109" width="82" height="32" class="nonterminal"/>
      <text class="nonterminal" x="161" y="129">Attributes</text>
   </a>
   <a xmlns:xlink="http://www.w3.org/1999/xlink"
      xlink:href="#MODIFIER"
      xlink:title="MODIFIER">
      <rect x="275" y="143" width="82" height="32"/>
      <rect x="273" y="141" width="82" height="32" class="nonterminal"/>
      <text class="nonterminal" x="283" y="161">MODIFIER</text>
   </a>
   <a xmlns:xlink="http://www.w3.org/1999/xlink"
      xlink:href="#MODIFIER"
      xlink:title="MODIFIER">
      <rect x="51" y="187" width="82" height="32"/>
      <rect x="49" y="185" width="82" height="32" class="nonterminal"/>
      <text class="nonterminal" x="59" y="205">MODIFIER</text>
   </a>
   <a xmlns:xlink="http://www.w3.org/1999/xlink"
      xlink:href="#SCOPE"
      xlink:title="SCOPE">
      <rect x="173" y="219" width="62" height="32"/>
      <rect x="171" y="217" width="62" height="32" class="nonterminal"/>
      <text class="nonterminal" x="181" y="237">SCOPE</text>
   </a>
   <a xmlns:xlink="http://www.w3.org/1999/xlink"
      xlink:href="#Attributes"
      xlink:title="Attributes">
      <rect x="275" y="251" width="82" height="32"/>
      <rect x="273" y="249" width="82" height="32" class="nonterminal"/>
      <text class="nonterminal" x="283" y="269">Attributes</text>
   </a>
   <a xmlns:xlink="http://www.w3.org/1999/xlink"
      xlink:href="#Attributes"
      xlink:title="Attributes">
      <rect x="173" y="295" width="82" height="32"/>
      <rect x="171" y="293" width="82" height="32" class="nonterminal"/>
      <text class="nonterminal" x="181" y="313">Attributes</text>
   </a>
   <a xmlns:xlink="http://www.w3.org/1999/xlink"
      xlink:href="#SCOPE"
      xlink:title="SCOPE">
      <rect x="295" y="327" width="62" height="32"/>
      <rect x="293" y="325" width="62" height="32" class="nonterminal"/>
      <text class="nonterminal" x="303" y="345">SCOPE</text>
   </a>
   <a xmlns:xlink="http://www.w3.org/1999/xlink"
      xlink:href="#Attributes"
      xlink:title="Attributes">
      <rect x="51" y="371" width="82" height="32"/>
      <rect x="49" y="369" width="82" height="32" class="nonterminal"/>
      <text class="nonterminal" x="59" y="389">Attributes</text>
   </a>
   <a xmlns:xlink="http://www.w3.org/1999/xlink"
      xlink:href="#SCOPE"
      xlink:title="SCOPE">
      <rect x="173" y="403" width="62" height="32"/>
      <rect x="171" y="401" width="62" height="32" class="nonterminal"/>
      <text class="nonterminal" x="181" y="421">SCOPE</text>
   </a>
   <a xmlns:xlink="http://www.w3.org/1999/xlink"
      xlink:href="#MODIFIER"
      xlink:title="MODIFIER">
      <rect x="275" y="435" width="82" height="32"/>
      <rect x="273" y="433" width="82" height="32" class="nonterminal"/>
      <text class="nonterminal" x="283" y="453">MODIFIER</text>
   </a>
   <a xmlns:xlink="http://www.w3.org/1999/xlink"
      xlink:href="#MODIFIER"
      xlink:title="MODIFIER">
      <rect x="173" y="479" width="82" height="32"/>
      <rect x="171" y="477" width="82" height="32" class="nonterminal"/>
      <text class="nonterminal" x="181" y="497">MODIFIER</text>
   </a>
   <a xmlns:xlink="http://www.w3.org/1999/xlink"
      xlink:href="#SCOPE"
      xlink:title="SCOPE">
      <rect x="295" y="511" width="62" height="32"/>
      <rect x="293" y="509" width="62" height="32" class="nonterminal"/>
      <text class="nonterminal" x="303" y="529">SCOPE</text>
   </a>
   <path class="line"
         d="m17 17 h2 m20 0 h10 m62 0 h10 m20 0 h10 m0 0 h234 m-264 0 h20 m244 0 h20 m-284 0 q10 0 10 10 m264 0 q0 -10 10 -10 m-274 10 v12 m264 0 v-12 m-264 12 q0 10 10 10 m244 0 q10 0 10 -10 m-254 10 h10 m82 0 h10 m20 0 h10 m0 0 h92 m-122 0 h20 m102 0 h20 m-142 0 q10 0 10 10 m122 0 q0 -10 10 -10 m-132 10 v12 m122 0 v-12 m-122 12 q0 10 10 10 m102 0 q10 0 10 -10 m-112 10 h10 m82 0 h10 m-234 -42 v20 m264 0 v-20 m-264 20 v56 m264 0 v-56 m-264 56 q0 10 10 10 m244 0 q10 0 10 -10 m-254 10 h10 m82 0 h10 m20 0 h10 m0 0 h92 m-122 0 h20 m102 0 h20 m-142 0 q10 0 10 10 m122 0 q0 -10 10 -10 m-132 10 v12 m122 0 v-12 m-122 12 q0 10 10 10 m102 0 q10 0 10 -10 m-112 10 h10 m82 0 h10 m-346 -140 h20 m366 0 h20 m-406 0 q10 0 10 10 m386 0 q0 -10 10 -10 m-396 10 v164 m386 0 v-164 m-386 164 q0 10 10 10 m366 0 q10 0 10 -10 m-376 10 h10 m82 0 h10 m20 0 h10 m0 0 h214 m-244 0 h20 m224 0 h20 m-264 0 q10 0 10 10 m244 0 q0 -10 10 -10 m-254 10 v12 m244 0 v-12 m-244 12 q0 10 10 10 m224 0 q10 0 10 -10 m-234 10 h10 m62 0 h10 m20 0 h10 m0 0 h92 m-122 0 h20 m102 0 h20 m-142 0 q10 0 10 10 m122 0 q0 -10 10 -10 m-132 10 v12 m122 0 v-12 m-122 12 q0 10 10 10 m102 0 q10 0 10 -10 m-112 10 h10 m82 0 h10 m-214 -42 v20 m244 0 v-20 m-244 20 v56 m244 0 v-56 m-244 56 q0 10 10 10 m224 0 q10 0 10 -10 m-234 10 h10 m82 0 h10 m20 0 h10 m0 0 h72 m-102 0 h20 m82 0 h20 m-122 0 q10 0 10 10 m102 0 q0 -10 10 -10 m-112 10 v12 m102 0 v-12 m-102 12 q0 10 10 10 m82 0 q10 0 10 -10 m-92 10 h10 m62 0 h10 m-336 -150 v20 m386 0 v-20 m-386 20 v164 m386 0 v-164 m-386 164 q0 10 10 10 m366 0 q10 0 10 -10 m-376 10 h10 m82 0 h10 m20 0 h10 m0 0 h214 m-244 0 h20 m224 0 h20 m-264 0 q10 0 10 10 m244 0 q0 -10 10 -10 m-254 10 v12 m244 0 v-12 m-244 12 q0 10 10 10 m224 0 q10 0 10 -10 m-234 10 h10 m62 0 h10 m20 0 h10 m0 0 h92 m-122 0 h20 m102 0 h20 m-142 0 q10 0 10 10 m122 0 q0 -10 10 -10 m-132 10 v12 m122 0 v-12 m-122 12 q0 10 10 10 m102 0 q10 0 10 -10 m-112 10 h10 m82 0 h10 m-214 -42 v20 m244 0 v-20 m-244 20 v56 m244 0 v-56 m-244 56 q0 10 10 10 m224 0 q10 0 10 -10 m-234 10 h10 m82 0 h10 m20 0 h10 m0 0 h72 m-102 0 h20 m82 0 h20 m-122 0 q10 0 10 10 m102 0 q0 -10 10 -10 m-112 10 v12 m102 0 v-12 m-102 12 q0 10 10 10 m82 0 q10 0 10 -10 m-92 10 h10 m62 0 h10 m63 -508 h-3"/>
   <polygon points="435 17 443 13 443 21"/>
   <polygon points="435 17 427 13 427 21"/>
</svg>
