<?xml version="1.0" encoding="UTF-8"?>
<svg xmlns="http://www.w3.org/2000/svg" width="333" height="113">
   <defs>
      <style type="text/css">
    @namespace "http://www.w3.org/2000/svg";
    .line                 {fill: none; stroke: #174B00; stroke-width: 1;}
    .bold-line            {stroke: #061400; shape-rendering: crispEdges; stroke-width: 2;}
    .thin-line            {stroke: #091F00; shape-rendering: crispEdges}
    .filled               {fill: #174B00; stroke: none;}
    text.terminal         {font-family: Verdana, Sans-serif;
                            font-size: 12px;
                            fill: #061400;
                            font-weight: bold;
                          }
    text.nonterminal      {font-family: Verdana, Sans-serif;
                            font-size: 12px;
                            fill: #081A00;
                            font-weight: normal;
                          }
    text.regexp           {font-family: Verdana, Sans-serif;
                            font-size: 12px;
                            fill: #091F00;
                            font-weight: normal;
                          }
    rect, circle, polygon {fill: #174B00; stroke: #174B00;}
    rect.terminal         {fill: #F8FFF5; stroke: #174B00; stroke-width: 1;}
    rect.nonterminal      {fill: #FBFFFA; stroke: #174B00; stroke-width: 1;}
    rect.text             {fill: none; stroke: none;}
    polygon.regexp        {fill: #FDFFFC; stroke: #174B00; stroke-width: 1;}
  </style>
   </defs>
   <polygon points="9 17 1 13 1 21"/>
   <polygon points="17 17 9 13 9 21"/>
   <rect x="71" y="35" width="40" height="32" rx="10"/>
   <rect x="69"
         y="33"
         width="40"
         height="32"
         class="terminal"
         rx="10"/>
   <text class="terminal" x="79" y="53">=&gt;</text>
   <a xmlns:xlink="http://www.w3.org/1999/xlink"
      xlink:href="#Expression"
      xlink:title="Expression">
      <rect x="131" y="35" width="90" height="32"/>
      <rect x="129" y="33" width="90" height="32" class="nonterminal"/>
      <text class="nonterminal" x="139" y="53">Expression</text>
   </a>
   <rect x="261" y="3" width="24" height="32" rx="10"/>
   <rect x="259"
         y="1"
         width="24"
         height="32"
         class="terminal"
         rx="10"/>
   <text class="terminal" x="269" y="21">;</text>
   <a xmlns:xlink="http://www.w3.org/1999/xlink"
      xlink:href="#Block"
      xlink:title="Block">
      <rect x="51" y="79" width="52" height="32"/>
      <rect x="49" y="77" width="52" height="32" class="nonterminal"/>
      <text class="nonterminal" x="59" y="97">Block</text>
   </a>
   <path class="line"
         d="m17 17 h2 m40 0 h10 m0 0 h160 m-190 0 h20 m170 0 h20 m-210 0 q10 0 10 10 m190 0 q0 -10 10 -10 m-200 10 v12 m190 0 v-12 m-190 12 q0 10 10 10 m170 0 q10 0 10 -10 m-180 10 h10 m40 0 h10 m0 0 h10 m90 0 h10 m20 -32 h10 m24 0 h10 m-274 0 h20 m254 0 h20 m-294 0 q10 0 10 10 m274 0 q0 -10 10 -10 m-284 10 v56 m274 0 v-56 m-274 56 q0 10 10 10 m254 0 q10 0 10 -10 m-264 10 h10 m52 0 h10 m0 0 h182 m23 -76 h-3"/>
   <polygon points="323 17 331 13 331 21"/>
   <polygon points="323 17 315 13 315 21"/>
</svg>
