<?xml version="1.0" encoding="UTF-8"?>
<svg xmlns="http://www.w3.org/2000/svg" width="173" height="125">
   <defs>
      <style type="text/css">
    @namespace "http://www.w3.org/2000/svg";
    .line                 {fill: none; stroke: #00174B; stroke-width: 1;}
    .bold-line            {stroke: #000614; shape-rendering: crispEdges; stroke-width: 2;}
    .thin-line            {stroke: #00091F; shape-rendering: crispEdges}
    .filled               {fill: #00174B; stroke: none;}
    text.terminal         {font-family: Verdana, Sans-serif;
                            font-size: 12px;
                            fill: #000614;
                            font-weight: bold;
                          }
    text.nonterminal      {font-family: Verdana, Sans-serif;
                            font-size: 12px;
                            fill: #00081A;
                            font-weight: normal;
                          }
    text.regexp           {font-family: Verdana, Sans-serif;
                            font-size: 12px;
                            fill: #00091F;
                            font-weight: normal;
                          }
    rect, circle, polygon {fill: #00174B; stroke: #00174B;}
    rect.terminal         {fill: #F5F8FF; stroke: #00174B; stroke-width: 1;}
    rect.nonterminal      {fill: #FAFBFF; stroke: #00174B; stroke-width: 1;}
    rect.text             {fill: none; stroke: none;}
    polygon.regexp        {fill: #FCFDFF; stroke: #00174B; stroke-width: 1;}
  </style>
   </defs>
   <polygon points="9 17 1 13 1 21"/>
   <polygon points="17 17 9 13 9 21"/>
   <rect x="51" y="3" width="50" height="32" rx="10"/>
   <rect x="49"
         y="1"
         width="50"
         height="32"
         class="terminal"
         rx="10"/>
   <text class="terminal" x="59" y="21">final</text>
   <rect x="51" y="47" width="56" height="32" rx="10"/>
   <rect x="49"
         y="45"
         width="56"
         height="32"
         class="terminal"
         rx="10"/>
   <text class="terminal" x="59" y="65">static</text>
   <rect x="51" y="91" width="74" height="32" rx="10"/>
   <rect x="49"
         y="89"
         width="74"
         height="32"
         class="terminal"
         rx="10"/>
   <text class="terminal" x="59" y="109">abstract</text>
   <path class="line"
         d="m17 17 h2 m20 0 h10 m50 0 h10 m0 0 h24 m-114 0 h20 m94 0 h20 m-134 0 q10 0 10 10 m114 0 q0 -10 10 -10 m-124 10 v24 m114 0 v-24 m-114 24 q0 10 10 10 m94 0 q10 0 10 -10 m-104 10 h10 m56 0 h10 m0 0 h18 m-104 -10 v20 m114 0 v-20 m-114 20 v24 m114 0 v-24 m-114 24 q0 10 10 10 m94 0 q10 0 10 -10 m-104 10 h10 m74 0 h10 m23 -88 h-3"/>
   <polygon points="163 17 171 13 171 21"/>
   <polygon points="163 17 155 13 155 21"/>
</svg>
