<?xml version="1.0" encoding="UTF-8"?>
<svg xmlns="http://www.w3.org/2000/svg" width="563" height="37">
   <defs>
      <style type="text/css">
    @namespace "http://www.w3.org/2000/svg";
    .line                 {fill: none; stroke: #004900; stroke-width: 1;}
    .bold-line            {stroke: #001400; shape-rendering: crispEdges; stroke-width: 2;}
    .thin-line            {stroke: #001F00; shape-rendering: crispEdges}
    .filled               {fill: #004900; stroke: none;}
    text.terminal         {font-family: Verdana, Sans-serif;
                            font-size: 12px;
                            fill: #001400;
                            font-weight: bold;
                          }
    text.nonterminal      {font-family: Verdana, Sans-serif;
                            font-size: 12px;
                            fill: #001A00;
                            font-weight: normal;
                          }
    text.regexp           {font-family: Verdana, Sans-serif;
                            font-size: 12px;
                            fill: #001F00;
                            font-weight: normal;
                          }
    rect, circle, polygon {fill: #004900; stroke: #004900;}
    rect.terminal         {fill: #E5FFE5; stroke: #004900; stroke-width: 1;}
    rect.nonterminal      {fill: #F1FFF1; stroke: #004900; stroke-width: 1;}
    rect.text             {fill: none; stroke: none;}
    polygon.regexp        {fill: #F7FFF7; stroke: #004900; stroke-width: 1;}
  </style>
   </defs>
   <polygon points="9 17 1 13 1 21"/>
   <polygon points="17 17 9 13 9 21"/>
   <rect x="31" y="3" width="78" height="32" rx="10"/>
   <rect x="29"
         y="1"
         width="78"
         height="32"
         class="terminal"
         rx="10"/>
   <text class="terminal" x="39" y="21">operator</text>
   <a xmlns:xlink="http://www.w3.org/1999/xlink"
      xlink:href="#OverloadableOperator"
      xlink:title="OverloadableOperator">
      <rect x="129" y="3" width="160" height="32"/>
      <rect x="127" y="1" width="160" height="32" class="nonterminal"/>
      <text class="nonterminal" x="137" y="21">OverloadableOperator</text>
   </a>
   <a xmlns:xlink="http://www.w3.org/1999/xlink"
      xlink:href="#ParameterList"
      xlink:title="ParameterList">
      <rect x="309" y="3" width="108" height="32"/>
      <rect x="307" y="1" width="108" height="32" class="nonterminal"/>
      <text class="nonterminal" x="317" y="21">ParameterList</text>
   </a>
   <a xmlns:xlink="http://www.w3.org/1999/xlink"
      xlink:href="#MethodBody"
      xlink:title="MethodBody">
      <rect x="437" y="3" width="98" height="32"/>
      <rect x="435" y="1" width="98" height="32" class="nonterminal"/>
      <text class="nonterminal" x="445" y="21">MethodBody</text>
   </a>
   <path class="line"
         d="m17 17 h2 m0 0 h10 m78 0 h10 m0 0 h10 m160 0 h10 m0 0 h10 m108 0 h10 m0 0 h10 m98 0 h10 m3 0 h-3"/>
   <polygon points="553 17 561 13 561 21"/>
   <polygon points="553 17 545 13 545 21"/>
</svg>
