<?xml version="1.0" encoding="UTF-8"?>
<svg xmlns="http://www.w3.org/2000/svg" width="361" height="113">
   <defs>
      <style type="text/css">
    @namespace "http://www.w3.org/2000/svg";
    .line                 {fill: none; stroke: #332900; stroke-width: 1;}
    .bold-line            {stroke: #141000; shape-rendering: crispEdges; stroke-width: 2;}
    .thin-line            {stroke: #1F1800; shape-rendering: crispEdges}
    .filled               {fill: #332900; stroke: none;}
    text.terminal         {font-family: Verdana, Sans-serif;
                            font-size: 12px;
                            fill: #141000;
                            font-weight: bold;
                          }
    text.nonterminal      {font-family: Verdana, Sans-serif;
                            font-size: 12px;
                            fill: #1A1400;
                            font-weight: normal;
                          }
    text.regexp           {font-family: Verdana, Sans-serif;
                            font-size: 12px;
                            fill: #1F1800;
                            font-weight: normal;
                          }
    rect, circle, polygon {fill: #332900; stroke: #332900;}
    rect.terminal         {fill: #FFDB4D; stroke: #332900; stroke-width: 1;}
    rect.nonterminal      {fill: #FFEC9E; stroke: #332900; stroke-width: 1;}
    rect.text             {fill: none; stroke: none;}
    polygon.regexp        {fill: #FFF4C7; stroke: #332900; stroke-width: 1;}
  </style>
   </defs>
   <polygon points="9 17 1 13 1 21"/>
   <polygon points="17 17 9 13 9 21"/>
   <a xmlns:xlink="http://www.w3.org/1999/xlink"
      xlink:href="#ParameterPrefix"
      xlink:title="ParameterPrefix">
      <rect x="51" y="3" width="122" height="32"/>
      <rect x="49" y="1" width="122" height="32" class="nonterminal"/>
      <text class="nonterminal" x="59" y="21">ParameterPrefix</text>
   </a>
   <a xmlns:xlink="http://www.w3.org/1999/xlink"
      xlink:href="#IDENTIFIER"
      xlink:title="IDENTIFIER">
      <rect x="193" y="3" width="92" height="32"/>
      <rect x="191" y="1" width="92" height="32" class="nonterminal"/>
      <text class="nonterminal" x="201" y="21">IDENTIFIER</text>
   </a>
   <a xmlns:xlink="http://www.w3.org/1999/xlink"
      xlink:href="#IDENTIFIER"
      xlink:title="IDENTIFIER">
      <rect x="51" y="47" width="92" height="32"/>
      <rect x="49" y="45" width="92" height="32" class="nonterminal"/>
      <text class="nonterminal" x="59" y="65">IDENTIFIER</text>
   </a>
   <rect x="183" y="79" width="30" height="32" rx="10"/>
   <rect x="181"
         y="77"
         width="30"
         height="32"
         class="terminal"
         rx="10"/>
   <text class="terminal" x="191" y="97">=</text>
   <a xmlns:xlink="http://www.w3.org/1999/xlink"
      xlink:href="#Literal"
      xlink:title="Literal">
      <rect x="233" y="79" width="60" height="32"/>
      <rect x="231" y="77" width="60" height="32" class="nonterminal"/>
      <text class="nonterminal" x="241" y="97">Literal</text>
   </a>
   <path class="line"
         d="m17 17 h2 m20 0 h10 m122 0 h10 m0 0 h10 m92 0 h10 m0 0 h28 m-302 0 h20 m282 0 h20 m-322 0 q10 0 10 10 m302 0 q0 -10 10 -10 m-312 10 v24 m302 0 v-24 m-302 24 q0 10 10 10 m282 0 q10 0 10 -10 m-292 10 h10 m92 0 h10 m20 0 h10 m0 0 h120 m-150 0 h20 m130 0 h20 m-170 0 q10 0 10 10 m150 0 q0 -10 10 -10 m-160 10 v12 m150 0 v-12 m-150 12 q0 10 10 10 m130 0 q10 0 10 -10 m-140 10 h10 m30 0 h10 m0 0 h10 m60 0 h10 m43 -76 h-3"/>
   <polygon points="351 17 359 13 359 21"/>
   <polygon points="351 17 343 13 343 21"/>
</svg>
