<?xml version="1.0" encoding="UTF-8"?>
<svg xmlns="http://www.w3.org/2000/svg" width="503" height="277">
   <defs>
      <style type="text/css">
    @namespace "http://www.w3.org/2000/svg";
    .line                 {fill: none; stroke: #174B00; stroke-width: 1;}
    .bold-line            {stroke: #061400; shape-rendering: crispEdges; stroke-width: 2;}
    .thin-line            {stroke: #091F00; shape-rendering: crispEdges}
    .filled               {fill: #174B00; stroke: none;}
    text.terminal         {font-family: Verdana, Sans-serif;
                            font-size: 12px;
                            fill: #061400;
                            font-weight: bold;
                          }
    text.nonterminal      {font-family: Verdana, Sans-serif;
                            font-size: 12px;
                            fill: #081A00;
                            font-weight: normal;
                          }
    text.regexp           {font-family: Verdana, Sans-serif;
                            font-size: 12px;
                            fill: #091F00;
                            font-weight: normal;
                          }
    rect, circle, polygon {fill: #174B00; stroke: #174B00;}
    rect.terminal         {fill: #F8FFF5; stroke: #174B00; stroke-width: 1;}
    rect.nonterminal      {fill: #FBFFFA; stroke: #174B00; stroke-width: 1;}
    rect.text             {fill: none; stroke: none;}
    polygon.regexp        {fill: #FDFFFC; stroke: #174B00; stroke-width: 1;}
  </style>
   </defs>
   <polygon points="9 17 1 13 1 21"/>
   <polygon points="17 17 9 13 9 21"/>
   <a xmlns:xlink="http://www.w3.org/1999/xlink"
      xlink:href="#Attributes"
      xlink:title="Attributes">
      <rect x="71" y="3" width="82" height="32"/>
      <rect x="69" y="1" width="82" height="32" class="nonterminal"/>
      <text class="nonterminal" x="79" y="21">Attributes</text>
   </a>
   <rect x="193" y="35" width="38" height="32" rx="10"/>
   <rect x="191"
         y="33"
         width="38"
         height="32"
         class="terminal"
         rx="10"/>
   <text class="terminal" x="201" y="53">ref</text>
   <rect x="193" y="79" width="70" height="32" rx="10"/>
   <rect x="191"
         y="77"
         width="70"
         height="32"
         class="terminal"
         rx="10"/>
   <text class="terminal" x="201" y="97">params</text>
   <rect x="91" y="123" width="38" height="32" rx="10"/>
   <rect x="89"
         y="121"
         width="38"
         height="32"
         class="terminal"
         rx="10"/>
   <text class="terminal" x="99" y="141">ref</text>
   <rect x="91" y="167" width="70" height="32" rx="10"/>
   <rect x="89"
         y="165"
         width="70"
         height="32"
         class="terminal"
         rx="10"/>
   <text class="terminal" x="99" y="185">params</text>
   <a xmlns:xlink="http://www.w3.org/1999/xlink"
      xlink:href="#Attributes"
      xlink:title="Attributes">
      <rect x="221" y="155" width="82" height="32"/>
      <rect x="219" y="153" width="82" height="32" class="nonterminal"/>
      <text class="nonterminal" x="229" y="173">Attributes</text>
   </a>
   <a xmlns:xlink="http://www.w3.org/1999/xlink"
      xlink:href="#IDENTIFIER"
      xlink:title="IDENTIFIER">
      <rect x="363" y="3" width="92" height="32"/>
      <rect x="361" y="1" width="92" height="32" class="nonterminal"/>
      <text class="nonterminal" x="371" y="21">IDENTIFIER</text>
   </a>
   <a xmlns:xlink="http://www.w3.org/1999/xlink"
      xlink:href="#Attributes"
      xlink:title="Attributes">
      <rect x="71" y="243" width="82" height="32"/>
      <rect x="69" y="241" width="82" height="32" class="nonterminal"/>
      <text class="nonterminal" x="79" y="261">Attributes</text>
   </a>
   <a xmlns:xlink="http://www.w3.org/1999/xlink"
      xlink:href="#IDENTIFIER"
      xlink:title="IDENTIFIER">
      <rect x="193" y="211" width="92" height="32"/>
      <rect x="191" y="209" width="92" height="32" class="nonterminal"/>
      <text class="nonterminal" x="201" y="229">IDENTIFIER</text>
   </a>
   <rect x="325" y="243" width="30" height="32" rx="10"/>
   <rect x="323"
         y="241"
         width="30"
         height="32"
         class="terminal"
         rx="10"/>
   <text class="terminal" x="333" y="261">=</text>
   <a xmlns:xlink="http://www.w3.org/1999/xlink"
      xlink:href="#Literal"
      xlink:title="Literal">
      <rect x="375" y="243" width="60" height="32"/>
      <rect x="373" y="241" width="60" height="32" class="nonterminal"/>
      <text class="nonterminal" x="383" y="261">Literal</text>
   </a>
   <path class="line"
         d="m17 17 h2 m40 0 h10 m82 0 h10 m20 0 h10 m0 0 h80 m-110 0 h20 m90 0 h20 m-130 0 q10 0 10 10 m110 0 q0 -10 10 -10 m-120 10 v12 m110 0 v-12 m-110 12 q0 10 10 10 m90 0 q10 0 10 -10 m-100 10 h10 m38 0 h10 m0 0 h32 m-100 -10 v20 m110 0 v-20 m-110 20 v24 m110 0 v-24 m-110 24 q0 10 10 10 m90 0 q10 0 10 -10 m-100 10 h10 m70 0 h10 m20 -76 h40 m-292 0 h20 m272 0 h20 m-312 0 q10 0 10 10 m292 0 q0 -10 10 -10 m-302 10 v100 m292 0 v-100 m-292 100 q0 10 10 10 m272 0 q10 0 10 -10 m-262 10 h10 m38 0 h10 m0 0 h32 m-110 0 h20 m90 0 h20 m-130 0 q10 0 10 10 m110 0 q0 -10 10 -10 m-120 10 v24 m110 0 v-24 m-110 24 q0 10 10 10 m90 0 q10 0 10 -10 m-100 10 h10 m70 0 h10 m40 -44 h10 m0 0 h92 m-122 0 h20 m102 0 h20 m-142 0 q10 0 10 10 m122 0 q0 -10 10 -10 m-132 10 v12 m122 0 v-12 m-122 12 q0 10 10 10 m102 0 q10 0 10 -10 m-112 10 h10 m82 0 h10 m40 -152 h10 m92 0 h10 m-444 0 h20 m424 0 h20 m-464 0 q10 0 10 10 m444 0 q0 -10 10 -10 m-454 10 v188 m444 0 v-188 m-444 188 q0 10 10 10 m424 0 q10 0 10 -10 m-414 10 h10 m0 0 h92 m-122 0 h20 m102 0 h20 m-142 0 q10 0 10 10 m122 0 q0 -10 10 -10 m-132 10 v12 m122 0 v-12 m-122 12 q0 10 10 10 m102 0 q10 0 10 -10 m-112 10 h10 m82 0 h10 m20 -32 h10 m92 0 h10 m20 0 h10 m0 0 h120 m-150 0 h20 m130 0 h20 m-170 0 q10 0 10 10 m150 0 q0 -10 10 -10 m-160 10 v12 m150 0 v-12 m-150 12 q0 10 10 10 m130 0 q10 0 10 -10 m-140 10 h10 m30 0 h10 m0 0 h10 m60 0 h10 m43 -240 h-3"/>
   <polygon points="493 17 501 13 501 21"/>
   <polygon points="493 17 485 13 485 21"/>
</svg>
