<?xml version="1.0" encoding="UTF-8"?>
<svg xmlns="http://www.w3.org/2000/svg" width="587" height="277">
   <defs>
      <style type="text/css">
    @namespace "http://www.w3.org/2000/svg";
    .line                 {fill: none; stroke: #174B00; stroke-width: 1;}
    .bold-line            {stroke: #061400; shape-rendering: crispEdges; stroke-width: 2;}
    .thin-line            {stroke: #091F00; shape-rendering: crispEdges}
    .filled               {fill: #174B00; stroke: none;}
    text.terminal         {font-family: Verdana, Sans-serif;
                            font-size: 12px;
                            fill: #061400;
                            font-weight: bold;
                          }
    text.nonterminal      {font-family: Verdana, Sans-serif;
                            font-size: 12px;
                            fill: #081A00;
                            font-weight: normal;
                          }
    text.regexp           {font-family: Verdana, Sans-serif;
                            font-size: 12px;
                            fill: #091F00;
                            font-weight: normal;
                          }
    rect, circle, polygon {fill: #174B00; stroke: #174B00;}
    rect.terminal         {fill: #F8FFF5; stroke: #174B00; stroke-width: 1;}
    rect.nonterminal      {fill: #FBFFFA; stroke: #174B00; stroke-width: 1;}
    rect.text             {fill: none; stroke: none;}
    polygon.regexp        {fill: #FDFFFC; stroke: #174B00; stroke-width: 1;}
  </style>
   </defs>
   <polygon points="9 17 1 13 1 21"/>
   <polygon points="17 17 9 13 9 21"/>
   <a xmlns:xlink="http://www.w3.org/1999/xlink"
      xlink:href="#Attributes"
      xlink:title="Attributes">
      <rect x="71" y="3" width="82" height="32"/>
      <rect x="69" y="1" width="82" height="32" class="nonterminal"/>
      <text class="nonterminal" x="79" y="21">Attributes</text>
   </a>
   <rect x="193" y="35" width="30" height="32" rx="10"/>
   <rect x="191"
         y="33"
         width="30"
         height="32"
         class="terminal"
         rx="10"/>
   <text class="terminal" x="201" y="53">&amp;</text>
   <rect x="193" y="79" width="28" height="32" rx="10"/>
   <rect x="191"
         y="77"
         width="28"
         height="32"
         class="terminal"
         rx="10"/>
   <text class="terminal" x="201" y="97">..</text>
   <rect x="91" y="123" width="30" height="32" rx="10"/>
   <rect x="89"
         y="121"
         width="30"
         height="32"
         class="terminal"
         rx="10"/>
   <text class="terminal" x="99" y="141">&amp;</text>
   <rect x="91" y="167" width="28" height="32" rx="10"/>
   <rect x="89"
         y="165"
         width="28"
         height="32"
         class="terminal"
         rx="10"/>
   <text class="terminal" x="99" y="185">..</text>
   <a xmlns:xlink="http://www.w3.org/1999/xlink"
      xlink:href="#Attributes"
      xlink:title="Attributes">
      <rect x="181" y="155" width="82" height="32"/>
      <rect x="179" y="153" width="82" height="32" class="nonterminal"/>
      <text class="nonterminal" x="189" y="173">Attributes</text>
   </a>
   <a xmlns:xlink="http://www.w3.org/1999/xlink"
      xlink:href="#IDENTIFIER"
      xlink:title="IDENTIFIER">
      <rect x="323" y="3" width="92" height="32"/>
      <rect x="321" y="1" width="92" height="32" class="nonterminal"/>
      <text class="nonterminal" x="331" y="21">IDENTIFIER</text>
   </a>
   <rect x="455" y="35" width="24" height="32" rx="10"/>
   <rect x="453"
         y="33"
         width="24"
         height="32"
         class="terminal"
         rx="10"/>
   <text class="terminal" x="463" y="53">!</text>
   <a xmlns:xlink="http://www.w3.org/1999/xlink"
      xlink:href="#Attributes"
      xlink:title="Attributes">
      <rect x="71" y="243" width="82" height="32"/>
      <rect x="69" y="241" width="82" height="32" class="nonterminal"/>
      <text class="nonterminal" x="79" y="261">Attributes</text>
   </a>
   <a xmlns:xlink="http://www.w3.org/1999/xlink"
      xlink:href="#IDENTIFIER"
      xlink:title="IDENTIFIER">
      <rect x="193" y="211" width="92" height="32"/>
      <rect x="191" y="209" width="92" height="32" class="nonterminal"/>
      <text class="nonterminal" x="201" y="229">IDENTIFIER</text>
   </a>
   <rect x="325" y="243" width="24" height="32" rx="10"/>
   <rect x="323"
         y="241"
         width="24"
         height="32"
         class="terminal"
         rx="10"/>
   <text class="terminal" x="333" y="261">!</text>
   <rect x="409" y="243" width="30" height="32" rx="10"/>
   <rect x="407"
         y="241"
         width="30"
         height="32"
         class="terminal"
         rx="10"/>
   <text class="terminal" x="417" y="261">=</text>
   <a xmlns:xlink="http://www.w3.org/1999/xlink"
      xlink:href="#Literal"
      xlink:title="Literal">
      <rect x="459" y="243" width="60" height="32"/>
      <rect x="457" y="241" width="60" height="32" class="nonterminal"/>
      <text class="nonterminal" x="467" y="261">Literal</text>
   </a>
   <path class="line"
         d="m17 17 h2 m40 0 h10 m82 0 h10 m20 0 h10 m0 0 h40 m-70 0 h20 m50 0 h20 m-90 0 q10 0 10 10 m70 0 q0 -10 10 -10 m-80 10 v12 m70 0 v-12 m-70 12 q0 10 10 10 m50 0 q10 0 10 -10 m-60 10 h10 m30 0 h10 m-60 -10 v20 m70 0 v-20 m-70 20 v24 m70 0 v-24 m-70 24 q0 10 10 10 m50 0 q10 0 10 -10 m-60 10 h10 m28 0 h10 m0 0 h2 m20 -76 h40 m-252 0 h20 m232 0 h20 m-272 0 q10 0 10 10 m252 0 q0 -10 10 -10 m-262 10 v100 m252 0 v-100 m-252 100 q0 10 10 10 m232 0 q10 0 10 -10 m-222 10 h10 m30 0 h10 m-70 0 h20 m50 0 h20 m-90 0 q10 0 10 10 m70 0 q0 -10 10 -10 m-80 10 v24 m70 0 v-24 m-70 24 q0 10 10 10 m50 0 q10 0 10 -10 m-60 10 h10 m28 0 h10 m0 0 h2 m40 -44 h10 m0 0 h92 m-122 0 h20 m102 0 h20 m-142 0 q10 0 10 10 m122 0 q0 -10 10 -10 m-132 10 v12 m122 0 v-12 m-122 12 q0 10 10 10 m102 0 q10 0 10 -10 m-112 10 h10 m82 0 h10 m40 -152 h10 m92 0 h10 m20 0 h10 m0 0 h34 m-64 0 h20 m44 0 h20 m-84 0 q10 0 10 10 m64 0 q0 -10 10 -10 m-74 10 v12 m64 0 v-12 m-64 12 q0 10 10 10 m44 0 q10 0 10 -10 m-54 10 h10 m24 0 h10 m20 -32 h40 m-528 0 h20 m508 0 h20 m-548 0 q10 0 10 10 m528 0 q0 -10 10 -10 m-538 10 v188 m528 0 v-188 m-528 188 q0 10 10 10 m508 0 q10 0 10 -10 m-498 10 h10 m0 0 h92 m-122 0 h20 m102 0 h20 m-142 0 q10 0 10 10 m122 0 q0 -10 10 -10 m-132 10 v12 m122 0 v-12 m-122 12 q0 10 10 10 m102 0 q10 0 10 -10 m-112 10 h10 m82 0 h10 m20 -32 h10 m92 0 h10 m20 0 h10 m0 0 h34 m-64 0 h20 m44 0 h20 m-84 0 q10 0 10 10 m64 0 q0 -10 10 -10 m-74 10 v12 m64 0 v-12 m-64 12 q0 10 10 10 m44 0 q10 0 10 -10 m-54 10 h10 m24 0 h10 m40 -32 h10 m0 0 h120 m-150 0 h20 m130 0 h20 m-170 0 q10 0 10 10 m150 0 q0 -10 10 -10 m-160 10 v12 m150 0 v-12 m-150 12 q0 10 10 10 m130 0 q10 0 10 -10 m-140 10 h10 m30 0 h10 m0 0 h10 m60 0 h10 m43 -240 h-3"/>
   <polygon points="577 17 585 13 585 21"/>
   <polygon points="577 17 569 13 569 21"/>
</svg>
