<?xml version="1.0" encoding="UTF-8"?>
<svg xmlns="http://www.w3.org/2000/svg" width="477" height="707">
   <defs>
      <style type="text/css">
    @namespace "http://www.w3.org/2000/svg";
    .line                 {fill: none; stroke: #000045; stroke-width: 1;}
    .bold-line            {stroke: #000014; shape-rendering: crispEdges; stroke-width: 2;}
    .thin-line            {stroke: #00001F; shape-rendering: crispEdges}
    .filled               {fill: #000045; stroke: none;}
    text.terminal         {font-family: Verdana, Sans-serif;
                            font-size: 12px;
                            fill: #000014;
                            font-weight: bold;
                          }
    text.nonterminal      {font-family: Verdana, Sans-serif;
                            font-size: 12px;
                            fill: #00001A;
                            font-weight: normal;
                          }
    text.regexp           {font-family: Verdana, Sans-serif;
                            font-size: 12px;
                            fill: #00001F;
                            font-weight: normal;
                          }
    rect, circle, polygon {fill: #000045; stroke: #000045;}
    rect.terminal         {fill: #CCCCFF; stroke: #000045; stroke-width: 1;}
    rect.nonterminal      {fill: #E3E3FF; stroke: #000045; stroke-width: 1;}
    rect.text             {fill: none; stroke: none;}
    polygon.regexp        {fill: #EFEFFF; stroke: #000045; stroke-width: 1;}
  </style>
   </defs>
   <polygon points="9 17 1 13 1 21"/>
   <polygon points="17 17 9 13 9 21"/>
   <rect x="51" y="3" width="28" height="32" rx="10"/>
   <rect x="49"
         y="1"
         width="28"
         height="32"
         class="terminal"
         rx="10"/>
   <text class="terminal" x="59" y="21">_</text>
   <rect x="51" y="47" width="44" height="32" rx="10"/>
   <rect x="49"
         y="45"
         width="44"
         height="32"
         class="terminal"
         rx="10"/>
   <text class="terminal" x="59" y="65">null</text>
   <rect x="71" y="123" width="30" height="32" rx="10"/>
   <rect x="69"
         y="121"
         width="30"
         height="32"
         class="terminal"
         rx="10"/>
   <text class="terminal" x="79" y="141">&gt;</text>
   <rect x="71" y="167" width="30" height="32" rx="10"/>
   <rect x="69"
         y="165"
         width="30"
         height="32"
         class="terminal"
         rx="10"/>
   <text class="terminal" x="79" y="185">&lt;</text>
   <rect x="71" y="211" width="40" height="32" rx="10"/>
   <rect x="69"
         y="209"
         width="40"
         height="32"
         class="terminal"
         rx="10"/>
   <text class="terminal" x="79" y="229">&gt;=</text>
   <rect x="71" y="255" width="40" height="32" rx="10"/>
   <rect x="69"
         y="253"
         width="40"
         height="32"
         class="terminal"
         rx="10"/>
   <text class="terminal" x="79" y="273">&lt;=</text>
   <a xmlns:xlink="http://www.w3.org/1999/xlink"
      xlink:href="#ValuePattern"
      xlink:title="ValuePattern">
      <rect x="151" y="91" width="102" height="32"/>
      <rect x="149" y="89" width="102" height="32" class="nonterminal"/>
      <text class="nonterminal" x="159" y="109">ValuePattern</text>
   </a>
   <rect x="51" y="299" width="76" height="32" rx="10"/>
   <rect x="49"
         y="297"
         width="76"
         height="32"
         class="terminal"
         rx="10"/>
   <text class="terminal" x="59" y="317">matches</text>
   <a xmlns:xlink="http://www.w3.org/1999/xlink"
      xlink:href="#STRING"
      xlink:title="STRING">
      <rect x="147" y="299" width="66" height="32"/>
      <rect x="145" y="297" width="66" height="32" class="nonterminal"/>
      <text class="nonterminal" x="155" y="317">STRING</text>
   </a>
   <a xmlns:xlink="http://www.w3.org/1999/xlink"
      xlink:href="#TYPE_NAME"
      xlink:title="TYPE_NAME">
      <rect x="51" y="387" width="94" height="32"/>
      <rect x="49" y="385" width="94" height="32" class="nonterminal"/>
      <text class="nonterminal" x="59" y="405">TYPE_NAME</text>
   </a>
   <rect x="185" y="387" width="26" height="32" rx="10"/>
   <rect x="183"
         y="385"
         width="26"
         height="32"
         class="terminal"
         rx="10"/>
   <text class="terminal" x="193" y="405">(</text>
   <a xmlns:xlink="http://www.w3.org/1999/xlink"
      xlink:href="#IDENTIFIER"
      xlink:title="IDENTIFIER">
      <rect x="251" y="387" width="92" height="32"/>
      <rect x="249" y="385" width="92" height="32" class="nonterminal"/>
      <text class="nonterminal" x="259" y="405">IDENTIFIER</text>
   </a>
   <rect x="251" y="343" width="24" height="32" rx="10"/>
   <rect x="249"
         y="341"
         width="24"
         height="32"
         class="terminal"
         rx="10"/>
   <text class="terminal" x="259" y="361">,</text>
   <rect x="383" y="387" width="26" height="32" rx="10"/>
   <rect x="381"
         y="385"
         width="26"
         height="32"
         class="terminal"
         rx="10"/>
   <text class="terminal" x="391" y="405">)</text>
   <a xmlns:xlink="http://www.w3.org/1999/xlink"
      xlink:href="#ObjectPattern"
      xlink:title="ObjectPattern">
      <rect x="185" y="431" width="108" height="32"/>
      <rect x="183" y="429" width="108" height="32" class="nonterminal"/>
      <text class="nonterminal" x="193" y="449">ObjectPattern</text>
   </a>
   <a xmlns:xlink="http://www.w3.org/1999/xlink"
      xlink:href="#ObjectPattern"
      xlink:title="ObjectPattern">
      <rect x="51" y="497" width="108" height="32"/>
      <rect x="49" y="495" width="108" height="32" class="nonterminal"/>
      <text class="nonterminal" x="59" y="515">ObjectPattern</text>
   </a>
   <a xmlns:xlink="http://www.w3.org/1999/xlink"
      xlink:href="#NegativePattern"
      xlink:title="NegativePattern">
      <rect x="51" y="541" width="124" height="32"/>
      <rect x="49" y="539" width="124" height="32" class="nonterminal"/>
      <text class="nonterminal" x="59" y="559">NegativePattern</text>
   </a>
   <a xmlns:xlink="http://www.w3.org/1999/xlink"
      xlink:href="#LogicalPattern"
      xlink:title="LogicalPattern">
      <rect x="51" y="585" width="110" height="32"/>
      <rect x="49" y="583" width="110" height="32" class="nonterminal"/>
      <text class="nonterminal" x="59" y="603">LogicalPattern</text>
   </a>
   <a xmlns:xlink="http://www.w3.org/1999/xlink"
      xlink:href="#GroupingPattern"
      xlink:title="GroupingPattern">
      <rect x="51" y="629" width="124" height="32"/>
      <rect x="49" y="627" width="124" height="32" class="nonterminal"/>
      <text class="nonterminal" x="59" y="647">GroupingPattern</text>
   </a>
   <a xmlns:xlink="http://www.w3.org/1999/xlink"
      xlink:href="#MUTABLE_STRING"
      xlink:title="MUTABLE_STRING">
      <rect x="51" y="673" width="132" height="32"/>
      <rect x="49" y="671" width="132" height="32" class="nonterminal"/>
      <text class="nonterminal" x="59" y="691">MUTABLE_STRING</text>
   </a>
   <path class="line"
         d="m17 17 h2 m20 0 h10 m28 0 h10 m0 0 h350 m-418 0 h20 m398 0 h20 m-438 0 q10 0 10 10 m418 0 q0 -10 10 -10 m-428 10 v24 m418 0 v-24 m-418 24 q0 10 10 10 m398 0 q10 0 10 -10 m-408 10 h10 m44 0 h10 m0 0 h334 m-408 -10 v20 m418 0 v-20 m-418 20 v24 m418 0 v-24 m-418 24 q0 10 10 10 m398 0 q10 0 10 -10 m-388 10 h10 m0 0 h50 m-80 0 h20 m60 0 h20 m-100 0 q10 0 10 10 m80 0 q0 -10 10 -10 m-90 10 v12 m80 0 v-12 m-80 12 q0 10 10 10 m60 0 q10 0 10 -10 m-70 10 h10 m30 0 h10 m0 0 h10 m-70 -10 v20 m80 0 v-20 m-80 20 v24 m80 0 v-24 m-80 24 q0 10 10 10 m60 0 q10 0 10 -10 m-70 10 h10 m30 0 h10 m0 0 h10 m-70 -10 v20 m80 0 v-20 m-80 20 v24 m80 0 v-24 m-80 24 q0 10 10 10 m60 0 q10 0 10 -10 m-70 10 h10 m40 0 h10 m-70 -10 v20 m80 0 v-20 m-80 20 v24 m80 0 v-24 m-80 24 q0 10 10 10 m60 0 q10 0 10 -10 m-70 10 h10 m40 0 h10 m20 -164 h10 m102 0 h10 m0 0 h176 m-408 -10 v20 m418 0 v-20 m-418 20 v188 m418 0 v-188 m-418 188 q0 10 10 10 m398 0 q10 0 10 -10 m-408 10 h10 m76 0 h10 m0 0 h10 m66 0 h10 m0 0 h216 m-408 -10 v20 m418 0 v-20 m-418 20 v68 m418 0 v-68 m-418 68 q0 10 10 10 m398 0 q10 0 10 -10 m-408 10 h10 m94 0 h10 m20 0 h10 m26 0 h10 m20 0 h10 m92 0 h10 m-132 0 l20 0 m-1 0 q-9 0 -9 -10 l0 -24 q0 -10 10 -10 m112 44 l20 0 m-20 0 q10 0 10 -10 l0 -24 q0 -10 -10 -10 m-112 0 h10 m24 0 h10 m0 0 h68 m20 44 h10 m26 0 h10 m-264 0 h20 m244 0 h20 m-284 0 q10 0 10 10 m264 0 q0 -10 10 -10 m-274 10 v24 m264 0 v-24 m-264 24 q0 10 10 10 m244 0 q10 0 10 -10 m-254 10 h10 m108 0 h10 m0 0 h116 m-254 -10 v20 m264 0 v-20 m-264 20 v14 m264 0 v-14 m-264 14 q0 10 10 10 m244 0 q10 0 10 -10 m-254 10 h10 m0 0 h234 m-388 -88 v20 m418 0 v-20 m-418 20 v90 m418 0 v-90 m-418 90 q0 10 10 10 m398 0 q10 0 10 -10 m-408 10 h10 m108 0 h10 m0 0 h270 m-408 -10 v20 m418 0 v-20 m-418 20 v24 m418 0 v-24 m-418 24 q0 10 10 10 m398 0 q10 0 10 -10 m-408 10 h10 m124 0 h10 m0 0 h254 m-408 -10 v20 m418 0 v-20 m-418 20 v24 m418 0 v-24 m-418 24 q0 10 10 10 m398 0 q10 0 10 -10 m-408 10 h10 m110 0 h10 m0 0 h268 m-408 -10 v20 m418 0 v-20 m-418 20 v24 m418 0 v-24 m-418 24 q0 10 10 10 m398 0 q10 0 10 -10 m-408 10 h10 m124 0 h10 m0 0 h254 m-408 -10 v20 m418 0 v-20 m-418 20 v24 m418 0 v-24 m-418 24 q0 10 10 10 m398 0 q10 0 10 -10 m-408 10 h10 m132 0 h10 m0 0 h246 m23 -670 h-3"/>
   <polygon points="467 17 475 13 475 21"/>
   <polygon points="467 17 459 13 459 21"/>
</svg>
