<?xml version="1.0" encoding="UTF-8"?>
<svg xmlns="http://www.w3.org/2000/svg" width="361" height="377">
   <defs>
      <style type="text/css">
    @namespace "http://www.w3.org/2000/svg";
    .line                 {fill: none; stroke: #174B00; stroke-width: 1;}
    .bold-line            {stroke: #061400; shape-rendering: crispEdges; stroke-width: 2;}
    .thin-line            {stroke: #091F00; shape-rendering: crispEdges}
    .filled               {fill: #174B00; stroke: none;}
    text.terminal         {font-family: Verdana, Sans-serif;
                            font-size: 12px;
                            fill: #061400;
                            font-weight: bold;
                          }
    text.nonterminal      {font-family: Verdana, Sans-serif;
                            font-size: 12px;
                            fill: #081A00;
                            font-weight: normal;
                          }
    text.regexp           {font-family: Verdana, Sans-serif;
                            font-size: 12px;
                            fill: #091F00;
                            font-weight: normal;
                          }
    rect, circle, polygon {fill: #174B00; stroke: #174B00;}
    rect.terminal         {fill: #F8FFF5; stroke: #174B00; stroke-width: 1;}
    rect.nonterminal      {fill: #FBFFFA; stroke: #174B00; stroke-width: 1;}
    rect.text             {fill: none; stroke: none;}
    polygon.regexp        {fill: #FDFFFC; stroke: #174B00; stroke-width: 1;}
  </style>
   </defs>
   <polygon points="9 17 1 13 1 21"/>
   <polygon points="17 17 9 13 9 21"/>
   <rect x="51" y="3" width="28" height="32" rx="10"/>
   <rect x="49"
         y="1"
         width="28"
         height="32"
         class="terminal"
         rx="10"/>
   <text class="terminal" x="59" y="21">_</text>
   <rect x="51" y="47" width="44" height="32" rx="10"/>
   <rect x="49"
         y="45"
         width="44"
         height="32"
         class="terminal"
         rx="10"/>
   <text class="terminal" x="59" y="65">null</text>
   <a xmlns:xlink="http://www.w3.org/1999/xlink"
      xlink:href="#TYPE_NAME"
      xlink:title="TYPE_NAME">
      <rect x="51" y="91" width="94" height="32"/>
      <rect x="49" y="89" width="94" height="32" class="nonterminal"/>
      <text class="nonterminal" x="59" y="109">TYPE_NAME</text>
   </a>
   <a xmlns:xlink="http://www.w3.org/1999/xlink"
      xlink:href="#ObjectPattern"
      xlink:title="ObjectPattern">
      <rect x="185" y="123" width="108" height="32"/>
      <rect x="183" y="121" width="108" height="32" class="nonterminal"/>
      <text class="nonterminal" x="193" y="141">ObjectPattern</text>
   </a>
   <a xmlns:xlink="http://www.w3.org/1999/xlink"
      xlink:href="#ObjectPattern"
      xlink:title="ObjectPattern">
      <rect x="51" y="167" width="108" height="32"/>
      <rect x="49" y="165" width="108" height="32" class="nonterminal"/>
      <text class="nonterminal" x="59" y="185">ObjectPattern</text>
   </a>
   <a xmlns:xlink="http://www.w3.org/1999/xlink"
      xlink:href="#ValuePattern"
      xlink:title="ValuePattern">
      <rect x="51" y="211" width="102" height="32"/>
      <rect x="49" y="209" width="102" height="32" class="nonterminal"/>
      <text class="nonterminal" x="59" y="229">ValuePattern</text>
   </a>
   <a xmlns:xlink="http://www.w3.org/1999/xlink"
      xlink:href="#RangePattern"
      xlink:title="RangePattern">
      <rect x="51" y="255" width="106" height="32"/>
      <rect x="49" y="253" width="106" height="32" class="nonterminal"/>
      <text class="nonterminal" x="59" y="273">RangePattern</text>
   </a>
   <a xmlns:xlink="http://www.w3.org/1999/xlink"
      xlink:href="#PredicatePattern"
      xlink:title="PredicatePattern">
      <rect x="51" y="299" width="126" height="32"/>
      <rect x="49" y="297" width="126" height="32" class="nonterminal"/>
      <text class="nonterminal" x="59" y="317">PredicatePattern</text>
   </a>
   <a xmlns:xlink="http://www.w3.org/1999/xlink"
      xlink:href="#CompositePattern"
      xlink:title="CompositePattern">
      <rect x="51" y="343" width="134" height="32"/>
      <rect x="49" y="341" width="134" height="32" class="nonterminal"/>
      <text class="nonterminal" x="59" y="361">CompositePattern</text>
   </a>
   <path class="line"
         d="m17 17 h2 m20 0 h10 m28 0 h10 m0 0 h234 m-302 0 h20 m282 0 h20 m-322 0 q10 0 10 10 m302 0 q0 -10 10 -10 m-312 10 v24 m302 0 v-24 m-302 24 q0 10 10 10 m282 0 q10 0 10 -10 m-292 10 h10 m44 0 h10 m0 0 h218 m-292 -10 v20 m302 0 v-20 m-302 20 v24 m302 0 v-24 m-302 24 q0 10 10 10 m282 0 q10 0 10 -10 m-292 10 h10 m94 0 h10 m20 0 h10 m0 0 h118 m-148 0 h20 m128 0 h20 m-168 0 q10 0 10 10 m148 0 q0 -10 10 -10 m-158 10 v12 m148 0 v-12 m-148 12 q0 10 10 10 m128 0 q10 0 10 -10 m-138 10 h10 m108 0 h10 m-272 -42 v20 m302 0 v-20 m-302 20 v56 m302 0 v-56 m-302 56 q0 10 10 10 m282 0 q10 0 10 -10 m-292 10 h10 m108 0 h10 m0 0 h154 m-292 -10 v20 m302 0 v-20 m-302 20 v24 m302 0 v-24 m-302 24 q0 10 10 10 m282 0 q10 0 10 -10 m-292 10 h10 m102 0 h10 m0 0 h160 m-292 -10 v20 m302 0 v-20 m-302 20 v24 m302 0 v-24 m-302 24 q0 10 10 10 m282 0 q10 0 10 -10 m-292 10 h10 m106 0 h10 m0 0 h156 m-292 -10 v20 m302 0 v-20 m-302 20 v24 m302 0 v-24 m-302 24 q0 10 10 10 m282 0 q10 0 10 -10 m-292 10 h10 m126 0 h10 m0 0 h136 m-292 -10 v20 m302 0 v-20 m-302 20 v24 m302 0 v-24 m-302 24 q0 10 10 10 m282 0 q10 0 10 -10 m-292 10 h10 m134 0 h10 m0 0 h128 m23 -340 h-3"/>
   <polygon points="351 17 359 13 359 21"/>
   <polygon points="351 17 343 13 343 21"/>
</svg>
