<?xml version="1.0" encoding="UTF-8"?>
<svg xmlns="http://www.w3.org/2000/svg" width="451" height="441">
   <defs>
      <style type="text/css">
    @namespace "http://www.w3.org/2000/svg";
    .line                 {fill: none; stroke: #174B00; stroke-width: 1;}
    .bold-line            {stroke: #061400; shape-rendering: crispEdges; stroke-width: 2;}
    .thin-line            {stroke: #091F00; shape-rendering: crispEdges}
    .filled               {fill: #174B00; stroke: none;}
    text.terminal         {font-family: Verdana, Sans-serif;
                            font-size: 12px;
                            fill: #061400;
                            font-weight: bold;
                          }
    text.nonterminal      {font-family: Verdana, Sans-serif;
                            font-size: 12px;
                            fill: #081A00;
                            font-weight: normal;
                          }
    text.regexp           {font-family: Verdana, Sans-serif;
                            font-size: 12px;
                            fill: #091F00;
                            font-weight: normal;
                          }
    rect, circle, polygon {fill: #174B00; stroke: #174B00;}
    rect.terminal         {fill: #F8FFF5; stroke: #174B00; stroke-width: 1;}
    rect.nonterminal      {fill: #FBFFFA; stroke: #174B00; stroke-width: 1;}
    rect.text             {fill: none; stroke: none;}
    polygon.regexp        {fill: #FDFFFC; stroke: #174B00; stroke-width: 1;}
  </style>
   </defs>
   <polygon points="9 17 1 13 1 21"/>
   <polygon points="17 17 9 13 9 21"/>
   <rect x="51" y="3" width="28" height="32" rx="10"/>
   <rect x="49"
         y="1"
         width="28"
         height="32"
         class="terminal"
         rx="10"/>
   <text class="terminal" x="59" y="21">_</text>
   <rect x="51" y="47" width="44" height="32" rx="10"/>
   <rect x="49"
         y="45"
         width="44"
         height="32"
         class="terminal"
         rx="10"/>
   <text class="terminal" x="59" y="65">null</text>
   <a xmlns:xlink="http://www.w3.org/1999/xlink"
      xlink:href="#ValuePattern"
      xlink:title="ValuePattern">
      <rect x="51" y="91" width="102" height="32"/>
      <rect x="49" y="89" width="102" height="32" class="nonterminal"/>
      <text class="nonterminal" x="59" y="109">ValuePattern</text>
   </a>
   <rect x="193" y="123" width="28" height="32" rx="10"/>
   <rect x="191"
         y="121"
         width="28"
         height="32"
         class="terminal"
         rx="10"/>
   <text class="terminal" x="201" y="141">..</text>
   <a xmlns:xlink="http://www.w3.org/1999/xlink"
      xlink:href="#ValuePattern"
      xlink:title="ValuePattern">
      <rect x="261" y="155" width="102" height="32"/>
      <rect x="259" y="153" width="102" height="32" class="nonterminal"/>
      <text class="nonterminal" x="269" y="173">ValuePattern</text>
   </a>
   <rect x="51" y="199" width="28" height="32" rx="10"/>
   <rect x="49"
         y="197"
         width="28"
         height="32"
         class="terminal"
         rx="10"/>
   <text class="terminal" x="59" y="217">..</text>
   <a xmlns:xlink="http://www.w3.org/1999/xlink"
      xlink:href="#ValuePattern"
      xlink:title="ValuePattern">
      <rect x="99" y="199" width="102" height="32"/>
      <rect x="97" y="197" width="102" height="32" class="nonterminal"/>
      <text class="nonterminal" x="107" y="217">ValuePattern</text>
   </a>
   <a xmlns:xlink="http://www.w3.org/1999/xlink"
      xlink:href="#TYPE_NAME"
      xlink:title="TYPE_NAME">
      <rect x="51" y="243" width="94" height="32"/>
      <rect x="49" y="241" width="94" height="32" class="nonterminal"/>
      <text class="nonterminal" x="59" y="261">TYPE_NAME</text>
   </a>
   <a xmlns:xlink="http://www.w3.org/1999/xlink"
      xlink:href="#ObjectPattern"
      xlink:title="ObjectPattern">
      <rect x="185" y="275" width="108" height="32"/>
      <rect x="183" y="273" width="108" height="32" class="nonterminal"/>
      <text class="nonterminal" x="193" y="293">ObjectPattern</text>
   </a>
   <a xmlns:xlink="http://www.w3.org/1999/xlink"
      xlink:href="#ObjectPattern"
      xlink:title="ObjectPattern">
      <rect x="51" y="319" width="108" height="32"/>
      <rect x="49" y="317" width="108" height="32" class="nonterminal"/>
      <text class="nonterminal" x="59" y="337">ObjectPattern</text>
   </a>
   <a xmlns:xlink="http://www.w3.org/1999/xlink"
      xlink:href="#IDENTIFIER"
      xlink:title="IDENTIFIER">
      <rect x="51" y="363" width="92" height="32"/>
      <rect x="49" y="361" width="92" height="32" class="nonterminal"/>
      <text class="nonterminal" x="59" y="381">IDENTIFIER</text>
   </a>
   <rect x="163" y="363" width="24" height="32" rx="10"/>
   <rect x="161"
         y="361"
         width="24"
         height="32"
         class="terminal"
         rx="10"/>
   <text class="terminal" x="171" y="381">:</text>
   <a xmlns:xlink="http://www.w3.org/1999/xlink"
      xlink:href="#Expression"
      xlink:title="Expression">
      <rect x="207" y="363" width="90" height="32"/>
      <rect x="205" y="361" width="90" height="32" class="nonterminal"/>
      <text class="nonterminal" x="215" y="381">Expression</text>
   </a>
   <a xmlns:xlink="http://www.w3.org/1999/xlink"
      xlink:href="#CompositePattern"
      xlink:title="CompositePattern">
      <rect x="51" y="407" width="134" height="32"/>
      <rect x="49" y="405" width="134" height="32" class="nonterminal"/>
      <text class="nonterminal" x="59" y="425">CompositePattern</text>
   </a>
   <path class="line"
         d="m17 17 h2 m20 0 h10 m28 0 h10 m0 0 h324 m-392 0 h20 m372 0 h20 m-412 0 q10 0 10 10 m392 0 q0 -10 10 -10 m-402 10 v24 m392 0 v-24 m-392 24 q0 10 10 10 m372 0 q10 0 10 -10 m-382 10 h10 m44 0 h10 m0 0 h308 m-382 -10 v20 m392 0 v-20 m-392 20 v24 m392 0 v-24 m-392 24 q0 10 10 10 m372 0 q10 0 10 -10 m-382 10 h10 m102 0 h10 m20 0 h10 m0 0 h200 m-230 0 h20 m210 0 h20 m-250 0 q10 0 10 10 m230 0 q0 -10 10 -10 m-240 10 v12 m230 0 v-12 m-230 12 q0 10 10 10 m210 0 q10 0 10 -10 m-220 10 h10 m28 0 h10 m20 0 h10 m0 0 h112 m-142 0 h20 m122 0 h20 m-162 0 q10 0 10 10 m142 0 q0 -10 10 -10 m-152 10 v12 m142 0 v-12 m-142 12 q0 10 10 10 m122 0 q10 0 10 -10 m-132 10 h10 m102 0 h10 m-342 -74 v20 m392 0 v-20 m-392 20 v88 m392 0 v-88 m-392 88 q0 10 10 10 m372 0 q10 0 10 -10 m-382 10 h10 m28 0 h10 m0 0 h10 m102 0 h10 m0 0 h202 m-382 -10 v20 m392 0 v-20 m-392 20 v24 m392 0 v-24 m-392 24 q0 10 10 10 m372 0 q10 0 10 -10 m-382 10 h10 m94 0 h10 m20 0 h10 m0 0 h118 m-148 0 h20 m128 0 h20 m-168 0 q10 0 10 10 m148 0 q0 -10 10 -10 m-158 10 v12 m148 0 v-12 m-148 12 q0 10 10 10 m128 0 q10 0 10 -10 m-138 10 h10 m108 0 h10 m20 -32 h90 m-382 -10 v20 m392 0 v-20 m-392 20 v56 m392 0 v-56 m-392 56 q0 10 10 10 m372 0 q10 0 10 -10 m-382 10 h10 m108 0 h10 m0 0 h244 m-382 -10 v20 m392 0 v-20 m-392 20 v24 m392 0 v-24 m-392 24 q0 10 10 10 m372 0 q10 0 10 -10 m-382 10 h10 m92 0 h10 m0 0 h10 m24 0 h10 m0 0 h10 m90 0 h10 m0 0 h106 m-382 -10 v20 m392 0 v-20 m-392 20 v24 m392 0 v-24 m-392 24 q0 10 10 10 m372 0 q10 0 10 -10 m-382 10 h10 m134 0 h10 m0 0 h218 m23 -404 h-3"/>
   <polygon points="441 17 449 13 449 21"/>
   <polygon points="441 17 433 13 433 21"/>
</svg>
