<?xml version="1.0" encoding="UTF-8"?>
<svg xmlns="http://www.w3.org/2000/svg" width="321" height="159">
   <defs>
      <style type="text/css">
    @namespace "http://www.w3.org/2000/svg";
    .line                 {fill: none; stroke: #00174B; stroke-width: 1;}
    .bold-line            {stroke: #000614; shape-rendering: crispEdges; stroke-width: 2;}
    .thin-line            {stroke: #00091F; shape-rendering: crispEdges}
    .filled               {fill: #00174B; stroke: none;}
    text.terminal         {font-family: Verdana, Sans-serif;
                            font-size: 12px;
                            fill: #000614;
                            font-weight: bold;
                          }
    text.nonterminal      {font-family: Verdana, Sans-serif;
                            font-size: 12px;
                            fill: #00081A;
                            font-weight: normal;
                          }
    text.regexp           {font-family: Verdana, Sans-serif;
                            font-size: 12px;
                            fill: #00091F;
                            font-weight: normal;
                          }
    rect, circle, polygon {fill: #00174B; stroke: #00174B;}
    rect.terminal         {fill: #F5F8FF; stroke: #00174B; stroke-width: 1;}
    rect.nonterminal      {fill: #FAFBFF; stroke: #00174B; stroke-width: 1;}
    rect.text             {fill: none; stroke: none;}
    polygon.regexp        {fill: #FCFDFF; stroke: #00174B; stroke-width: 1;}
  </style>
   </defs>
   <polygon points="9 139 1 135 1 143"/>
   <polygon points="17 139 9 135 9 143"/>
   <a xmlns:xlink="http://www.w3.org/1999/xlink"
      xlink:href="#PrefixUnaryExpression"
      xlink:title="PrefixUnaryExpression">
      <rect x="31" y="125" width="162" height="32"/>
      <rect x="29" y="123" width="162" height="32" class="nonterminal"/>
      <text class="nonterminal" x="39" y="143">PrefixUnaryExpression</text>
   </a>
   <rect x="233" y="91" width="40" height="32" rx="10"/>
   <rect x="231"
         y="89"
         width="40"
         height="32"
         class="terminal"
         rx="10"/>
   <text class="terminal" x="241" y="109">++</text>
   <rect x="233" y="47" width="32" height="32" rx="10"/>
   <rect x="231"
         y="45"
         width="32"
         height="32"
         class="terminal"
         rx="10"/>
   <text class="terminal" x="241" y="65">--</text>
   <rect x="233" y="3" width="24" height="32" rx="10"/>
   <rect x="231"
         y="1"
         width="24"
         height="32"
         class="terminal"
         rx="10"/>
   <text class="terminal" x="241" y="21">!</text>
   <path class="line"
         d="m17 139 h2 m0 0 h10 m162 0 h10 m20 0 h10 m0 0 h50 m-80 0 l20 0 m-1 0 q-9 0 -9 -10 l0 -14 q0 -10 10 -10 m60 34 l20 0 m-20 0 q10 0 10 -10 l0 -14 q0 -10 -10 -10 m-60 0 h10 m40 0 h10 m-70 10 l0 -44 q0 -10 10 -10 m70 54 l0 -44 q0 -10 -10 -10 m-60 0 h10 m32 0 h10 m0 0 h8 m-70 10 l0 -44 q0 -10 10 -10 m70 54 l0 -44 q0 -10 -10 -10 m-60 0 h10 m24 0 h10 m0 0 h16 m23 122 h-3"/>
   <polygon points="311 139 319 135 319 143"/>
   <polygon points="311 139 303 135 303 143"/>
</svg>
