<?xml version="1.0" encoding="UTF-8"?>
<svg xmlns="http://www.w3.org/2000/svg" width="247" height="291">
   <defs>
      <style type="text/css">
    @namespace "http://www.w3.org/2000/svg";
    .line                 {fill: none; stroke: #332900; stroke-width: 1;}
    .bold-line            {stroke: #141000; shape-rendering: crispEdges; stroke-width: 2;}
    .thin-line            {stroke: #1F1800; shape-rendering: crispEdges}
    .filled               {fill: #332900; stroke: none;}
    text.terminal         {font-family: Verdana, Sans-serif;
                            font-size: 12px;
                            fill: #141000;
                            font-weight: bold;
                          }
    text.nonterminal      {font-family: Verdana, Sans-serif;
                            font-size: 12px;
                            fill: #1A1400;
                            font-weight: normal;
                          }
    text.regexp           {font-family: Verdana, Sans-serif;
                            font-size: 12px;
                            fill: #1F1800;
                            font-weight: normal;
                          }
    rect, circle, polygon {fill: #332900; stroke: #332900;}
    rect.terminal         {fill: #FFDB4D; stroke: #332900; stroke-width: 1;}
    rect.nonterminal      {fill: #FFEC9E; stroke: #332900; stroke-width: 1;}
    rect.text             {fill: none; stroke: none;}
    polygon.regexp        {fill: #FFF4C7; stroke: #332900; stroke-width: 1;}
  </style>
   </defs>
   <polygon points="9 271 1 267 1 275"/>
   <polygon points="17 271 9 267 9 275"/>
   <rect x="51" y="223" width="30" height="32" rx="10"/>
   <rect x="49"
         y="221"
         width="30"
         height="32"
         class="terminal"
         rx="10"/>
   <text class="terminal" x="59" y="241">+</text>
   <rect x="51" y="179" width="26" height="32" rx="10"/>
   <rect x="49"
         y="177"
         width="26"
         height="32"
         class="terminal"
         rx="10"/>
   <text class="terminal" x="59" y="197">-</text>
   <rect x="51" y="135" width="30" height="32" rx="10"/>
   <rect x="49"
         y="133"
         width="30"
         height="32"
         class="terminal"
         rx="10"/>
   <text class="terminal" x="59" y="153">~</text>
   <rect x="51" y="91" width="24" height="32" rx="10"/>
   <rect x="49"
         y="89"
         width="24"
         height="32"
         class="terminal"
         rx="10"/>
   <text class="terminal" x="59" y="109">!</text>
   <rect x="51" y="47" width="40" height="32" rx="10"/>
   <rect x="49"
         y="45"
         width="40"
         height="32"
         class="terminal"
         rx="10"/>
   <text class="terminal" x="59" y="65">++</text>
   <rect x="51" y="3" width="32" height="32" rx="10"/>
   <rect x="49"
         y="1"
         width="32"
         height="32"
         class="terminal"
         rx="10"/>
   <text class="terminal" x="59" y="21">--</text>
   <a xmlns:xlink="http://www.w3.org/1999/xlink"
      xlink:href="#Composite"
      xlink:title="Composite">
      <rect x="131" y="257" width="88" height="32"/>
      <rect x="129" y="255" width="88" height="32" class="nonterminal"/>
      <text class="nonterminal" x="139" y="275">Composite</text>
   </a>
   <path class="line"
         d="m17 271 h2 m20 0 h10 m0 0 h50 m-80 0 l20 0 m-1 0 q-9 0 -9 -10 l0 -14 q0 -10 10 -10 m60 34 l20 0 m-20 0 q10 0 10 -10 l0 -14 q0 -10 -10 -10 m-60 0 h10 m30 0 h10 m0 0 h10 m-70 10 l0 -44 q0 -10 10 -10 m70 54 l0 -44 q0 -10 -10 -10 m-60 0 h10 m26 0 h10 m0 0 h14 m-70 10 l0 -44 q0 -10 10 -10 m70 54 l0 -44 q0 -10 -10 -10 m-60 0 h10 m30 0 h10 m0 0 h10 m-70 10 l0 -44 q0 -10 10 -10 m70 54 l0 -44 q0 -10 -10 -10 m-60 0 h10 m24 0 h10 m0 0 h16 m-70 10 l0 -44 q0 -10 10 -10 m70 54 l0 -44 q0 -10 -10 -10 m-60 0 h10 m40 0 h10 m-70 10 l0 -44 q0 -10 10 -10 m70 54 l0 -44 q0 -10 -10 -10 m-60 0 h10 m32 0 h10 m0 0 h8 m20 254 h10 m88 0 h10 m3 0 h-3"/>
   <polygon points="237 271 245 267 245 275"/>
   <polygon points="237 271 229 267 229 275"/>
</svg>
