<?xml version="1.0" encoding="UTF-8"?>
<svg xmlns="http://www.w3.org/2000/svg" width="249" height="57">
   <defs>
      <style type="text/css">
    @namespace "http://www.w3.org/2000/svg";
    .line                 {fill: none; stroke: #174B00; stroke-width: 1;}
    .bold-line            {stroke: #061400; shape-rendering: crispEdges; stroke-width: 2;}
    .thin-line            {stroke: #091F00; shape-rendering: crispEdges}
    .filled               {fill: #174B00; stroke: none;}
    text.terminal         {font-family: Verdana, Sans-serif;
                            font-size: 12px;
                            fill: #061400;
                            font-weight: bold;
                          }
    text.nonterminal      {font-family: Verdana, Sans-serif;
                            font-size: 12px;
                            fill: #081A00;
                            font-weight: normal;
                          }
    text.regexp           {font-family: Verdana, Sans-serif;
                            font-size: 12px;
                            fill: #091F00;
                            font-weight: normal;
                          }
    rect, circle, polygon {fill: #174B00; stroke: #174B00;}
    rect.terminal         {fill: #F8FFF5; stroke: #174B00; stroke-width: 1;}
    rect.nonterminal      {fill: #FBFFFA; stroke: #174B00; stroke-width: 1;}
    rect.text             {fill: none; stroke: none;}
    polygon.regexp        {fill: #FDFFFC; stroke: #174B00; stroke-width: 1;}
  </style>
   </defs>
   <polygon points="9 51 1 47 1 55"/>
   <polygon points="17 51 9 47 9 55"/>
   <a xmlns:xlink="http://www.w3.org/1999/xlink"
      xlink:href="#StatementWithLabel"
      xlink:title="StatementWithLabel">
      <rect x="51" y="3" width="150" height="32"/>
      <rect x="49" y="1" width="150" height="32" class="nonterminal"/>
      <text class="nonterminal" x="59" y="21">StatementWithLabel</text>
   </a>
   <path class="line"
         d="m17 51 h2 m20 0 h10 m0 0 h160 m-190 0 l20 0 m-1 0 q-9 0 -9 -10 l0 -14 q0 -10 10 -10 m170 34 l20 0 m-20 0 q10 0 10 -10 l0 -14 q0 -10 -10 -10 m-170 0 h10 m150 0 h10 m23 34 h-3"/>
   <polygon points="239 51 247 47 247 55"/>
   <polygon points="239 51 231 47 231 55"/>
</svg>
