<?xml version="1.0" encoding="UTF-8"?>
<svg xmlns="http://www.w3.org/2000/svg" width="311" height="37">
   <defs>
      <style type="text/css">
    @namespace "http://www.w3.org/2000/svg";
    .line                 {fill: none; stroke: #174B00; stroke-width: 1;}
    .bold-line            {stroke: #061400; shape-rendering: crispEdges; stroke-width: 2;}
    .thin-line            {stroke: #091F00; shape-rendering: crispEdges}
    .filled               {fill: #174B00; stroke: none;}
    text.terminal         {font-family: Verdana, Sans-serif;
                            font-size: 12px;
                            fill: #061400;
                            font-weight: bold;
                          }
    text.nonterminal      {font-family: Verdana, Sans-serif;
                            font-size: 12px;
                            fill: #081A00;
                            font-weight: normal;
                          }
    text.regexp           {font-family: Verdana, Sans-serif;
                            font-size: 12px;
                            fill: #091F00;
                            font-weight: normal;
                          }
    rect, circle, polygon {fill: #174B00; stroke: #174B00;}
    rect.terminal         {fill: #F8FFF5; stroke: #174B00; stroke-width: 1;}
    rect.nonterminal      {fill: #FBFFFA; stroke: #174B00; stroke-width: 1;}
    rect.text             {fill: none; stroke: none;}
    polygon.regexp        {fill: #FDFFFC; stroke: #174B00; stroke-width: 1;}
  </style>
   </defs>
   <polygon points="9 17 1 13 1 21"/>
   <polygon points="17 17 9 13 9 21"/>
   <a xmlns:xlink="http://www.w3.org/1999/xlink"
      xlink:href="#IDENTIFIER"
      xlink:title="IDENTIFIER">
      <rect x="31" y="3" width="92" height="32"/>
      <rect x="29" y="1" width="92" height="32" class="nonterminal"/>
      <text class="nonterminal" x="39" y="21">IDENTIFIER</text>
   </a>
   <rect x="143" y="3" width="30" height="32" rx="10"/>
   <rect x="141"
         y="1"
         width="30"
         height="32"
         class="terminal"
         rx="10"/>
   <text class="terminal" x="151" y="21">=</text>
   <a xmlns:xlink="http://www.w3.org/1999/xlink"
      xlink:href="#Expression"
      xlink:title="Expression">
      <rect x="193" y="3" width="90" height="32"/>
      <rect x="191" y="1" width="90" height="32" class="nonterminal"/>
      <text class="nonterminal" x="201" y="21">Expression</text>
   </a>
   <path class="line"
         d="m17 17 h2 m0 0 h10 m92 0 h10 m0 0 h10 m30 0 h10 m0 0 h10 m90 0 h10 m3 0 h-3"/>
   <polygon points="301 17 309 13 309 21"/>
   <polygon points="301 17 293 13 293 21"/>
</svg>
