<?xml version="1.0" encoding="UTF-8"?>
<svg xmlns="http://www.w3.org/2000/svg" width="875" height="395">
   <defs>
      <style type="text/css">
    @namespace "http://www.w3.org/2000/svg";
    .line                 {fill: none; stroke: #174B00; stroke-width: 1;}
    .bold-line            {stroke: #061400; shape-rendering: crispEdges; stroke-width: 2;}
    .thin-line            {stroke: #091F00; shape-rendering: crispEdges}
    .filled               {fill: #174B00; stroke: none;}
    text.terminal         {font-family: Verdana, Sans-serif;
                            font-size: 12px;
                            fill: #061400;
                            font-weight: bold;
                          }
    text.nonterminal      {font-family: Verdana, Sans-serif;
                            font-size: 12px;
                            fill: #081A00;
                            font-weight: normal;
                          }
    text.regexp           {font-family: Verdana, Sans-serif;
                            font-size: 12px;
                            fill: #091F00;
                            font-weight: normal;
                          }
    rect, circle, polygon {fill: #174B00; stroke: #174B00;}
    rect.terminal         {fill: #F8FFF5; stroke: #174B00; stroke-width: 1;}
    rect.nonterminal      {fill: #FBFFFA; stroke: #174B00; stroke-width: 1;}
    rect.text             {fill: none; stroke: none;}
    polygon.regexp        {fill: #FDFFFC; stroke: #174B00; stroke-width: 1;}
  </style>
   </defs>
   <polygon points="11 17 3 13 3 21"/>
   <polygon points="19 17 11 13 11 21"/>
   <rect x="33" y="3" width="78" height="32" rx="10"/>
   <rect x="31"
         y="1"
         width="78"
         height="32"
         class="terminal"
         rx="10"/>
   <text class="terminal" x="41" y="21">property</text>
   <a xmlns:xlink="http://www.w3.org/1999/xlink"
      xlink:href="#IDENTIFIER"
      xlink:title="IDENTIFIER">
      <rect x="151" y="3" width="92" height="32"/>
      <rect x="149" y="1" width="92" height="32" class="nonterminal"/>
      <text class="nonterminal" x="159" y="21">IDENTIFIER</text>
   </a>
   <rect x="151" y="47" width="32" height="32" rx="10"/>
   <rect x="149"
         y="45"
         width="32"
         height="32"
         class="terminal"
         rx="10"/>
   <text class="terminal" x="159" y="65">[]</text>
   <rect x="65" y="145" width="40" height="32" rx="10"/>
   <rect x="63"
         y="143"
         width="40"
         height="32"
         class="terminal"
         rx="10"/>
   <text class="terminal" x="73" y="163">=&gt;</text>
   <a xmlns:xlink="http://www.w3.org/1999/xlink"
      xlink:href="#Expression"
      xlink:title="Expression">
      <rect x="125" y="145" width="90" height="32"/>
      <rect x="123" y="143" width="90" height="32" class="nonterminal"/>
      <text class="nonterminal" x="133" y="163">Expression</text>
   </a>
   <rect x="255" y="113" width="24" height="32" rx="10"/>
   <rect x="253"
         y="111"
         width="24"
         height="32"
         class="terminal"
         rx="10"/>
   <text class="terminal" x="263" y="131">;</text>
   <rect x="45" y="189" width="28" height="32" rx="10"/>
   <rect x="43"
         y="187"
         width="28"
         height="32"
         class="terminal"
         rx="10"/>
   <text class="terminal" x="53" y="207">{</text>
   <a xmlns:xlink="http://www.w3.org/1999/xlink"
      xlink:href="#SCOPE"
      xlink:title="SCOPE">
      <rect x="113" y="221" width="62" height="32"/>
      <rect x="111" y="219" width="62" height="32" class="nonterminal"/>
      <text class="nonterminal" x="121" y="239">SCOPE</text>
   </a>
   <rect x="235" y="189" width="50" height="32" rx="10"/>
   <rect x="233"
         y="187"
         width="50"
         height="32"
         class="terminal"
         rx="10"/>
   <text class="terminal" x="243" y="207">read</text>
   <a xmlns:xlink="http://www.w3.org/1999/xlink"
      xlink:href="#MethodBody"
      xlink:title="MethodBody">
      <rect x="325" y="221" width="98" height="32"/>
      <rect x="323" y="219" width="98" height="32" class="nonterminal"/>
      <text class="nonterminal" x="333" y="239">MethodBody</text>
   </a>
   <a xmlns:xlink="http://www.w3.org/1999/xlink"
      xlink:href="#SCOPE"
      xlink:title="SCOPE">
      <rect x="463" y="253" width="62" height="32"/>
      <rect x="461" y="251" width="62" height="32" class="nonterminal"/>
      <text class="nonterminal" x="471" y="271">SCOPE</text>
   </a>
   <rect x="565" y="221" width="56" height="32" rx="10"/>
   <rect x="563"
         y="219"
         width="56"
         height="32"
         class="terminal"
         rx="10"/>
   <text class="terminal" x="573" y="239">write</text>
   <rect x="235" y="297" width="56" height="32" rx="10"/>
   <rect x="233"
         y="295"
         width="56"
         height="32"
         class="terminal"
         rx="10"/>
   <text class="terminal" x="243" y="315">write</text>
   <a xmlns:xlink="http://www.w3.org/1999/xlink"
      xlink:href="#MethodBody"
      xlink:title="MethodBody">
      <rect x="331" y="329" width="98" height="32"/>
      <rect x="329" y="327" width="98" height="32" class="nonterminal"/>
      <text class="nonterminal" x="339" y="347">MethodBody</text>
   </a>
   <a xmlns:xlink="http://www.w3.org/1999/xlink"
      xlink:href="#SCOPE"
      xlink:title="SCOPE">
      <rect x="469" y="361" width="62" height="32"/>
      <rect x="467" y="359" width="62" height="32" class="nonterminal"/>
      <text class="nonterminal" x="477" y="379">SCOPE</text>
   </a>
   <rect x="571" y="329" width="50" height="32" rx="10"/>
   <rect x="569"
         y="327"
         width="50"
         height="32"
         class="terminal"
         rx="10"/>
   <text class="terminal" x="579" y="347">read</text>
   <a xmlns:xlink="http://www.w3.org/1999/xlink"
      xlink:href="#MethodBody"
      xlink:title="MethodBody">
      <rect x="681" y="189" width="98" height="32"/>
      <rect x="679" y="187" width="98" height="32" class="nonterminal"/>
      <text class="nonterminal" x="689" y="207">MethodBody</text>
   </a>
   <rect x="799" y="189" width="28" height="32" rx="10"/>
   <rect x="797"
         y="187"
         width="28"
         height="32"
         class="terminal"
         rx="10"/>
   <text class="terminal" x="807" y="207">}</text>
   <path class="line"
         d="m19 17 h2 m0 0 h10 m78 0 h10 m20 0 h10 m92 0 h10 m-132 0 h20 m112 0 h20 m-152 0 q10 0 10 10 m132 0 q0 -10 10 -10 m-142 10 v24 m132 0 v-24 m-132 24 q0 10 10 10 m112 0 q10 0 10 -10 m-122 10 h10 m32 0 h10 m0 0 h60 m22 -44 l2 0 m2 0 l2 0 m2 0 l2 0 m-282 110 l2 0 m2 0 l2 0 m2 0 l2 0 m42 0 h10 m0 0 h160 m-190 0 h20 m170 0 h20 m-210 0 q10 0 10 10 m190 0 q0 -10 10 -10 m-200 10 v12 m190 0 v-12 m-190 12 q0 10 10 10 m170 0 q10 0 10 -10 m-180 10 h10 m40 0 h10 m0 0 h10 m90 0 h10 m20 -32 h10 m24 0 h10 m0 0 h548 m-822 0 h20 m802 0 h20 m-842 0 q10 0 10 10 m822 0 q0 -10 10 -10 m-832 10 v56 m822 0 v-56 m-822 56 q0 10 10 10 m802 0 q10 0 10 -10 m-812 10 h10 m28 0 h10 m20 0 h10 m0 0 h72 m-102 0 h20 m82 0 h20 m-122 0 q10 0 10 10 m102 0 q0 -10 10 -10 m-112 10 v12 m102 0 v-12 m-102 12 q0 10 10 10 m82 0 q10 0 10 -10 m-92 10 h10 m62 0 h10 m40 -32 h10 m50 0 h10 m20 0 h10 m0 0 h306 m-336 0 h20 m316 0 h20 m-356 0 q10 0 10 10 m336 0 q0 -10 10 -10 m-346 10 v12 m336 0 v-12 m-336 12 q0 10 10 10 m316 0 q10 0 10 -10 m-326 10 h10 m98 0 h10 m20 0 h10 m0 0 h72 m-102 0 h20 m82 0 h20 m-122 0 q10 0 10 10 m102 0 q0 -10 10 -10 m-112 10 v12 m102 0 v-12 m-102 12 q0 10 10 10 m82 0 q10 0 10 -10 m-92 10 h10 m62 0 h10 m20 -32 h10 m56 0 h10 m-426 -32 h20 m426 0 h20 m-466 0 q10 0 10 10 m446 0 q0 -10 10 -10 m-456 10 v88 m446 0 v-88 m-446 88 q0 10 10 10 m426 0 q10 0 10 -10 m-436 10 h10 m56 0 h10 m20 0 h10 m0 0 h300 m-330 0 h20 m310 0 h20 m-350 0 q10 0 10 10 m330 0 q0 -10 10 -10 m-340 10 v12 m330 0 v-12 m-330 12 q0 10 10 10 m310 0 q10 0 10 -10 m-320 10 h10 m98 0 h10 m20 0 h10 m0 0 h72 m-102 0 h20 m82 0 h20 m-122 0 q10 0 10 10 m102 0 q0 -10 10 -10 m-112 10 v12 m102 0 v-12 m-102 12 q0 10 10 10 m82 0 q10 0 10 -10 m-92 10 h10 m62 0 h10 m20 -32 h10 m50 0 h10 m40 -140 h10 m98 0 h10 m0 0 h10 m28 0 h10 m23 -76 h-3"/>
   <polygon points="865 127 873 123 873 131"/>
   <polygon points="865 127 857 123 857 131"/>
</svg>
