<?xml version="1.0" encoding="UTF-8"?>
<svg xmlns="http://www.w3.org/2000/svg" width="451" height="145">
   <defs>
      <style type="text/css">
    @namespace "http://www.w3.org/2000/svg";
    .line                 {fill: none; stroke: #004900; stroke-width: 1;}
    .bold-line            {stroke: #001400; shape-rendering: crispEdges; stroke-width: 2;}
    .thin-line            {stroke: #001F00; shape-rendering: crispEdges}
    .filled               {fill: #004900; stroke: none;}
    text.terminal         {font-family: Verdana, Sans-serif;
                            font-size: 12px;
                            fill: #001400;
                            font-weight: bold;
                          }
    text.nonterminal      {font-family: Verdana, Sans-serif;
                            font-size: 12px;
                            fill: #001A00;
                            font-weight: normal;
                          }
    text.regexp           {font-family: Verdana, Sans-serif;
                            font-size: 12px;
                            fill: #001F00;
                            font-weight: normal;
                          }
    rect, circle, polygon {fill: #004900; stroke: #004900;}
    rect.terminal         {fill: #E5FFE5; stroke: #004900; stroke-width: 1;}
    rect.nonterminal      {fill: #F1FFF1; stroke: #004900; stroke-width: 1;}
    rect.text             {fill: none; stroke: none;}
    polygon.regexp        {fill: #F7FFF7; stroke: #004900; stroke-width: 1;}
  </style>
   </defs>
   <polygon points="9 17 1 13 1 21"/>
   <polygon points="17 17 9 13 9 21"/>
   <a xmlns:xlink="http://www.w3.org/1999/xlink"
      xlink:href="#ValuePattern"
      xlink:title="ValuePattern">
      <rect x="51" y="3" width="102" height="32"/>
      <rect x="49" y="1" width="102" height="32" class="nonterminal"/>
      <text class="nonterminal" x="59" y="21">ValuePattern</text>
   </a>
   <rect x="193" y="35" width="28" height="32" rx="10"/>
   <rect x="191"
         y="33"
         width="28"
         height="32"
         class="terminal"
         rx="10"/>
   <text class="terminal" x="201" y="53">..</text>
   <a xmlns:xlink="http://www.w3.org/1999/xlink"
      xlink:href="#ValuePattern"
      xlink:title="ValuePattern">
      <rect x="261" y="67" width="102" height="32"/>
      <rect x="259" y="65" width="102" height="32" class="nonterminal"/>
      <text class="nonterminal" x="269" y="85">ValuePattern</text>
   </a>
   <rect x="51" y="111" width="28" height="32" rx="10"/>
   <rect x="49"
         y="109"
         width="28"
         height="32"
         class="terminal"
         rx="10"/>
   <text class="terminal" x="59" y="129">..</text>
   <a xmlns:xlink="http://www.w3.org/1999/xlink"
      xlink:href="#ValuePattern"
      xlink:title="ValuePattern">
      <rect x="99" y="111" width="102" height="32"/>
      <rect x="97" y="109" width="102" height="32" class="nonterminal"/>
      <text class="nonterminal" x="107" y="129">ValuePattern</text>
   </a>
   <path class="line"
         d="m17 17 h2 m20 0 h10 m102 0 h10 m20 0 h10 m0 0 h200 m-230 0 h20 m210 0 h20 m-250 0 q10 0 10 10 m230 0 q0 -10 10 -10 m-240 10 v12 m230 0 v-12 m-230 12 q0 10 10 10 m210 0 q10 0 10 -10 m-220 10 h10 m28 0 h10 m20 0 h10 m0 0 h112 m-142 0 h20 m122 0 h20 m-162 0 q10 0 10 10 m142 0 q0 -10 10 -10 m-152 10 v12 m142 0 v-12 m-142 12 q0 10 10 10 m122 0 q10 0 10 -10 m-132 10 h10 m102 0 h10 m-352 -64 h20 m372 0 h20 m-412 0 q10 0 10 10 m392 0 q0 -10 10 -10 m-402 10 v88 m392 0 v-88 m-392 88 q0 10 10 10 m372 0 q10 0 10 -10 m-382 10 h10 m28 0 h10 m0 0 h10 m102 0 h10 m0 0 h202 m23 -108 h-3"/>
   <polygon points="441 17 449 13 449 21"/>
   <polygon points="441 17 433 13 433 21"/>
</svg>
