<?xml version="1.0" encoding="UTF-8"?>
<svg xmlns="http://www.w3.org/2000/svg" width="411" height="113">
   <defs>
      <style type="text/css">
    @namespace "http://www.w3.org/2000/svg";
    .line                 {fill: none; stroke: #332900; stroke-width: 1;}
    .bold-line            {stroke: #141000; shape-rendering: crispEdges; stroke-width: 2;}
    .thin-line            {stroke: #1F1800; shape-rendering: crispEdges}
    .filled               {fill: #332900; stroke: none;}
    text.terminal         {font-family: Verdana, Sans-serif;
                            font-size: 12px;
                            fill: #141000;
                            font-weight: bold;
                          }
    text.nonterminal      {font-family: Verdana, Sans-serif;
                            font-size: 12px;
                            fill: #1A1400;
                            font-weight: normal;
                          }
    text.regexp           {font-family: Verdana, Sans-serif;
                            font-size: 12px;
                            fill: #1F1800;
                            font-weight: normal;
                          }
    rect, circle, polygon {fill: #332900; stroke: #332900;}
    rect.terminal         {fill: #FFDB4D; stroke: #332900; stroke-width: 1;}
    rect.nonterminal      {fill: #FFEC9E; stroke: #332900; stroke-width: 1;}
    rect.text             {fill: none; stroke: none;}
    polygon.regexp        {fill: #FFF4C7; stroke: #332900; stroke-width: 1;}
  </style>
   </defs>
   <polygon points="9 17 1 13 1 21"/>
   <polygon points="17 17 9 13 9 21"/>
   <a xmlns:xlink="http://www.w3.org/1999/xlink"
      xlink:href="#ValuePattern"
      xlink:title="ValuePattern">
      <rect x="51" y="3" width="102" height="32"/>
      <rect x="49" y="1" width="102" height="32" class="nonterminal"/>
      <text class="nonterminal" x="59" y="21">ValuePattern</text>
   </a>
   <rect x="173" y="3" width="28" height="32" rx="10"/>
   <rect x="171"
         y="1"
         width="28"
         height="32"
         class="terminal"
         rx="10"/>
   <text class="terminal" x="181" y="21">..</text>
   <a xmlns:xlink="http://www.w3.org/1999/xlink"
      xlink:href="#ValuePattern"
      xlink:title="ValuePattern">
      <rect x="241" y="35" width="102" height="32"/>
      <rect x="239" y="33" width="102" height="32" class="nonterminal"/>
      <text class="nonterminal" x="249" y="53">ValuePattern</text>
   </a>
   <rect x="51" y="79" width="28" height="32" rx="10"/>
   <rect x="49"
         y="77"
         width="28"
         height="32"
         class="terminal"
         rx="10"/>
   <text class="terminal" x="59" y="97">..</text>
   <a xmlns:xlink="http://www.w3.org/1999/xlink"
      xlink:href="#ValuePattern"
      xlink:title="ValuePattern">
      <rect x="99" y="79" width="102" height="32"/>
      <rect x="97" y="77" width="102" height="32" class="nonterminal"/>
      <text class="nonterminal" x="107" y="97">ValuePattern</text>
   </a>
   <path class="line"
         d="m17 17 h2 m20 0 h10 m102 0 h10 m0 0 h10 m28 0 h10 m20 0 h10 m0 0 h112 m-142 0 h20 m122 0 h20 m-162 0 q10 0 10 10 m142 0 q0 -10 10 -10 m-152 10 v12 m142 0 v-12 m-142 12 q0 10 10 10 m122 0 q10 0 10 -10 m-132 10 h10 m102 0 h10 m-332 -32 h20 m332 0 h20 m-372 0 q10 0 10 10 m352 0 q0 -10 10 -10 m-362 10 v56 m352 0 v-56 m-352 56 q0 10 10 10 m332 0 q10 0 10 -10 m-342 10 h10 m28 0 h10 m0 0 h10 m102 0 h10 m0 0 h162 m23 -76 h-3"/>
   <polygon points="401 17 409 13 409 21"/>
   <polygon points="401 17 393 13 393 21"/>
</svg>
