<?xml version="1.0" encoding="UTF-8"?>
<svg xmlns="http://www.w3.org/2000/svg" width="855" height="145">
   <defs>
      <style type="text/css">
    @namespace "http://www.w3.org/2000/svg";
    .line                 {fill: none; stroke: #174B00; stroke-width: 1;}
    .bold-line            {stroke: #061400; shape-rendering: crispEdges; stroke-width: 2;}
    .thin-line            {stroke: #091F00; shape-rendering: crispEdges}
    .filled               {fill: #174B00; stroke: none;}
    text.terminal         {font-family: Verdana, Sans-serif;
                            font-size: 12px;
                            fill: #061400;
                            font-weight: bold;
                          }
    text.nonterminal      {font-family: Verdana, Sans-serif;
                            font-size: 12px;
                            fill: #081A00;
                            font-weight: normal;
                          }
    text.regexp           {font-family: Verdana, Sans-serif;
                            font-size: 12px;
                            fill: #091F00;
                            font-weight: normal;
                          }
    rect, circle, polygon {fill: #174B00; stroke: #174B00;}
    rect.terminal         {fill: #F8FFF5; stroke: #174B00; stroke-width: 1;}
    rect.nonterminal      {fill: #FBFFFA; stroke: #174B00; stroke-width: 1;}
    rect.text             {fill: none; stroke: none;}
    polygon.regexp        {fill: #FDFFFC; stroke: #174B00; stroke-width: 1;}
  </style>
   </defs>
   <polygon points="9 17 1 13 1 21"/>
   <polygon points="17 17 9 13 9 21"/>
   <a xmlns:xlink="http://www.w3.org/1999/xlink"
      xlink:href="#DECIMAL_INTEGER"
      xlink:title="DECIMAL_INTEGER">
      <rect x="71" y="67" width="138" height="32"/>
      <rect x="69" y="65" width="138" height="32" class="nonterminal"/>
      <text class="nonterminal" x="79" y="85">DECIMAL_INTEGER</text>
   </a>
   <rect x="249" y="35" width="24" height="32" rx="10"/>
   <rect x="247"
         y="33"
         width="24"
         height="32"
         class="terminal"
         rx="10"/>
   <text class="terminal" x="257" y="53">.</text>
   <a xmlns:xlink="http://www.w3.org/1999/xlink"
      xlink:href="#DECIMAL_INTEGER"
      xlink:title="DECIMAL_INTEGER">
      <rect x="313" y="3" width="138" height="32"/>
      <rect x="311" y="1" width="138" height="32" class="nonterminal"/>
      <text class="nonterminal" x="321" y="21">DECIMAL_INTEGER</text>
   </a>
   <rect x="511" y="35" width="28" height="32" rx="10"/>
   <rect x="509"
         y="33"
         width="28"
         height="32"
         class="terminal"
         rx="10"/>
   <text class="terminal" x="519" y="53">e</text>
   <rect x="511" y="79" width="28" height="32" rx="10"/>
   <rect x="509"
         y="77"
         width="28"
         height="32"
         class="terminal"
         rx="10"/>
   <text class="terminal" x="519" y="97">E</text>
   <rect x="599" y="67" width="30" height="32" rx="10"/>
   <rect x="597"
         y="65"
         width="30"
         height="32"
         class="terminal"
         rx="10"/>
   <text class="terminal" x="607" y="85">+</text>
   <rect x="599" y="111" width="26" height="32" rx="10"/>
   <rect x="597"
         y="109"
         width="26"
         height="32"
         class="terminal"
         rx="10"/>
   <text class="terminal" x="607" y="129">-</text>
   <a xmlns:xlink="http://www.w3.org/1999/xlink"
      xlink:href="#DECIMAL_INTEGER"
      xlink:title="DECIMAL_INTEGER">
      <rect x="669" y="35" width="138" height="32"/>
      <rect x="667" y="33" width="138" height="32" class="nonterminal"/>
      <text class="nonterminal" x="677" y="53">DECIMAL_INTEGER</text>
   </a>
   <path class="line"
         d="m17 17 h2 m20 0 h10 m0 0 h232 m-262 0 h20 m242 0 h20 m-282 0 q10 0 10 10 m262 0 q0 -10 10 -10 m-272 10 v12 m262 0 v-12 m-262 12 q0 10 10 10 m242 0 q10 0 10 -10 m-232 10 h10 m0 0 h148 m-178 0 h20 m158 0 h20 m-198 0 q10 0 10 10 m178 0 q0 -10 10 -10 m-188 10 v12 m178 0 v-12 m-178 12 q0 10 10 10 m158 0 q10 0 10 -10 m-168 10 h10 m138 0 h10 m20 -32 h10 m24 0 h10 m20 -32 h10 m138 0 h10 m20 0 h10 m0 0 h326 m-356 0 h20 m336 0 h20 m-376 0 q10 0 10 10 m356 0 q0 -10 10 -10 m-366 10 v12 m356 0 v-12 m-356 12 q0 10 10 10 m336 0 q10 0 10 -10 m-326 10 h10 m28 0 h10 m-68 0 h20 m48 0 h20 m-88 0 q10 0 10 10 m68 0 q0 -10 10 -10 m-78 10 v24 m68 0 v-24 m-68 24 q0 10 10 10 m48 0 q10 0 10 -10 m-58 10 h10 m28 0 h10 m40 -44 h10 m0 0 h40 m-70 0 h20 m50 0 h20 m-90 0 q10 0 10 10 m70 0 q0 -10 10 -10 m-80 10 v12 m70 0 v-12 m-70 12 q0 10 10 10 m50 0 q10 0 10 -10 m-60 10 h10 m30 0 h10 m-60 -10 v20 m70 0 v-20 m-70 20 v24 m70 0 v-24 m-70 24 q0 10 10 10 m50 0 q10 0 10 -10 m-60 10 h10 m26 0 h10 m0 0 h4 m20 -76 h10 m138 0 h10 m23 -32 h-3"/>
   <polygon points="845 17 853 13 853 21"/>
   <polygon points="845 17 837 13 837 21"/>
</svg>
