<?xml version="1.0" encoding="UTF-8"?>
<svg xmlns="http://www.w3.org/2000/svg" width="389" height="145">
   <defs>
      <style type="text/css">
    @namespace "http://www.w3.org/2000/svg";
    .line                 {fill: none; stroke: #000045; stroke-width: 1;}
    .bold-line            {stroke: #000014; shape-rendering: crispEdges; stroke-width: 2;}
    .thin-line            {stroke: #00001F; shape-rendering: crispEdges}
    .filled               {fill: #000045; stroke: none;}
    text.terminal         {font-family: Verdana, Sans-serif;
                            font-size: 12px;
                            fill: #000014;
                            font-weight: bold;
                          }
    text.nonterminal      {font-family: Verdana, Sans-serif;
                            font-size: 12px;
                            fill: #00001A;
                            font-weight: normal;
                          }
    text.regexp           {font-family: Verdana, Sans-serif;
                            font-size: 12px;
                            fill: #00001F;
                            font-weight: normal;
                          }
    rect, circle, polygon {fill: #000045; stroke: #000045;}
    rect.terminal         {fill: #CCCCFF; stroke: #000045; stroke-width: 1;}
    rect.nonterminal      {fill: #E3E3FF; stroke: #000045; stroke-width: 1;}
    rect.text             {fill: none; stroke: none;}
    polygon.regexp        {fill: #EFEFFF; stroke: #000045; stroke-width: 1;}
  </style>
   </defs>
   <polygon points="9 17 1 13 1 21"/>
   <polygon points="17 17 9 13 9 21"/>
   <a xmlns:xlink="http://www.w3.org/1999/xlink"
      xlink:href="#Term"
      xlink:title="Term">
      <rect x="31" y="3" width="52" height="32"/>
      <rect x="29" y="1" width="52" height="32" class="nonterminal"/>
      <text class="nonterminal" x="39" y="21">Term</text>
   </a>
   <a xmlns:xlink="http://www.w3.org/1999/xlink"
      xlink:href="#RelationalOperator"
      xlink:title="RelationalOperator">
      <rect x="123" y="35" width="140" height="32"/>
      <rect x="121" y="33" width="140" height="32" class="nonterminal"/>
      <text class="nonterminal" x="131" y="53">RelationalOperator</text>
   </a>
   <a xmlns:xlink="http://www.w3.org/1999/xlink"
      xlink:href="#Term"
      xlink:title="Term">
      <rect x="283" y="35" width="52" height="32"/>
      <rect x="281" y="33" width="52" height="32" class="nonterminal"/>
      <text class="nonterminal" x="291" y="53">Term</text>
   </a>
   <rect x="123" y="79" width="30" height="32" rx="10"/>
   <rect x="121"
         y="77"
         width="30"
         height="32"
         class="terminal"
         rx="10"/>
   <text class="terminal" x="131" y="97">is</text>
   <rect x="193" y="111" width="42" height="32" rx="10"/>
   <rect x="191"
         y="109"
         width="42"
         height="32"
         class="terminal"
         rx="10"/>
   <text class="terminal" x="201" y="129">not</text>
   <a xmlns:xlink="http://www.w3.org/1999/xlink"
      xlink:href="#Pattern"
      xlink:title="Pattern">
      <rect x="275" y="79" width="66" height="32"/>
      <rect x="273" y="77" width="66" height="32" class="nonterminal"/>
      <text class="nonterminal" x="283" y="97">Pattern</text>
   </a>
   <path class="line"
         d="m17 17 h2 m0 0 h10 m52 0 h10 m20 0 h10 m0 0 h228 m-258 0 h20 m238 0 h20 m-278 0 q10 0 10 10 m258 0 q0 -10 10 -10 m-268 10 v12 m258 0 v-12 m-258 12 q0 10 10 10 m238 0 q10 0 10 -10 m-248 10 h10 m140 0 h10 m0 0 h10 m52 0 h10 m0 0 h6 m-248 -10 v20 m258 0 v-20 m-258 20 v24 m258 0 v-24 m-258 24 q0 10 10 10 m238 0 q10 0 10 -10 m-248 10 h10 m30 0 h10 m20 0 h10 m0 0 h52 m-82 0 h20 m62 0 h20 m-102 0 q10 0 10 10 m82 0 q0 -10 10 -10 m-92 10 v12 m82 0 v-12 m-82 12 q0 10 10 10 m62 0 q10 0 10 -10 m-72 10 h10 m42 0 h10 m20 -32 h10 m66 0 h10 m23 -76 h-3"/>
   <polygon points="379 17 387 13 387 21"/>
   <polygon points="379 17 371 13 371 21"/>
</svg>
