<?xml version="1.0" encoding="UTF-8"?>
<svg xmlns="http://www.w3.org/2000/svg" width="457" height="157">
   <defs>
      <style type="text/css">
    @namespace "http://www.w3.org/2000/svg";
    .line                 {fill: none; stroke: #174B00; stroke-width: 1;}
    .bold-line            {stroke: #061400; shape-rendering: crispEdges; stroke-width: 2;}
    .thin-line            {stroke: #091F00; shape-rendering: crispEdges}
    .filled               {fill: #174B00; stroke: none;}
    text.terminal         {font-family: Verdana, Sans-serif;
                            font-size: 12px;
                            fill: #061400;
                            font-weight: bold;
                          }
    text.nonterminal      {font-family: Verdana, Sans-serif;
                            font-size: 12px;
                            fill: #081A00;
                            font-weight: normal;
                          }
    text.regexp           {font-family: Verdana, Sans-serif;
                            font-size: 12px;
                            fill: #091F00;
                            font-weight: normal;
                          }
    rect, circle, polygon {fill: #174B00; stroke: #174B00;}
    rect.terminal         {fill: #F8FFF5; stroke: #174B00; stroke-width: 1;}
    rect.nonterminal      {fill: #FBFFFA; stroke: #174B00; stroke-width: 1;}
    rect.text             {fill: none; stroke: none;}
    polygon.regexp        {fill: #FDFFFC; stroke: #174B00; stroke-width: 1;}
  </style>
   </defs>
   <polygon points="9 17 1 13 1 21"/>
   <polygon points="17 17 9 13 9 21"/>
   <a xmlns:xlink="http://www.w3.org/1999/xlink"
      xlink:href="#Term"
      xlink:title="Term">
      <rect x="31" y="3" width="52" height="32"/>
      <rect x="29" y="1" width="52" height="32" class="nonterminal"/>
      <text class="nonterminal" x="39" y="21">Term</text>
   </a>
   <a xmlns:xlink="http://www.w3.org/1999/xlink"
      xlink:href="#RelationalOperator"
      xlink:title="RelationalOperator">
      <rect x="123" y="35" width="140" height="32"/>
      <rect x="121" y="33" width="140" height="32" class="nonterminal"/>
      <text class="nonterminal" x="131" y="53">RelationalOperator</text>
   </a>
   <a xmlns:xlink="http://www.w3.org/1999/xlink"
      xlink:href="#Term"
      xlink:title="Term">
      <rect x="283" y="35" width="52" height="32"/>
      <rect x="281" y="33" width="52" height="32" class="nonterminal"/>
      <text class="nonterminal" x="291" y="53">Term</text>
   </a>
   <rect x="123" y="79" width="30" height="32" rx="10"/>
   <rect x="121"
         y="77"
         width="30"
         height="32"
         class="terminal"
         rx="10"/>
   <text class="terminal" x="131" y="97">is</text>
   <rect x="193" y="111" width="42" height="32" rx="10"/>
   <rect x="191"
         y="109"
         width="42"
         height="32"
         class="terminal"
         rx="10"/>
   <text class="terminal" x="201" y="129">not</text>
   <a xmlns:xlink="http://www.w3.org/1999/xlink"
      xlink:href="#TYPE_NAME"
      xlink:title="TYPE_NAME">
      <rect x="295" y="79" width="94" height="32"/>
      <rect x="293" y="77" width="94" height="32" class="nonterminal"/>
      <text class="nonterminal" x="303" y="97">TYPE_NAME</text>
   </a>
   <a xmlns:xlink="http://www.w3.org/1999/xlink"
      xlink:href="#IDENTIFIER"
      xlink:title="IDENTIFIER">
      <rect x="295" y="123" width="92" height="32"/>
      <rect x="293" y="121" width="92" height="32" class="nonterminal"/>
      <text class="nonterminal" x="303" y="141">IDENTIFIER</text>
   </a>
   <path class="line"
         d="m17 17 h2 m0 0 h10 m52 0 h10 m20 0 h10 m0 0 h296 m-326 0 h20 m306 0 h20 m-346 0 q10 0 10 10 m326 0 q0 -10 10 -10 m-336 10 v12 m326 0 v-12 m-326 12 q0 10 10 10 m306 0 q10 0 10 -10 m-316 10 h10 m140 0 h10 m0 0 h10 m52 0 h10 m0 0 h74 m-316 -10 v20 m326 0 v-20 m-326 20 v24 m326 0 v-24 m-326 24 q0 10 10 10 m306 0 q10 0 10 -10 m-316 10 h10 m30 0 h10 m20 0 h10 m0 0 h52 m-82 0 h20 m62 0 h20 m-102 0 q10 0 10 10 m82 0 q0 -10 10 -10 m-92 10 v12 m82 0 v-12 m-82 12 q0 10 10 10 m62 0 q10 0 10 -10 m-72 10 h10 m42 0 h10 m40 -32 h10 m94 0 h10 m-134 0 h20 m114 0 h20 m-154 0 q10 0 10 10 m134 0 q0 -10 10 -10 m-144 10 v24 m134 0 v-24 m-134 24 q0 10 10 10 m114 0 q10 0 10 -10 m-124 10 h10 m92 0 h10 m0 0 h2 m43 -120 h-3"/>
   <polygon points="447 17 455 13 455 21"/>
   <polygon points="447 17 439 13 439 21"/>
</svg>
