<?xml version="1.0" encoding="UTF-8"?>
<svg xmlns="http://www.w3.org/2000/svg" width="383" height="157">
   <defs>
      <style type="text/css">
    @namespace "http://www.w3.org/2000/svg";
    .line                 {fill: none; stroke: #332900; stroke-width: 1;}
    .bold-line            {stroke: #141000; shape-rendering: crispEdges; stroke-width: 2;}
    .thin-line            {stroke: #1F1800; shape-rendering: crispEdges}
    .filled               {fill: #332900; stroke: none;}
    text.terminal         {font-family: Verdana, Sans-serif;
                            font-size: 12px;
                            fill: #141000;
                            font-weight: bold;
                          }
    text.nonterminal      {font-family: Verdana, Sans-serif;
                            font-size: 12px;
                            fill: #1A1400;
                            font-weight: normal;
                          }
    text.regexp           {font-family: Verdana, Sans-serif;
                            font-size: 12px;
                            fill: #1F1800;
                            font-weight: normal;
                          }
    rect, circle, polygon {fill: #332900; stroke: #332900;}
    rect.terminal         {fill: #FFDB4D; stroke: #332900; stroke-width: 1;}
    rect.nonterminal      {fill: #FFEC9E; stroke: #332900; stroke-width: 1;}
    rect.text             {fill: none; stroke: none;}
    polygon.regexp        {fill: #FFF4C7; stroke: #332900; stroke-width: 1;}
  </style>
   </defs>
   <polygon points="9 17 1 13 1 21"/>
   <polygon points="17 17 9 13 9 21"/>
   <a xmlns:xlink="http://www.w3.org/1999/xlink"
      xlink:href="#Term"
      xlink:title="Term">
      <rect x="31" y="3" width="52" height="32"/>
      <rect x="29" y="1" width="52" height="32" class="nonterminal"/>
      <text class="nonterminal" x="39" y="21">Term</text>
   </a>
   <a xmlns:xlink="http://www.w3.org/1999/xlink"
      xlink:href="#RelationalOperator"
      xlink:title="RelationalOperator">
      <rect x="123" y="35" width="140" height="32"/>
      <rect x="121" y="33" width="140" height="32" class="nonterminal"/>
      <text class="nonterminal" x="131" y="53">RelationalOperator</text>
   </a>
   <a xmlns:xlink="http://www.w3.org/1999/xlink"
      xlink:href="#Term"
      xlink:title="Term">
      <rect x="283" y="35" width="52" height="32"/>
      <rect x="281" y="33" width="52" height="32" class="nonterminal"/>
      <text class="nonterminal" x="291" y="53">Term</text>
   </a>
   <rect x="123" y="79" width="30" height="32" rx="10"/>
   <rect x="121"
         y="77"
         width="30"
         height="32"
         class="terminal"
         rx="10"/>
   <text class="terminal" x="131" y="97">is</text>
   <a xmlns:xlink="http://www.w3.org/1999/xlink"
      xlink:href="#TYPE_NAME"
      xlink:title="TYPE_NAME">
      <rect x="193" y="79" width="94" height="32"/>
      <rect x="191" y="77" width="94" height="32" class="nonterminal"/>
      <text class="nonterminal" x="201" y="97">TYPE_NAME</text>
   </a>
   <a xmlns:xlink="http://www.w3.org/1999/xlink"
      xlink:href="#IDENTIFIER"
      xlink:title="IDENTIFIER">
      <rect x="193" y="123" width="92" height="32"/>
      <rect x="191" y="121" width="92" height="32" class="nonterminal"/>
      <text class="nonterminal" x="201" y="141">IDENTIFIER</text>
   </a>
   <path class="line"
         d="m17 17 h2 m0 0 h10 m52 0 h10 m20 0 h10 m0 0 h222 m-252 0 h20 m232 0 h20 m-272 0 q10 0 10 10 m252 0 q0 -10 10 -10 m-262 10 v12 m252 0 v-12 m-252 12 q0 10 10 10 m232 0 q10 0 10 -10 m-242 10 h10 m140 0 h10 m0 0 h10 m52 0 h10 m-242 -10 v20 m252 0 v-20 m-252 20 v24 m252 0 v-24 m-252 24 q0 10 10 10 m232 0 q10 0 10 -10 m-242 10 h10 m30 0 h10 m20 0 h10 m94 0 h10 m-134 0 h20 m114 0 h20 m-154 0 q10 0 10 10 m134 0 q0 -10 10 -10 m-144 10 v24 m134 0 v-24 m-134 24 q0 10 10 10 m114 0 q10 0 10 -10 m-124 10 h10 m92 0 h10 m0 0 h2 m20 -44 h28 m23 -76 h-3"/>
   <polygon points="373 17 381 13 381 21"/>
   <polygon points="373 17 365 13 365 21"/>
</svg>
