<?xml version="1.0" encoding="UTF-8"?>
<svg xmlns="http://www.w3.org/2000/svg" width="187" height="521">
   <defs>
      <style type="text/css">
    @namespace "http://www.w3.org/2000/svg";
    .line                 {fill: none; stroke: #00174B; stroke-width: 1;}
    .bold-line            {stroke: #000614; shape-rendering: crispEdges; stroke-width: 2;}
    .thin-line            {stroke: #00091F; shape-rendering: crispEdges}
    .filled               {fill: #00174B; stroke: none;}
    text.terminal         {font-family: Verdana, Sans-serif;
                            font-size: 12px;
                            fill: #000614;
                            font-weight: bold;
                          }
    text.nonterminal      {font-family: Verdana, Sans-serif;
                            font-size: 12px;
                            fill: #00081A;
                            font-weight: normal;
                          }
    text.regexp           {font-family: Verdana, Sans-serif;
                            font-size: 12px;
                            fill: #00091F;
                            font-weight: normal;
                          }
    rect, circle, polygon {fill: #00174B; stroke: #00174B;}
    rect.terminal         {fill: #F5F8FF; stroke: #00174B; stroke-width: 1;}
    rect.nonterminal      {fill: #FAFBFF; stroke: #00174B; stroke-width: 1;}
    rect.text             {fill: none; stroke: none;}
    polygon.regexp        {fill: #FCFDFF; stroke: #00174B; stroke-width: 1;}
  </style>
   </defs>
   <polygon points="9 17 1 13 1 21"/>
   <polygon points="17 17 9 13 9 21"/>
   <rect x="51" y="3" width="40" height="32" rx="10"/>
   <rect x="49"
         y="1"
         width="40"
         height="32"
         class="terminal"
         rx="10"/>
   <text class="terminal" x="59" y="21">==</text>
   <rect x="51" y="47" width="34" height="32" rx="10"/>
   <rect x="49"
         y="45"
         width="34"
         height="32"
         class="terminal"
         rx="10"/>
   <text class="terminal" x="59" y="65">!=</text>
   <rect x="51" y="91" width="30" height="32" rx="10"/>
   <rect x="49"
         y="89"
         width="30"
         height="32"
         class="terminal"
         rx="10"/>
   <text class="terminal" x="59" y="109">&lt;</text>
   <rect x="51" y="135" width="30" height="32" rx="10"/>
   <rect x="49"
         y="133"
         width="30"
         height="32"
         class="terminal"
         rx="10"/>
   <text class="terminal" x="59" y="153">&gt;</text>
   <rect x="51" y="179" width="40" height="32" rx="10"/>
   <rect x="49"
         y="177"
         width="40"
         height="32"
         class="terminal"
         rx="10"/>
   <text class="terminal" x="59" y="197">&lt;=</text>
   <rect x="51" y="223" width="40" height="32" rx="10"/>
   <rect x="49"
         y="221"
         width="40"
         height="32"
         class="terminal"
         rx="10"/>
   <text class="terminal" x="59" y="241">&gt;=</text>
   <rect x="51" y="267" width="50" height="32" rx="10"/>
   <rect x="49"
         y="265"
         width="50"
         height="32"
         class="terminal"
         rx="10"/>
   <text class="terminal" x="59" y="285">===</text>
   <rect x="51" y="311" width="46" height="32" rx="10"/>
   <rect x="49"
         y="309"
         width="46"
         height="32"
         class="terminal"
         rx="10"/>
   <text class="terminal" x="59" y="329">!==</text>
   <rect x="51" y="355" width="88" height="32" rx="10"/>
   <rect x="49"
         y="353"
         width="88"
         height="32"
         class="terminal"
         rx="10"/>
   <text class="terminal" x="59" y="373">startswith</text>
   <rect x="51" y="399" width="82" height="32" rx="10"/>
   <rect x="49"
         y="397"
         width="82"
         height="32"
         class="terminal"
         rx="10"/>
   <text class="terminal" x="59" y="417">endswith</text>
   <rect x="51" y="443" width="76" height="32" rx="10"/>
   <rect x="49"
         y="441"
         width="76"
         height="32"
         class="terminal"
         rx="10"/>
   <text class="terminal" x="59" y="461">contains</text>
   <rect x="51" y="487" width="76" height="32" rx="10"/>
   <rect x="49"
         y="485"
         width="76"
         height="32"
         class="terminal"
         rx="10"/>
   <text class="terminal" x="59" y="505">matches</text>
   <path class="line"
         d="m17 17 h2 m20 0 h10 m40 0 h10 m0 0 h48 m-128 0 h20 m108 0 h20 m-148 0 q10 0 10 10 m128 0 q0 -10 10 -10 m-138 10 v24 m128 0 v-24 m-128 24 q0 10 10 10 m108 0 q10 0 10 -10 m-118 10 h10 m34 0 h10 m0 0 h54 m-118 -10 v20 m128 0 v-20 m-128 20 v24 m128 0 v-24 m-128 24 q0 10 10 10 m108 0 q10 0 10 -10 m-118 10 h10 m30 0 h10 m0 0 h58 m-118 -10 v20 m128 0 v-20 m-128 20 v24 m128 0 v-24 m-128 24 q0 10 10 10 m108 0 q10 0 10 -10 m-118 10 h10 m30 0 h10 m0 0 h58 m-118 -10 v20 m128 0 v-20 m-128 20 v24 m128 0 v-24 m-128 24 q0 10 10 10 m108 0 q10 0 10 -10 m-118 10 h10 m40 0 h10 m0 0 h48 m-118 -10 v20 m128 0 v-20 m-128 20 v24 m128 0 v-24 m-128 24 q0 10 10 10 m108 0 q10 0 10 -10 m-118 10 h10 m40 0 h10 m0 0 h48 m-118 -10 v20 m128 0 v-20 m-128 20 v24 m128 0 v-24 m-128 24 q0 10 10 10 m108 0 q10 0 10 -10 m-118 10 h10 m50 0 h10 m0 0 h38 m-118 -10 v20 m128 0 v-20 m-128 20 v24 m128 0 v-24 m-128 24 q0 10 10 10 m108 0 q10 0 10 -10 m-118 10 h10 m46 0 h10 m0 0 h42 m-118 -10 v20 m128 0 v-20 m-128 20 v24 m128 0 v-24 m-128 24 q0 10 10 10 m108 0 q10 0 10 -10 m-118 10 h10 m88 0 h10 m-118 -10 v20 m128 0 v-20 m-128 20 v24 m128 0 v-24 m-128 24 q0 10 10 10 m108 0 q10 0 10 -10 m-118 10 h10 m82 0 h10 m0 0 h6 m-118 -10 v20 m128 0 v-20 m-128 20 v24 m128 0 v-24 m-128 24 q0 10 10 10 m108 0 q10 0 10 -10 m-118 10 h10 m76 0 h10 m0 0 h12 m-118 -10 v20 m128 0 v-20 m-128 20 v24 m128 0 v-24 m-128 24 q0 10 10 10 m108 0 q10 0 10 -10 m-118 10 h10 m76 0 h10 m0 0 h12 m23 -484 h-3"/>
   <polygon points="177 17 185 13 185 21"/>
   <polygon points="177 17 169 13 169 21"/>
</svg>
