<?xml version="1.0" encoding="UTF-8"?>
<svg xmlns="http://www.w3.org/2000/svg" width="369" height="113">
   <defs>
      <style type="text/css">
    @namespace "http://www.w3.org/2000/svg";
    .line                 {fill: none; stroke: #00174B; stroke-width: 1;}
    .bold-line            {stroke: #000614; shape-rendering: crispEdges; stroke-width: 2;}
    .thin-line            {stroke: #00091F; shape-rendering: crispEdges}
    .filled               {fill: #00174B; stroke: none;}
    text.terminal         {font-family: Verdana, Sans-serif;
                            font-size: 12px;
                            fill: #000614;
                            font-weight: bold;
                          }
    text.nonterminal      {font-family: Verdana, Sans-serif;
                            font-size: 12px;
                            fill: #00081A;
                            font-weight: normal;
                          }
    text.regexp           {font-family: Verdana, Sans-serif;
                            font-size: 12px;
                            fill: #00091F;
                            font-weight: normal;
                          }
    rect, circle, polygon {fill: #00174B; stroke: #00174B;}
    rect.terminal         {fill: #F5F8FF; stroke: #00174B; stroke-width: 1;}
    rect.nonterminal      {fill: #FAFBFF; stroke: #00174B; stroke-width: 1;}
    rect.text             {fill: none; stroke: none;}
    polygon.regexp        {fill: #FCFDFF; stroke: #00174B; stroke-width: 1;}
  </style>
   </defs>
   <polygon points="9 33 1 29 1 37"/>
   <polygon points="17 33 9 29 9 37"/>
   <rect x="31" y="19" width="24" height="32" rx="10"/>
   <rect x="29"
         y="17"
         width="24"
         height="32"
         class="terminal"
         rx="10"/>
   <text class="terminal" x="39" y="37">'</text>
   <polygon points="135 35 142 19 182 19 189 35 182 51 142 51"/>
   <polygon points="133 33 140 17 180 17 187 33 180 49 140 49" class="regexp"/>
   <text class="regexp" x="148" y="37">[^']</text>
   <a xmlns:xlink="http://www.w3.org/1999/xlink"
      xlink:href="#ESCAPE_SEQ"
      xlink:title="ESCAPE_SEQ">
      <rect x="135" y="63" width="102" height="32"/>
      <rect x="133" y="61" width="102" height="32" class="nonterminal"/>
      <text class="nonterminal" x="143" y="81">ESCAPE_SEQ</text>
   </a>
   <rect x="317" y="19" width="24" height="32" rx="10"/>
   <rect x="315"
         y="17"
         width="24"
         height="32"
         class="terminal"
         rx="10"/>
   <text class="terminal" x="325" y="37">'</text>
   <path class="line"
         d="m17 33 h2 m0 0 h10 m24 0 h10 m60 0 h10 m54 0 h10 m0 0 h48 m-142 0 h20 m122 0 h20 m-162 0 q10 0 10 10 m142 0 q0 -10 10 -10 m-152 10 v24 m142 0 v-24 m-142 24 q0 10 10 10 m122 0 q10 0 10 -10 m-132 10 h10 m102 0 h10 m-162 -44 l20 0 m-1 0 q-9 0 -9 -10 l0 -12 q0 -10 10 -10 m162 32 l20 0 m-20 0 q10 0 10 -10 l0 -12 q0 -10 -10 -10 m-162 0 h10 m0 0 h152 m-202 32 h20 m202 0 h20 m-242 0 q10 0 10 10 m222 0 q0 -10 10 -10 m-232 10 v58 m222 0 v-58 m-222 58 q0 10 10 10 m202 0 q10 0 10 -10 m-212 10 h10 m0 0 h192 m20 -78 h10 m24 0 h10 m3 0 h-3"/>
   <polygon points="359 33 367 29 367 37"/>
   <polygon points="359 33 351 29 351 37"/>
</svg>
