<?xml version="1.0" encoding="UTF-8"?>
<svg xmlns="http://www.w3.org/2000/svg" width="289" height="115">
   <defs>
      <style type="text/css">
    @namespace "http://www.w3.org/2000/svg";
    .line                 {fill: none; stroke: #004900; stroke-width: 1;}
    .bold-line            {stroke: #001400; shape-rendering: crispEdges; stroke-width: 2;}
    .thin-line            {stroke: #001F00; shape-rendering: crispEdges}
    .filled               {fill: #004900; stroke: none;}
    text.terminal         {font-family: Verdana, Sans-serif;
                            font-size: 12px;
                            fill: #001400;
                            font-weight: bold;
                          }
    text.nonterminal      {font-family: Verdana, Sans-serif;
                            font-size: 12px;
                            fill: #001A00;
                            font-weight: normal;
                          }
    text.regexp           {font-family: Verdana, Sans-serif;
                            font-size: 12px;
                            fill: #001F00;
                            font-weight: normal;
                          }
    rect, circle, polygon {fill: #004900; stroke: #004900;}
    rect.terminal         {fill: #E5FFE5; stroke: #004900; stroke-width: 1;}
    rect.nonterminal      {fill: #F1FFF1; stroke: #004900; stroke-width: 1;}
    rect.text             {fill: none; stroke: none;}
    polygon.regexp        {fill: #F7FFF7; stroke: #004900; stroke-width: 1;}
  </style>
   </defs>
   <polygon points="9 95 1 91 1 99"/>
   <polygon points="17 95 9 91 9 99"/>
   <rect x="31" y="81" width="24" height="32" rx="10"/>
   <rect x="29"
         y="79"
         width="24"
         height="32"
         class="terminal"
         rx="10"/>
   <text class="terminal" x="39" y="99">'</text>
   <polygon points="95 63 102 47 142 47 149 63 142 79 102 79"/>
   <polygon points="93 61 100 45 140 45 147 61 140 77 100 77" class="regexp"/>
   <text class="regexp" x="108" y="65">[^']</text>
   <a xmlns:xlink="http://www.w3.org/1999/xlink"
      xlink:href="#ESCAPE_SEQ"
      xlink:title="ESCAPE_SEQ">
      <rect x="95" y="3" width="102" height="32"/>
      <rect x="93" y="1" width="102" height="32" class="nonterminal"/>
      <text class="nonterminal" x="103" y="21">ESCAPE_SEQ</text>
   </a>
   <rect x="237" y="81" width="24" height="32" rx="10"/>
   <rect x="235"
         y="79"
         width="24"
         height="32"
         class="terminal"
         rx="10"/>
   <text class="terminal" x="245" y="99">'</text>
   <path class="line"
         d="m17 95 h2 m0 0 h10 m24 0 h10 m20 0 h10 m0 0 h112 m-142 0 l20 0 m-1 0 q-9 0 -9 -10 l0 -14 q0 -10 10 -10 m122 34 l20 0 m-20 0 q10 0 10 -10 l0 -14 q0 -10 -10 -10 m-122 0 h10 m54 0 h10 m0 0 h48 m-132 10 l0 -44 q0 -10 10 -10 m132 54 l0 -44 q0 -10 -10 -10 m-122 0 h10 m102 0 h10 m20 78 h10 m24 0 h10 m3 0 h-3"/>
   <polygon points="279 95 287 91 287 99"/>
   <polygon points="279 95 271 91 271 99"/>
</svg>
