<?xml version="1.0" encoding="UTF-8"?>
<svg xmlns="http://www.w3.org/2000/svg" width="327" height="141">
   <defs>
      <style type="text/css">
    @namespace "http://www.w3.org/2000/svg";
    .line                 {fill: none; stroke: #332900; stroke-width: 1;}
    .bold-line            {stroke: #141000; shape-rendering: crispEdges; stroke-width: 2;}
    .thin-line            {stroke: #1F1800; shape-rendering: crispEdges}
    .filled               {fill: #332900; stroke: none;}
    text.terminal         {font-family: Verdana, Sans-serif;
                            font-size: 12px;
                            fill: #141000;
                            font-weight: bold;
                          }
    text.nonterminal      {font-family: Verdana, Sans-serif;
                            font-size: 12px;
                            fill: #1A1400;
                            font-weight: normal;
                          }
    text.regexp           {font-family: Verdana, Sans-serif;
                            font-size: 12px;
                            fill: #1F1800;
                            font-weight: normal;
                          }
    rect, circle, polygon {fill: #332900; stroke: #332900;}
    rect.terminal         {fill: #FFDB4D; stroke: #332900; stroke-width: 1;}
    rect.nonterminal      {fill: #FFEC9E; stroke: #332900; stroke-width: 1;}
    rect.text             {fill: none; stroke: none;}
    polygon.regexp        {fill: #FFF4C7; stroke: #332900; stroke-width: 1;}
  </style>
   </defs>
   <polygon points="9 33 1 29 1 37"/>
   <polygon points="17 33 9 29 9 37"/>
   <rect x="31" y="19" width="28" height="32" rx="10"/>
   <rect x="29"
         y="17"
         width="28"
         height="32"
         class="terminal"
         rx="10"/>
   <text class="terminal" x="39" y="37">$</text>
   <a xmlns:xlink="http://www.w3.org/1999/xlink"
      xlink:href="#LETTER_EXTENDED"
      xlink:title="LETTER_EXTENDED">
      <rect x="119" y="19" width="140" height="32"/>
      <rect x="117" y="17" width="140" height="32" class="nonterminal"/>
      <text class="nonterminal" x="127" y="37">LETTER_EXTENDED</text>
   </a>
   <a xmlns:xlink="http://www.w3.org/1999/xlink"
      xlink:href="#DIGIT"
      xlink:title="DIGIT">
      <rect x="119" y="63" width="56" height="32"/>
      <rect x="117" y="61" width="56" height="32" class="nonterminal"/>
      <text class="nonterminal" x="127" y="81">DIGIT</text>
   </a>
   <a xmlns:xlink="http://www.w3.org/1999/xlink"
      xlink:href="#ESCAPE_SEQ"
      xlink:title="ESCAPE_SEQ">
      <rect x="119" y="107" width="102" height="32"/>
      <rect x="117" y="105" width="102" height="32" class="nonterminal"/>
      <text class="nonterminal" x="127" y="125">ESCAPE_SEQ</text>
   </a>
   <path class="line"
         d="m17 33 h2 m0 0 h10 m28 0 h10 m40 0 h10 m140 0 h10 m-180 0 h20 m160 0 h20 m-200 0 q10 0 10 10 m180 0 q0 -10 10 -10 m-190 10 v24 m180 0 v-24 m-180 24 q0 10 10 10 m160 0 q10 0 10 -10 m-170 10 h10 m56 0 h10 m0 0 h84 m-170 -10 v20 m180 0 v-20 m-180 20 v24 m180 0 v-24 m-180 24 q0 10 10 10 m160 0 q10 0 10 -10 m-170 10 h10 m102 0 h10 m0 0 h38 m-200 -88 l20 0 m-1 0 q-9 0 -9 -10 l0 -12 q0 -10 10 -10 m200 32 l20 0 m-20 0 q10 0 10 -10 l0 -12 q0 -10 -10 -10 m-200 0 h10 m0 0 h190 m23 32 h-3"/>
   <polygon points="317 33 325 29 325 37"/>
   <polygon points="317 33 309 29 309 37"/>
</svg>
