<?xml version="1.0" encoding="UTF-8"?>
<svg xmlns="http://www.w3.org/2000/svg" width="399" height="115">
   <defs>
      <style type="text/css">
    @namespace "http://www.w3.org/2000/svg";
    .line                 {fill: none; stroke: #00174B; stroke-width: 1;}
    .bold-line            {stroke: #000614; shape-rendering: crispEdges; stroke-width: 2;}
    .thin-line            {stroke: #00091F; shape-rendering: crispEdges}
    .filled               {fill: #00174B; stroke: none;}
    text.terminal         {font-family: Verdana, Sans-serif;
                            font-size: 12px;
                            fill: #000614;
                            font-weight: bold;
                          }
    text.nonterminal      {font-family: Verdana, Sans-serif;
                            font-size: 12px;
                            fill: #00081A;
                            font-weight: normal;
                          }
    text.regexp           {font-family: Verdana, Sans-serif;
                            font-size: 12px;
                            fill: #00091F;
                            font-weight: normal;
                          }
    rect, circle, polygon {fill: #00174B; stroke: #00174B;}
    rect.terminal         {fill: #F5F8FF; stroke: #00174B; stroke-width: 1;}
    rect.nonterminal      {fill: #FAFBFF; stroke: #00174B; stroke-width: 1;}
    rect.text             {fill: none; stroke: none;}
    polygon.regexp        {fill: #FCFDFF; stroke: #00174B; stroke-width: 1;}
  </style>
   </defs>
   <polygon points="9 95 1 91 1 99"/>
   <polygon points="17 95 9 91 9 99"/>
   <a xmlns:xlink="http://www.w3.org/1999/xlink"
      xlink:href="#LETTER_EXTENDED"
      xlink:title="LETTER_EXTENDED">
      <rect x="31" y="81" width="140" height="32"/>
      <rect x="29" y="79" width="140" height="32" class="nonterminal"/>
      <text class="nonterminal" x="39" y="99">LETTER_EXTENDED</text>
   </a>
   <a xmlns:xlink="http://www.w3.org/1999/xlink"
      xlink:href="#LETTER_EXTENDED"
      xlink:title="LETTER_EXTENDED">
      <rect x="211" y="47" width="140" height="32"/>
      <rect x="209" y="45" width="140" height="32" class="nonterminal"/>
      <text class="nonterminal" x="219" y="65">LETTER_EXTENDED</text>
   </a>
   <a xmlns:xlink="http://www.w3.org/1999/xlink"
      xlink:href="#DIGIT"
      xlink:title="DIGIT">
      <rect x="211" y="3" width="56" height="32"/>
      <rect x="209" y="1" width="56" height="32" class="nonterminal"/>
      <text class="nonterminal" x="219" y="21">DIGIT</text>
   </a>
   <path class="line"
         d="m17 95 h2 m0 0 h10 m140 0 h10 m20 0 h10 m0 0 h150 m-180 0 l20 0 m-1 0 q-9 0 -9 -10 l0 -14 q0 -10 10 -10 m160 34 l20 0 m-20 0 q10 0 10 -10 l0 -14 q0 -10 -10 -10 m-160 0 h10 m140 0 h10 m-170 10 l0 -44 q0 -10 10 -10 m170 54 l0 -44 q0 -10 -10 -10 m-160 0 h10 m56 0 h10 m0 0 h84 m23 78 h-3"/>
   <polygon points="389 95 397 91 397 99"/>
   <polygon points="389 95 381 91 381 99"/>
</svg>
