<?xml version="1.0" encoding="UTF-8"?>
<svg xmlns="http://www.w3.org/2000/svg" width="339" height="103">
   <defs>
      <style type="text/css">
    @namespace "http://www.w3.org/2000/svg";
    .line                 {fill: none; stroke: #332900; stroke-width: 1;}
    .bold-line            {stroke: #141000; shape-rendering: crispEdges; stroke-width: 2;}
    .thin-line            {stroke: #1F1800; shape-rendering: crispEdges}
    .filled               {fill: #332900; stroke: none;}
    text.terminal         {font-family: Verdana, Sans-serif;
                            font-size: 12px;
                            fill: #141000;
                            font-weight: bold;
                          }
    text.nonterminal      {font-family: Verdana, Sans-serif;
                            font-size: 12px;
                            fill: #1A1400;
                            font-weight: normal;
                          }
    text.regexp           {font-family: Verdana, Sans-serif;
                            font-size: 12px;
                            fill: #1F1800;
                            font-weight: normal;
                          }
    rect, circle, polygon {fill: #332900; stroke: #332900;}
    rect.terminal         {fill: #FFDB4D; stroke: #332900; stroke-width: 1;}
    rect.nonterminal      {fill: #FFEC9E; stroke: #332900; stroke-width: 1;}
    rect.text             {fill: none; stroke: none;}
    polygon.regexp        {fill: #FFF4C7; stroke: #332900; stroke-width: 1;}
  </style>
   </defs>
   <polygon points="9 67 1 63 1 71"/>
   <polygon points="17 67 9 63 9 71"/>
   <a xmlns:xlink="http://www.w3.org/1999/xlink"
      xlink:href="#Label"
      xlink:title="Label">
      <rect x="91" y="19" width="54" height="32"/>
      <rect x="89" y="17" width="54" height="32" class="nonterminal"/>
      <text class="nonterminal" x="99" y="37">Label</text>
   </a>
   <a xmlns:xlink="http://www.w3.org/1999/xlink"
      xlink:href="#Statement"
      xlink:title="Statement">
      <rect x="185" y="53" width="86" height="32"/>
      <rect x="183" y="51" width="86" height="32" class="nonterminal"/>
      <text class="nonterminal" x="193" y="71">Statement</text>
   </a>
   <path class="line"
         d="m17 67 h2 m60 0 h10 m0 0 h64 m-94 0 l20 0 m-1 0 q-9 0 -9 -10 l0 -14 q0 -10 10 -10 m74 34 l20 0 m-20 0 q10 0 10 -10 l0 -14 q0 -10 -10 -10 m-74 0 h10 m54 0 h10 m20 34 h10 m86 0 h10 m-240 0 l20 0 m-1 0 q-9 0 -9 -10 l0 -46 q0 -10 10 -10 m220 66 l20 0 m-20 0 q10 0 10 -10 l0 -46 q0 -10 -10 -10 m-220 0 h10 m0 0 h210 m-260 66 h20 m260 0 h20 m-300 0 q10 0 10 10 m280 0 q0 -10 10 -10 m-290 10 v14 m280 0 v-14 m-280 14 q0 10 10 10 m260 0 q10 0 10 -10 m-270 10 h10 m0 0 h250 m23 -34 h-3"/>
   <polygon points="329 67 337 63 337 71"/>
   <polygon points="329 67 321 63 321 71"/>
</svg>
