<?xml version="1.0" encoding="UTF-8"?>
<svg xmlns="http://www.w3.org/2000/svg" width="251" height="873">
   <defs>
      <style type="text/css">
    @namespace "http://www.w3.org/2000/svg";
    .line                 {fill: none; stroke: #332900; stroke-width: 1;}
    .bold-line            {stroke: #141000; shape-rendering: crispEdges; stroke-width: 2;}
    .thin-line            {stroke: #1F1800; shape-rendering: crispEdges}
    .filled               {fill: #332900; stroke: none;}
    text.terminal         {font-family: Verdana, Sans-serif;
                            font-size: 12px;
                            fill: #141000;
                            font-weight: bold;
                          }
    text.nonterminal      {font-family: Verdana, Sans-serif;
                            font-size: 12px;
                            fill: #1A1400;
                            font-weight: normal;
                          }
    text.regexp           {font-family: Verdana, Sans-serif;
                            font-size: 12px;
                            fill: #1F1800;
                            font-weight: normal;
                          }
    rect, circle, polygon {fill: #332900; stroke: #332900;}
    rect.terminal         {fill: #FFDB4D; stroke: #332900; stroke-width: 1;}
    rect.nonterminal      {fill: #FFEC9E; stroke: #332900; stroke-width: 1;}
    rect.text             {fill: none; stroke: none;}
    polygon.regexp        {fill: #FFF4C7; stroke: #332900; stroke-width: 1;}
  </style>
   </defs>
   <polygon points="9 17 1 13 1 21"/>
   <polygon points="17 17 9 13 9 21"/>
   <a xmlns:xlink="http://www.w3.org/1999/xlink"
      xlink:href="#ImportDirective"
      xlink:title="ImportDirective">
      <rect x="51" y="3" width="118" height="32"/>
      <rect x="49" y="1" width="118" height="32" class="nonterminal"/>
      <text class="nonterminal" x="59" y="21">ImportDirective</text>
   </a>
   <a xmlns:xlink="http://www.w3.org/1999/xlink"
      xlink:href="#ClassDefinition"
      xlink:title="ClassDefinition">
      <rect x="51" y="47" width="114" height="32"/>
      <rect x="49" y="45" width="114" height="32" class="nonterminal"/>
      <text class="nonterminal" x="59" y="65">ClassDefinition</text>
   </a>
   <a xmlns:xlink="http://www.w3.org/1999/xlink"
      xlink:href="#FunctionDecl"
      xlink:title="FunctionDecl">
      <rect x="51" y="91" width="100" height="32"/>
      <rect x="49" y="89" width="100" height="32" class="nonterminal"/>
      <text class="nonterminal" x="59" y="109">FunctionDecl</text>
   </a>
   <a xmlns:xlink="http://www.w3.org/1999/xlink"
      xlink:href="#ExternalFunctionDecl"
      xlink:title="ExternalFunctionDecl">
      <rect x="51" y="135" width="152" height="32"/>
      <rect x="49" y="133" width="152" height="32" class="nonterminal"/>
      <text class="nonterminal" x="59" y="153">ExternalFunctionDecl</text>
   </a>
   <a xmlns:xlink="http://www.w3.org/1999/xlink"
      xlink:href="#ConstantDecl"
      xlink:title="ConstantDecl">
      <rect x="51" y="179" width="104" height="32"/>
      <rect x="49" y="177" width="104" height="32" class="nonterminal"/>
      <text class="nonterminal" x="59" y="197">ConstantDecl</text>
   </a>
   <a xmlns:xlink="http://www.w3.org/1999/xlink"
      xlink:href="#VariableDecl"
      xlink:title="VariableDecl">
      <rect x="51" y="223" width="98" height="32"/>
      <rect x="49" y="221" width="98" height="32" class="nonterminal"/>
      <text class="nonterminal" x="59" y="241">VariableDecl</text>
   </a>
   <a xmlns:xlink="http://www.w3.org/1999/xlink"
      xlink:href="#Block"
      xlink:title="Block">
      <rect x="51" y="267" width="52" height="32"/>
      <rect x="49" y="265" width="52" height="32" class="nonterminal"/>
      <text class="nonterminal" x="59" y="285">Block</text>
   </a>
   <a xmlns:xlink="http://www.w3.org/1999/xlink"
      xlink:href="#IfElse"
      xlink:title="IfElse">
      <rect x="51" y="311" width="56" height="32"/>
      <rect x="49" y="309" width="56" height="32" class="nonterminal"/>
      <text class="nonterminal" x="59" y="329">IfElse</text>
   </a>
   <a xmlns:xlink="http://www.w3.org/1999/xlink"
      xlink:href="#SwitchBlock"
      xlink:title="SwitchBlock">
      <rect x="51" y="355" width="92" height="32"/>
      <rect x="49" y="353" width="92" height="32" class="nonterminal"/>
      <text class="nonterminal" x="59" y="373">SwitchBlock</text>
   </a>
   <a xmlns:xlink="http://www.w3.org/1999/xlink"
      xlink:href="#ForLoop"
      xlink:title="ForLoop">
      <rect x="51" y="399" width="70" height="32"/>
      <rect x="49" y="397" width="70" height="32" class="nonterminal"/>
      <text class="nonterminal" x="59" y="417">ForLoop</text>
   </a>
   <a xmlns:xlink="http://www.w3.org/1999/xlink"
      xlink:href="#ForEachLoop"
      xlink:title="ForEachLoop">
      <rect x="51" y="443" width="100" height="32"/>
      <rect x="49" y="441" width="100" height="32" class="nonterminal"/>
      <text class="nonterminal" x="59" y="461">ForEachLoop</text>
   </a>
   <a xmlns:xlink="http://www.w3.org/1999/xlink"
      xlink:href="#WhileLoop"
      xlink:title="WhileLoop">
      <rect x="51" y="487" width="86" height="32"/>
      <rect x="49" y="485" width="86" height="32" class="nonterminal"/>
      <text class="nonterminal" x="59" y="505">WhileLoop</text>
   </a>
   <a xmlns:xlink="http://www.w3.org/1999/xlink"
      xlink:href="#DoLoop"
      xlink:title="DoLoop">
      <rect x="51" y="531" width="68" height="32"/>
      <rect x="49" y="529" width="68" height="32" class="nonterminal"/>
      <text class="nonterminal" x="59" y="549">DoLoop</text>
   </a>
   <a xmlns:xlink="http://www.w3.org/1999/xlink"
      xlink:href="#Continue"
      xlink:title="Continue">
      <rect x="51" y="575" width="76" height="32"/>
      <rect x="49" y="573" width="76" height="32" class="nonterminal"/>
      <text class="nonterminal" x="59" y="593">Continue</text>
   </a>
   <a xmlns:xlink="http://www.w3.org/1999/xlink"
      xlink:href="#Break"
      xlink:title="Break">
      <rect x="51" y="619" width="56" height="32"/>
      <rect x="49" y="617" width="56" height="32" class="nonterminal"/>
      <text class="nonterminal" x="59" y="637">Break</text>
   </a>
   <a xmlns:xlink="http://www.w3.org/1999/xlink"
      xlink:href="#Goto"
      xlink:title="Goto">
      <rect x="51" y="663" width="50" height="32"/>
      <rect x="49" y="661" width="50" height="32" class="nonterminal"/>
      <text class="nonterminal" x="59" y="681">Goto</text>
   </a>
   <a xmlns:xlink="http://www.w3.org/1999/xlink"
      xlink:href="#Return"
      xlink:title="Return">
      <rect x="51" y="707" width="62" height="32"/>
      <rect x="49" y="705" width="62" height="32" class="nonterminal"/>
      <text class="nonterminal" x="59" y="725">Return</text>
   </a>
   <a xmlns:xlink="http://www.w3.org/1999/xlink"
      xlink:href="#Throw"
      xlink:title="Throw">
      <rect x="51" y="751" width="58" height="32"/>
      <rect x="49" y="749" width="58" height="32" class="nonterminal"/>
      <text class="nonterminal" x="59" y="769">Throw</text>
   </a>
   <a xmlns:xlink="http://www.w3.org/1999/xlink"
      xlink:href="#TryCatchFinally"
      xlink:title="TryCatchFinally">
      <rect x="51" y="795" width="114" height="32"/>
      <rect x="49" y="793" width="114" height="32" class="nonterminal"/>
      <text class="nonterminal" x="59" y="813">TryCatchFinally</text>
   </a>
   <a xmlns:xlink="http://www.w3.org/1999/xlink"
      xlink:href="#Expression"
      xlink:title="Expression">
      <rect x="51" y="839" width="90" height="32"/>
      <rect x="49" y="837" width="90" height="32" class="nonterminal"/>
      <text class="nonterminal" x="59" y="857">Expression</text>
   </a>
   <rect x="161" y="839" width="24" height="32" rx="10"/>
   <rect x="159"
         y="837"
         width="24"
         height="32"
         class="terminal"
         rx="10"/>
   <text class="terminal" x="169" y="857">;</text>
   <path class="line"
         d="m17 17 h2 m20 0 h10 m118 0 h10 m0 0 h34 m-192 0 h20 m172 0 h20 m-212 0 q10 0 10 10 m192 0 q0 -10 10 -10 m-202 10 v24 m192 0 v-24 m-192 24 q0 10 10 10 m172 0 q10 0 10 -10 m-182 10 h10 m114 0 h10 m0 0 h38 m-182 -10 v20 m192 0 v-20 m-192 20 v24 m192 0 v-24 m-192 24 q0 10 10 10 m172 0 q10 0 10 -10 m-182 10 h10 m100 0 h10 m0 0 h52 m-182 -10 v20 m192 0 v-20 m-192 20 v24 m192 0 v-24 m-192 24 q0 10 10 10 m172 0 q10 0 10 -10 m-182 10 h10 m152 0 h10 m-182 -10 v20 m192 0 v-20 m-192 20 v24 m192 0 v-24 m-192 24 q0 10 10 10 m172 0 q10 0 10 -10 m-182 10 h10 m104 0 h10 m0 0 h48 m-182 -10 v20 m192 0 v-20 m-192 20 v24 m192 0 v-24 m-192 24 q0 10 10 10 m172 0 q10 0 10 -10 m-182 10 h10 m98 0 h10 m0 0 h54 m-182 -10 v20 m192 0 v-20 m-192 20 v24 m192 0 v-24 m-192 24 q0 10 10 10 m172 0 q10 0 10 -10 m-182 10 h10 m52 0 h10 m0 0 h100 m-182 -10 v20 m192 0 v-20 m-192 20 v24 m192 0 v-24 m-192 24 q0 10 10 10 m172 0 q10 0 10 -10 m-182 10 h10 m56 0 h10 m0 0 h96 m-182 -10 v20 m192 0 v-20 m-192 20 v24 m192 0 v-24 m-192 24 q0 10 10 10 m172 0 q10 0 10 -10 m-182 10 h10 m92 0 h10 m0 0 h60 m-182 -10 v20 m192 0 v-20 m-192 20 v24 m192 0 v-24 m-192 24 q0 10 10 10 m172 0 q10 0 10 -10 m-182 10 h10 m70 0 h10 m0 0 h82 m-182 -10 v20 m192 0 v-20 m-192 20 v24 m192 0 v-24 m-192 24 q0 10 10 10 m172 0 q10 0 10 -10 m-182 10 h10 m100 0 h10 m0 0 h52 m-182 -10 v20 m192 0 v-20 m-192 20 v24 m192 0 v-24 m-192 24 q0 10 10 10 m172 0 q10 0 10 -10 m-182 10 h10 m86 0 h10 m0 0 h66 m-182 -10 v20 m192 0 v-20 m-192 20 v24 m192 0 v-24 m-192 24 q0 10 10 10 m172 0 q10 0 10 -10 m-182 10 h10 m68 0 h10 m0 0 h84 m-182 -10 v20 m192 0 v-20 m-192 20 v24 m192 0 v-24 m-192 24 q0 10 10 10 m172 0 q10 0 10 -10 m-182 10 h10 m76 0 h10 m0 0 h76 m-182 -10 v20 m192 0 v-20 m-192 20 v24 m192 0 v-24 m-192 24 q0 10 10 10 m172 0 q10 0 10 -10 m-182 10 h10 m56 0 h10 m0 0 h96 m-182 -10 v20 m192 0 v-20 m-192 20 v24 m192 0 v-24 m-192 24 q0 10 10 10 m172 0 q10 0 10 -10 m-182 10 h10 m50 0 h10 m0 0 h102 m-182 -10 v20 m192 0 v-20 m-192 20 v24 m192 0 v-24 m-192 24 q0 10 10 10 m172 0 q10 0 10 -10 m-182 10 h10 m62 0 h10 m0 0 h90 m-182 -10 v20 m192 0 v-20 m-192 20 v24 m192 0 v-24 m-192 24 q0 10 10 10 m172 0 q10 0 10 -10 m-182 10 h10 m58 0 h10 m0 0 h94 m-182 -10 v20 m192 0 v-20 m-192 20 v24 m192 0 v-24 m-192 24 q0 10 10 10 m172 0 q10 0 10 -10 m-182 10 h10 m114 0 h10 m0 0 h38 m-182 -10 v20 m192 0 v-20 m-192 20 v24 m192 0 v-24 m-192 24 q0 10 10 10 m172 0 q10 0 10 -10 m-182 10 h10 m90 0 h10 m0 0 h10 m24 0 h10 m0 0 h18 m23 -836 h-3"/>
   <polygon points="241 17 249 13 249 21"/>
   <polygon points="241 17 233 13 233 21"/>
</svg>
