<?xml version="1.0" encoding="UTF-8"?>
<svg xmlns="http://www.w3.org/2000/svg" width="259" height="71">
   <defs>
      <style type="text/css">
    @namespace "http://www.w3.org/2000/svg";
    .line                 {fill: none; stroke: #000045; stroke-width: 1;}
    .bold-line            {stroke: #000014; shape-rendering: crispEdges; stroke-width: 2;}
    .thin-line            {stroke: #00001F; shape-rendering: crispEdges}
    .filled               {fill: #000045; stroke: none;}
    text.terminal         {font-family: Verdana, Sans-serif;
                            font-size: 12px;
                            fill: #000014;
                            font-weight: bold;
                          }
    text.nonterminal      {font-family: Verdana, Sans-serif;
                            font-size: 12px;
                            fill: #00001A;
                            font-weight: normal;
                          }
    text.regexp           {font-family: Verdana, Sans-serif;
                            font-size: 12px;
                            fill: #00001F;
                            font-weight: normal;
                          }
    rect, circle, polygon {fill: #000045; stroke: #000045;}
    rect.terminal         {fill: #CCCCFF; stroke: #000045; stroke-width: 1;}
    rect.nonterminal      {fill: #E3E3FF; stroke: #000045; stroke-width: 1;}
    rect.text             {fill: none; stroke: none;}
    polygon.regexp        {fill: #EFEFFF; stroke: #000045; stroke-width: 1;}
  </style>
   </defs>
   <polygon points="9 51 1 47 1 55"/>
   <polygon points="17 51 9 47 9 55"/>
   <a xmlns:xlink="http://www.w3.org/1999/xlink"
      xlink:href="#Label"
      xlink:title="Label">
      <rect x="51" y="3" width="54" height="32"/>
      <rect x="49" y="1" width="54" height="32" class="nonterminal"/>
      <text class="nonterminal" x="59" y="21">Label</text>
   </a>
   <a xmlns:xlink="http://www.w3.org/1999/xlink"
      xlink:href="#Statement"
      xlink:title="Statement">
      <rect x="145" y="37" width="86" height="32"/>
      <rect x="143" y="35" width="86" height="32" class="nonterminal"/>
      <text class="nonterminal" x="153" y="55">Statement</text>
   </a>
   <path class="line"
         d="m17 51 h2 m20 0 h10 m0 0 h64 m-94 0 l20 0 m-1 0 q-9 0 -9 -10 l0 -14 q0 -10 10 -10 m74 34 l20 0 m-20 0 q10 0 10 -10 l0 -14 q0 -10 -10 -10 m-74 0 h10 m54 0 h10 m20 34 h10 m86 0 h10 m3 0 h-3"/>
   <polygon points="249 51 257 47 257 55"/>
   <polygon points="249 51 241 47 241 55"/>
</svg>
