<?xml version="1.0" encoding="UTF-8"?>
<svg xmlns="http://www.w3.org/2000/svg" width="321" height="81">
   <defs>
      <style type="text/css">
    @namespace "http://www.w3.org/2000/svg";
    .line                 {fill: none; stroke: #000045; stroke-width: 1;}
    .bold-line            {stroke: #000014; shape-rendering: crispEdges; stroke-width: 2;}
    .thin-line            {stroke: #00001F; shape-rendering: crispEdges}
    .filled               {fill: #000045; stroke: none;}
    text.terminal         {font-family: Verdana, Sans-serif;
                            font-size: 12px;
                            fill: #000014;
                            font-weight: bold;
                          }
    text.nonterminal      {font-family: Verdana, Sans-serif;
                            font-size: 12px;
                            fill: #00001A;
                            font-weight: normal;
                          }
    text.regexp           {font-family: Verdana, Sans-serif;
                            font-size: 12px;
                            fill: #00001F;
                            font-weight: normal;
                          }
    rect, circle, polygon {fill: #000045; stroke: #000045;}
    rect.terminal         {fill: #CCCCFF; stroke: #000045; stroke-width: 1;}
    rect.nonterminal      {fill: #E3E3FF; stroke: #000045; stroke-width: 1;}
    rect.text             {fill: none; stroke: none;}
    polygon.regexp        {fill: #EFEFFF; stroke: #000045; stroke-width: 1;}
  </style>
   </defs>
   <polygon points="9 17 1 13 1 21"/>
   <polygon points="17 17 9 13 9 21"/>
   <rect x="51" y="35" width="32" height="32" rx="10"/>
   <rect x="49"
         y="33"
         width="32"
         height="32"
         class="terminal"
         rx="10"/>
   <text class="terminal" x="59" y="53">@</text>
   <a xmlns:xlink="http://www.w3.org/1999/xlink"
      xlink:href="#SINGLE_QUOTED"
      xlink:title="SINGLE_QUOTED">
      <rect x="143" y="3" width="126" height="32"/>
      <rect x="141" y="1" width="126" height="32" class="nonterminal"/>
      <text class="nonterminal" x="151" y="21">SINGLE_QUOTED</text>
   </a>
   <a xmlns:xlink="http://www.w3.org/1999/xlink"
      xlink:href="#DOUBLE_QUOTED"
      xlink:title="DOUBLE_QUOTED">
      <rect x="143" y="47" width="130" height="32"/>
      <rect x="141" y="45" width="130" height="32" class="nonterminal"/>
      <text class="nonterminal" x="151" y="65">DOUBLE_QUOTED</text>
   </a>
   <path class="line"
         d="m17 17 h2 m20 0 h10 m0 0 h42 m-72 0 h20 m52 0 h20 m-92 0 q10 0 10 10 m72 0 q0 -10 10 -10 m-82 10 v12 m72 0 v-12 m-72 12 q0 10 10 10 m52 0 q10 0 10 -10 m-62 10 h10 m32 0 h10 m40 -32 h10 m126 0 h10 m0 0 h4 m-170 0 h20 m150 0 h20 m-190 0 q10 0 10 10 m170 0 q0 -10 10 -10 m-180 10 v24 m170 0 v-24 m-170 24 q0 10 10 10 m150 0 q10 0 10 -10 m-160 10 h10 m130 0 h10 m23 -44 h-3"/>
   <polygon points="311 17 319 13 319 21"/>
   <polygon points="311 17 303 13 303 21"/>
</svg>
