<?xml version="1.0" encoding="UTF-8"?>
<svg xmlns="http://www.w3.org/2000/svg" width="807" height="219">
   <defs>
      <style type="text/css">
    @namespace "http://www.w3.org/2000/svg";
    .line                 {fill: none; stroke: #174B00; stroke-width: 1;}
    .bold-line            {stroke: #061400; shape-rendering: crispEdges; stroke-width: 2;}
    .thin-line            {stroke: #091F00; shape-rendering: crispEdges}
    .filled               {fill: #174B00; stroke: none;}
    text.terminal         {font-family: Verdana, Sans-serif;
                            font-size: 12px;
                            fill: #061400;
                            font-weight: bold;
                          }
    text.nonterminal      {font-family: Verdana, Sans-serif;
                            font-size: 12px;
                            fill: #081A00;
                            font-weight: normal;
                          }
    text.regexp           {font-family: Verdana, Sans-serif;
                            font-size: 12px;
                            fill: #091F00;
                            font-weight: normal;
                          }
    rect, circle, polygon {fill: #174B00; stroke: #174B00;}
    rect.terminal         {fill: #F8FFF5; stroke: #174B00; stroke-width: 1;}
    rect.nonterminal      {fill: #FBFFFA; stroke: #174B00; stroke-width: 1;}
    rect.text             {fill: none; stroke: none;}
    polygon.regexp        {fill: #FDFFFC; stroke: #174B00; stroke-width: 1;}
  </style>
   </defs>
   <polygon points="9 67 1 63 1 71"/>
   <polygon points="17 67 9 63 9 71"/>
   <rect x="31" y="53" width="64" height="32" rx="10"/>
   <rect x="29"
         y="51"
         width="64"
         height="32"
         class="terminal"
         rx="10"/>
   <text class="terminal" x="39" y="71">switch</text>
   <rect x="115" y="53" width="26" height="32" rx="10"/>
   <rect x="113"
         y="51"
         width="26"
         height="32"
         class="terminal"
         rx="10"/>
   <text class="terminal" x="123" y="71">(</text>
   <a xmlns:xlink="http://www.w3.org/1999/xlink"
      xlink:href="#Expression"
      xlink:title="Expression">
      <rect x="161" y="53" width="90" height="32"/>
      <rect x="159" y="51" width="90" height="32" class="nonterminal"/>
      <text class="nonterminal" x="169" y="71">Expression</text>
   </a>
   <rect x="271" y="53" width="26" height="32" rx="10"/>
   <rect x="269"
         y="51"
         width="26"
         height="32"
         class="terminal"
         rx="10"/>
   <text class="terminal" x="279" y="71">)</text>
   <rect x="317" y="53" width="28" height="32" rx="10"/>
   <rect x="315"
         y="51"
         width="28"
         height="32"
         class="terminal"
         rx="10"/>
   <text class="terminal" x="325" y="71">{</text>
   <a xmlns:xlink="http://www.w3.org/1999/xlink"
      xlink:href="#CaseLabel"
      xlink:title="CaseLabel">
      <rect x="405" y="53" width="86" height="32"/>
      <rect x="403" y="51" width="86" height="32" class="nonterminal"/>
      <text class="nonterminal" x="413" y="71">CaseLabel</text>
   </a>
   <rect x="511" y="53" width="24" height="32" rx="10"/>
   <rect x="509"
         y="51"
         width="24"
         height="32"
         class="terminal"
         rx="10"/>
   <text class="terminal" x="519" y="71">:</text>
   <a xmlns:xlink="http://www.w3.org/1999/xlink"
      xlink:href="#StatementWithLabel"
      xlink:title="StatementWithLabel">
      <rect x="575" y="19" width="150" height="32"/>
      <rect x="573" y="17" width="150" height="32" class="nonterminal"/>
      <text class="nonterminal" x="583" y="37">StatementWithLabel</text>
   </a>
   <rect x="389" y="169" width="68" height="32" rx="10"/>
   <rect x="387"
         y="167"
         width="68"
         height="32"
         class="terminal"
         rx="10"/>
   <text class="terminal" x="397" y="187">default</text>
   <rect x="477" y="169" width="24" height="32" rx="10"/>
   <rect x="475"
         y="167"
         width="24"
         height="32"
         class="terminal"
         rx="10"/>
   <text class="terminal" x="485" y="187">:</text>
   <a xmlns:xlink="http://www.w3.org/1999/xlink"
      xlink:href="#StatementWithLabel"
      xlink:title="StatementWithLabel">
      <rect x="541" y="135" width="150" height="32"/>
      <rect x="539" y="133" width="150" height="32" class="nonterminal"/>
      <text class="nonterminal" x="549" y="153">StatementWithLabel</text>
   </a>
   <rect x="751" y="169" width="28" height="32" rx="10"/>
   <rect x="749"
         y="167"
         width="28"
         height="32"
         class="terminal"
         rx="10"/>
   <text class="terminal" x="759" y="187">}</text>
   <path class="line"
         d="m17 67 h2 m0 0 h10 m64 0 h10 m0 0 h10 m26 0 h10 m0 0 h10 m90 0 h10 m0 0 h10 m26 0 h10 m0 0 h10 m28 0 h10 m40 0 h10 m86 0 h10 m0 0 h10 m24 0 h10 m20 0 h10 m0 0 h160 m-190 0 l20 0 m-1 0 q-9 0 -9 -10 l0 -14 q0 -10 10 -10 m170 34 l20 0 m-20 0 q10 0 10 -10 l0 -14 q0 -10 -10 -10 m-170 0 h10 m150 0 h10 m-360 34 l20 0 m-1 0 q-9 0 -9 -10 l0 -46 q0 -10 10 -10 m360 66 l20 0 m-20 0 q10 0 10 -10 l0 -46 q0 -10 -10 -10 m-360 0 h10 m0 0 h350 m-400 66 h20 m400 0 h20 m-440 0 q10 0 10 10 m420 0 q0 -10 10 -10 m-430 10 v14 m420 0 v-14 m-420 14 q0 10 10 10 m400 0 q10 0 10 -10 m-410 10 h10 m0 0 h390 m22 -34 l2 0 m2 0 l2 0 m2 0 l2 0 m-460 116 l2 0 m2 0 l2 0 m2 0 l2 0 m22 0 h10 m68 0 h10 m0 0 h10 m24 0 h10 m20 0 h10 m0 0 h160 m-190 0 l20 0 m-1 0 q-9 0 -9 -10 l0 -14 q0 -10 10 -10 m170 34 l20 0 m-20 0 q10 0 10 -10 l0 -14 q0 -10 -10 -10 m-170 0 h10 m150 0 h10 m-342 34 h20 m342 0 h20 m-382 0 q10 0 10 10 m362 0 q0 -10 10 -10 m-372 10 v14 m362 0 v-14 m-362 14 q0 10 10 10 m342 0 q10 0 10 -10 m-352 10 h10 m0 0 h332 m20 -34 h10 m28 0 h10 m3 0 h-3"/>
   <polygon points="797 183 805 179 805 187"/>
   <polygon points="797 183 789 179 789 187"/>
</svg>
