<?xml version="1.0" encoding="UTF-8"?>
<svg xmlns="http://www.w3.org/2000/svg" width="713" height="53">
   <defs>
      <style type="text/css">
    @namespace "http://www.w3.org/2000/svg";
    .line                 {fill: none; stroke: #332900; stroke-width: 1;}
    .bold-line            {stroke: #141000; shape-rendering: crispEdges; stroke-width: 2;}
    .thin-line            {stroke: #1F1800; shape-rendering: crispEdges}
    .filled               {fill: #332900; stroke: none;}
    text.terminal         {font-family: Verdana, Sans-serif;
                            font-size: 12px;
                            fill: #141000;
                            font-weight: bold;
                          }
    text.nonterminal      {font-family: Verdana, Sans-serif;
                            font-size: 12px;
                            fill: #1A1400;
                            font-weight: normal;
                          }
    text.regexp           {font-family: Verdana, Sans-serif;
                            font-size: 12px;
                            fill: #1F1800;
                            font-weight: normal;
                          }
    rect, circle, polygon {fill: #332900; stroke: #332900;}
    rect.terminal         {fill: #FFDB4D; stroke: #332900; stroke-width: 1;}
    rect.nonterminal      {fill: #FFEC9E; stroke: #332900; stroke-width: 1;}
    rect.text             {fill: none; stroke: none;}
    polygon.regexp        {fill: #FFF4C7; stroke: #332900; stroke-width: 1;}
  </style>
   </defs>
   <polygon points="9 33 1 29 1 37"/>
   <polygon points="17 33 9 29 9 37"/>
   <rect x="31" y="19" width="64" height="32" rx="10"/>
   <rect x="29"
         y="17"
         width="64"
         height="32"
         class="terminal"
         rx="10"/>
   <text class="terminal" x="39" y="37">switch</text>
   <rect x="115" y="19" width="26" height="32" rx="10"/>
   <rect x="113"
         y="17"
         width="26"
         height="32"
         class="terminal"
         rx="10"/>
   <text class="terminal" x="123" y="37">(</text>
   <a xmlns:xlink="http://www.w3.org/1999/xlink"
      xlink:href="#Expression"
      xlink:title="Expression">
      <rect x="161" y="19" width="90" height="32"/>
      <rect x="159" y="17" width="90" height="32" class="nonterminal"/>
      <text class="nonterminal" x="169" y="37">Expression</text>
   </a>
   <rect x="271" y="19" width="26" height="32" rx="10"/>
   <rect x="269"
         y="17"
         width="26"
         height="32"
         class="terminal"
         rx="10"/>
   <text class="terminal" x="279" y="37">)</text>
   <rect x="317" y="19" width="28" height="32" rx="10"/>
   <rect x="315"
         y="17"
         width="28"
         height="32"
         class="terminal"
         rx="10"/>
   <text class="terminal" x="325" y="37">{</text>
   <a xmlns:xlink="http://www.w3.org/1999/xlink"
      xlink:href="#CaseLabel"
      xlink:title="CaseLabel">
      <rect x="385" y="19" width="86" height="32"/>
      <rect x="383" y="17" width="86" height="32" class="nonterminal"/>
      <text class="nonterminal" x="393" y="37">CaseLabel</text>
   </a>
   <a xmlns:xlink="http://www.w3.org/1999/xlink"
      xlink:href="#StatementSeries"
      xlink:title="StatementSeries">
      <rect x="491" y="19" width="126" height="32"/>
      <rect x="489" y="17" width="126" height="32" class="nonterminal"/>
      <text class="nonterminal" x="499" y="37">StatementSeries</text>
   </a>
   <rect x="657" y="19" width="28" height="32" rx="10"/>
   <rect x="655"
         y="17"
         width="28"
         height="32"
         class="terminal"
         rx="10"/>
   <text class="terminal" x="665" y="37">}</text>
   <path class="line"
         d="m17 33 h2 m0 0 h10 m64 0 h10 m0 0 h10 m26 0 h10 m0 0 h10 m90 0 h10 m0 0 h10 m26 0 h10 m0 0 h10 m28 0 h10 m20 0 h10 m86 0 h10 m0 0 h10 m126 0 h10 m-272 0 l20 0 m-1 0 q-9 0 -9 -10 l0 -12 q0 -10 10 -10 m252 32 l20 0 m-20 0 q10 0 10 -10 l0 -12 q0 -10 -10 -10 m-252 0 h10 m0 0 h242 m20 32 h10 m28 0 h10 m3 0 h-3"/>
   <polygon points="703 33 711 29 711 37"/>
   <polygon points="703 33 695 29 695 37"/>
</svg>
