<?xml version="1.0" encoding="UTF-8"?>
<svg xmlns="http://www.w3.org/2000/svg" width="813" height="219">
   <defs>
      <style type="text/css">
    @namespace "http://www.w3.org/2000/svg";
    .line                 {fill: none; stroke: #004900; stroke-width: 1;}
    .bold-line            {stroke: #001400; shape-rendering: crispEdges; stroke-width: 2;}
    .thin-line            {stroke: #001F00; shape-rendering: crispEdges}
    .filled               {fill: #004900; stroke: none;}
    text.terminal         {font-family: Verdana, Sans-serif;
                            font-size: 12px;
                            fill: #001400;
                            font-weight: bold;
                          }
    text.nonterminal      {font-family: Verdana, Sans-serif;
                            font-size: 12px;
                            fill: #001A00;
                            font-weight: normal;
                          }
    text.regexp           {font-family: Verdana, Sans-serif;
                            font-size: 12px;
                            fill: #001F00;
                            font-weight: normal;
                          }
    rect, circle, polygon {fill: #004900; stroke: #004900;}
    rect.terminal         {fill: #E5FFE5; stroke: #004900; stroke-width: 1;}
    rect.nonterminal      {fill: #F1FFF1; stroke: #004900; stroke-width: 1;}
    rect.text             {fill: none; stroke: none;}
    polygon.regexp        {fill: #F7FFF7; stroke: #004900; stroke-width: 1;}
  </style>
   </defs>
   <polygon points="9 67 1 63 1 71"/>
   <polygon points="17 67 9 63 9 71"/>
   <rect x="31" y="53" width="64" height="32" rx="10"/>
   <rect x="29"
         y="51"
         width="64"
         height="32"
         class="terminal"
         rx="10"/>
   <text class="terminal" x="39" y="71">switch</text>
   <rect x="115" y="53" width="26" height="32" rx="10"/>
   <rect x="113"
         y="51"
         width="26"
         height="32"
         class="terminal"
         rx="10"/>
   <text class="terminal" x="123" y="71">(</text>
   <a xmlns:xlink="http://www.w3.org/1999/xlink"
      xlink:href="#Expression"
      xlink:title="Expression">
      <rect x="161" y="53" width="90" height="32"/>
      <rect x="159" y="51" width="90" height="32" class="nonterminal"/>
      <text class="nonterminal" x="169" y="71">Expression</text>
   </a>
   <rect x="271" y="53" width="26" height="32" rx="10"/>
   <rect x="269"
         y="51"
         width="26"
         height="32"
         class="terminal"
         rx="10"/>
   <text class="terminal" x="279" y="71">)</text>
   <rect x="317" y="53" width="28" height="32" rx="10"/>
   <rect x="315"
         y="51"
         width="28"
         height="32"
         class="terminal"
         rx="10"/>
   <text class="terminal" x="325" y="71">{</text>
   <a xmlns:xlink="http://www.w3.org/1999/xlink"
      xlink:href="#CaseLabel"
      xlink:title="CaseLabel">
      <rect x="405" y="53" width="86" height="32"/>
      <rect x="403" y="51" width="86" height="32" class="nonterminal"/>
      <text class="nonterminal" x="413" y="71">CaseLabel</text>
   </a>
   <rect x="511" y="53" width="24" height="32" rx="10"/>
   <rect x="509"
         y="51"
         width="24"
         height="32"
         class="terminal"
         rx="10"/>
   <text class="terminal" x="519" y="71">:</text>
   <a xmlns:xlink="http://www.w3.org/1999/xlink"
      xlink:href="#StatementWithLabels"
      xlink:title="StatementWithLabels">
      <rect x="575" y="19" width="156" height="32"/>
      <rect x="573" y="17" width="156" height="32" class="nonterminal"/>
      <text class="nonterminal" x="583" y="37">StatementWithLabels</text>
   </a>
   <rect x="389" y="169" width="68" height="32" rx="10"/>
   <rect x="387"
         y="167"
         width="68"
         height="32"
         class="terminal"
         rx="10"/>
   <text class="terminal" x="397" y="187">default</text>
   <rect x="477" y="169" width="24" height="32" rx="10"/>
   <rect x="475"
         y="167"
         width="24"
         height="32"
         class="terminal"
         rx="10"/>
   <text class="terminal" x="485" y="187">:</text>
   <a xmlns:xlink="http://www.w3.org/1999/xlink"
      xlink:href="#StatementWithLabels"
      xlink:title="StatementWithLabels">
      <rect x="541" y="135" width="156" height="32"/>
      <rect x="539" y="133" width="156" height="32" class="nonterminal"/>
      <text class="nonterminal" x="549" y="153">StatementWithLabels</text>
   </a>
   <rect x="757" y="169" width="28" height="32" rx="10"/>
   <rect x="755"
         y="167"
         width="28"
         height="32"
         class="terminal"
         rx="10"/>
   <text class="terminal" x="765" y="187">}</text>
   <path class="line"
         d="m17 67 h2 m0 0 h10 m64 0 h10 m0 0 h10 m26 0 h10 m0 0 h10 m90 0 h10 m0 0 h10 m26 0 h10 m0 0 h10 m28 0 h10 m40 0 h10 m86 0 h10 m0 0 h10 m24 0 h10 m20 0 h10 m0 0 h166 m-196 0 l20 0 m-1 0 q-9 0 -9 -10 l0 -14 q0 -10 10 -10 m176 34 l20 0 m-20 0 q10 0 10 -10 l0 -14 q0 -10 -10 -10 m-176 0 h10 m156 0 h10 m-366 34 l20 0 m-1 0 q-9 0 -9 -10 l0 -46 q0 -10 10 -10 m366 66 l20 0 m-20 0 q10 0 10 -10 l0 -46 q0 -10 -10 -10 m-366 0 h10 m0 0 h356 m-406 66 h20 m406 0 h20 m-446 0 q10 0 10 10 m426 0 q0 -10 10 -10 m-436 10 v14 m426 0 v-14 m-426 14 q0 10 10 10 m406 0 q10 0 10 -10 m-416 10 h10 m0 0 h396 m22 -34 l2 0 m2 0 l2 0 m2 0 l2 0 m-466 116 l2 0 m2 0 l2 0 m2 0 l2 0 m22 0 h10 m68 0 h10 m0 0 h10 m24 0 h10 m20 0 h10 m0 0 h166 m-196 0 l20 0 m-1 0 q-9 0 -9 -10 l0 -14 q0 -10 10 -10 m176 34 l20 0 m-20 0 q10 0 10 -10 l0 -14 q0 -10 -10 -10 m-176 0 h10 m156 0 h10 m-348 34 h20 m348 0 h20 m-388 0 q10 0 10 10 m368 0 q0 -10 10 -10 m-378 10 v14 m368 0 v-14 m-368 14 q0 10 10 10 m348 0 q10 0 10 -10 m-358 10 h10 m0 0 h338 m20 -34 h10 m28 0 h10 m3 0 h-3"/>
   <polygon points="803 183 811 179 811 187"/>
   <polygon points="803 183 795 179 795 187"/>
</svg>
