<?xml version="1.0" encoding="UTF-8"?>
<svg xmlns="http://www.w3.org/2000/svg" width="797" height="155">
   <defs>
      <style type="text/css">
    @namespace "http://www.w3.org/2000/svg";
    .line                 {fill: none; stroke: #332900; stroke-width: 1;}
    .bold-line            {stroke: #141000; shape-rendering: crispEdges; stroke-width: 2;}
    .thin-line            {stroke: #1F1800; shape-rendering: crispEdges}
    .filled               {fill: #332900; stroke: none;}
    text.terminal         {font-family: Verdana, Sans-serif;
                            font-size: 12px;
                            fill: #141000;
                            font-weight: bold;
                          }
    text.nonterminal      {font-family: Verdana, Sans-serif;
                            font-size: 12px;
                            fill: #1A1400;
                            font-weight: normal;
                          }
    text.regexp           {font-family: Verdana, Sans-serif;
                            font-size: 12px;
                            fill: #1F1800;
                            font-weight: normal;
                          }
    rect, circle, polygon {fill: #332900; stroke: #332900;}
    rect.terminal         {fill: #FFDB4D; stroke: #332900; stroke-width: 1;}
    rect.nonterminal      {fill: #FFEC9E; stroke: #332900; stroke-width: 1;}
    rect.text             {fill: none; stroke: none;}
    polygon.regexp        {fill: #FFF4C7; stroke: #332900; stroke-width: 1;}
  </style>
   </defs>
   <polygon points="9 17 1 13 1 21"/>
   <polygon points="17 17 9 13 9 21"/>
   <rect x="31" y="3" width="38" height="32" rx="10"/>
   <rect x="29"
         y="1"
         width="38"
         height="32"
         class="terminal"
         rx="10"/>
   <text class="terminal" x="39" y="21">try</text>
   <rect x="109" y="35" width="26" height="32" rx="10"/>
   <rect x="107"
         y="33"
         width="26"
         height="32"
         class="terminal"
         rx="10"/>
   <text class="terminal" x="117" y="53">(</text>
   <a xmlns:xlink="http://www.w3.org/1999/xlink"
      xlink:href="#Expression"
      xlink:title="Expression">
      <rect x="155" y="35" width="90" height="32"/>
      <rect x="153" y="33" width="90" height="32" class="nonterminal"/>
      <text class="nonterminal" x="163" y="53">Expression</text>
   </a>
   <rect x="265" y="35" width="26" height="32" rx="10"/>
   <rect x="263"
         y="33"
         width="26"
         height="32"
         class="terminal"
         rx="10"/>
   <text class="terminal" x="273" y="53">)</text>
   <a xmlns:xlink="http://www.w3.org/1999/xlink"
      xlink:href="#Block"
      xlink:title="Block">
      <rect x="331" y="3" width="52" height="32"/>
      <rect x="329" y="1" width="52" height="32" class="nonterminal"/>
      <text class="nonterminal" x="339" y="21">Block</text>
   </a>
   <rect x="423" y="35" width="56" height="32" rx="10"/>
   <rect x="421"
         y="33"
         width="56"
         height="32"
         class="terminal"
         rx="10"/>
   <text class="terminal" x="431" y="53">catch</text>
   <rect x="499" y="35" width="26" height="32" rx="10"/>
   <rect x="497"
         y="33"
         width="26"
         height="32"
         class="terminal"
         rx="10"/>
   <text class="terminal" x="507" y="53">(</text>
   <a xmlns:xlink="http://www.w3.org/1999/xlink"
      xlink:href="#IDENTIFIER"
      xlink:title="IDENTIFIER">
      <rect x="545" y="35" width="92" height="32"/>
      <rect x="543" y="33" width="92" height="32" class="nonterminal"/>
      <text class="nonterminal" x="553" y="53">IDENTIFIER</text>
   </a>
   <rect x="657" y="35" width="26" height="32" rx="10"/>
   <rect x="655"
         y="33"
         width="26"
         height="32"
         class="terminal"
         rx="10"/>
   <text class="terminal" x="665" y="53">)</text>
   <a xmlns:xlink="http://www.w3.org/1999/xlink"
      xlink:href="#Block"
      xlink:title="Block">
      <rect x="703" y="35" width="52" height="32"/>
      <rect x="701" y="33" width="52" height="32" class="nonterminal"/>
      <text class="nonterminal" x="711" y="53">Block</text>
   </a>
   <rect x="615" y="121" width="62" height="32" rx="10"/>
   <rect x="613"
         y="119"
         width="62"
         height="32"
         class="terminal"
         rx="10"/>
   <text class="terminal" x="623" y="139">finally</text>
   <a xmlns:xlink="http://www.w3.org/1999/xlink"
      xlink:href="#Block"
      xlink:title="Block">
      <rect x="697" y="121" width="52" height="32"/>
      <rect x="695" y="119" width="52" height="32" class="nonterminal"/>
      <text class="nonterminal" x="705" y="139">Block</text>
   </a>
   <path class="line"
         d="m17 17 h2 m0 0 h10 m38 0 h10 m20 0 h10 m0 0 h192 m-222 0 h20 m202 0 h20 m-242 0 q10 0 10 10 m222 0 q0 -10 10 -10 m-232 10 v12 m222 0 v-12 m-222 12 q0 10 10 10 m202 0 q10 0 10 -10 m-212 10 h10 m26 0 h10 m0 0 h10 m90 0 h10 m0 0 h10 m26 0 h10 m20 -32 h10 m52 0 h10 m20 0 h10 m0 0 h342 m-372 0 h20 m352 0 h20 m-392 0 q10 0 10 10 m372 0 q0 -10 10 -10 m-382 10 v12 m372 0 v-12 m-372 12 q0 10 10 10 m352 0 q10 0 10 -10 m-362 10 h10 m56 0 h10 m0 0 h10 m26 0 h10 m0 0 h10 m92 0 h10 m0 0 h10 m26 0 h10 m0 0 h10 m52 0 h10 m22 -32 l2 0 m2 0 l2 0 m2 0 l2 0 m-224 86 l2 0 m2 0 l2 0 m2 0 l2 0 m22 0 h10 m0 0 h144 m-174 0 h20 m154 0 h20 m-194 0 q10 0 10 10 m174 0 q0 -10 10 -10 m-184 10 v12 m174 0 v-12 m-174 12 q0 10 10 10 m154 0 q10 0 10 -10 m-164 10 h10 m62 0 h10 m0 0 h10 m52 0 h10 m23 -32 h-3"/>
   <polygon points="787 103 795 99 795 107"/>
   <polygon points="787 103 779 99 779 107"/>
</svg>
