<?xml version="1.0" encoding="UTF-8"?>
<svg xmlns="http://www.w3.org/2000/svg" width="177" height="829">
   <defs>
      <style type="text/css">
    @namespace "http://www.w3.org/2000/svg";
    .line                 {fill: none; stroke: #000045; stroke-width: 1;}
    .bold-line            {stroke: #000014; shape-rendering: crispEdges; stroke-width: 2;}
    .thin-line            {stroke: #00001F; shape-rendering: crispEdges}
    .filled               {fill: #000045; stroke: none;}
    text.terminal         {font-family: Verdana, Sans-serif;
                            font-size: 12px;
                            fill: #000014;
                            font-weight: bold;
                          }
    text.nonterminal      {font-family: Verdana, Sans-serif;
                            font-size: 12px;
                            fill: #00001A;
                            font-weight: normal;
                          }
    text.regexp           {font-family: Verdana, Sans-serif;
                            font-size: 12px;
                            fill: #00001F;
                            font-weight: normal;
                          }
    rect, circle, polygon {fill: #000045; stroke: #000045;}
    rect.terminal         {fill: #CCCCFF; stroke: #000045; stroke-width: 1;}
    rect.nonterminal      {fill: #E3E3FF; stroke: #000045; stroke-width: 1;}
    rect.text             {fill: none; stroke: none;}
    polygon.regexp        {fill: #EFEFFF; stroke: #000045; stroke-width: 1;}
  </style>
   </defs>
   <polygon points="9 17 1 13 1 21"/>
   <polygon points="17 17 9 13 9 21"/>
   <rect x="51" y="3" width="48" height="32" rx="10"/>
   <rect x="49"
         y="1"
         width="48"
         height="32"
         class="terminal"
         rx="10"/>
   <text class="terminal" x="59" y="21">void</text>
   <rect x="51" y="47" width="48" height="32" rx="10"/>
   <rect x="49"
         y="45"
         width="48"
         height="32"
         class="terminal"
         rx="10"/>
   <text class="terminal" x="59" y="65">bool</text>
   <rect x="51" y="91" width="38" height="32" rx="10"/>
   <rect x="49"
         y="89"
         width="38"
         height="32"
         class="terminal"
         rx="10"/>
   <text class="terminal" x="59" y="109">int</text>
   <rect x="51" y="135" width="48" height="32" rx="10"/>
   <rect x="49"
         y="133"
         width="48"
         height="32"
         class="terminal"
         rx="10"/>
   <text class="terminal" x="59" y="153">long</text>
   <rect x="51" y="179" width="72" height="32" rx="10"/>
   <rect x="49"
         y="177"
         width="72"
         height="32"
         class="terminal"
         rx="10"/>
   <text class="terminal" x="59" y="197">rational</text>
   <rect x="51" y="223" width="50" height="32" rx="10"/>
   <rect x="49"
         y="221"
         width="50"
         height="32"
         class="terminal"
         rx="10"/>
   <text class="terminal" x="59" y="241">float</text>
   <rect x="51" y="267" width="72" height="32" rx="10"/>
   <rect x="49"
         y="265"
         width="72"
         height="32"
         class="terminal"
         rx="10"/>
   <text class="terminal" x="59" y="285">decimal</text>
   <rect x="51" y="311" width="76" height="32" rx="10"/>
   <rect x="49"
         y="309"
         width="76"
         height="32"
         class="terminal"
         rx="10"/>
   <text class="terminal" x="59" y="329">complex</text>
   <rect x="51" y="355" width="50" height="32" rx="10"/>
   <rect x="49"
         y="353"
         width="50"
         height="32"
         class="terminal"
         rx="10"/>
   <text class="terminal" x="59" y="373">date</text>
   <rect x="51" y="399" width="76" height="32" rx="10"/>
   <rect x="49"
         y="397"
         width="76"
         height="32"
         class="terminal"
         rx="10"/>
   <text class="terminal" x="59" y="417">duration</text>
   <rect x="51" y="443" width="60" height="32" rx="10"/>
   <rect x="49"
         y="441"
         width="60"
         height="32"
         class="terminal"
         rx="10"/>
   <text class="terminal" x="59" y="461">string</text>
   <rect x="51" y="487" width="40" height="32" rx="10"/>
   <rect x="49"
         y="485"
         width="40"
         height="32"
         class="terminal"
         rx="10"/>
   <text class="terminal" x="59" y="505">list</text>
   <rect x="51" y="531" width="48" height="32" rx="10"/>
   <rect x="49"
         y="529"
         width="48"
         height="32"
         class="terminal"
         rx="10"/>
   <text class="terminal" x="59" y="549">map</text>
   <rect x="51" y="575" width="40" height="32" rx="10"/>
   <rect x="49"
         y="573"
         width="40"
         height="32"
         class="terminal"
         rx="10"/>
   <text class="terminal" x="59" y="593">set</text>
   <rect x="51" y="619" width="60" height="32" rx="10"/>
   <rect x="49"
         y="617"
         width="60"
         height="32"
         class="terminal"
         rx="10"/>
   <text class="terminal" x="59" y="637">queue</text>
   <rect x="51" y="663" width="56" height="32" rx="10"/>
   <rect x="49"
         y="661"
         width="56"
         height="32"
         class="terminal"
         rx="10"/>
   <text class="terminal" x="59" y="681">stack</text>
   <rect x="51" y="707" width="62" height="32" rx="10"/>
   <rect x="49"
         y="705"
         width="62"
         height="32"
         class="terminal"
         rx="10"/>
   <text class="terminal" x="59" y="725">object</text>
   <rect x="51" y="751" width="78" height="32" rx="10"/>
   <rect x="49"
         y="749"
         width="78"
         height="32"
         class="terminal"
         rx="10"/>
   <text class="terminal" x="59" y="769">resource</text>
   <rect x="51" y="795" width="68" height="32" rx="10"/>
   <rect x="49"
         y="793"
         width="68"
         height="32"
         class="terminal"
         rx="10"/>
   <text class="terminal" x="59" y="813">closure</text>
   <path class="line"
         d="m17 17 h2 m20 0 h10 m48 0 h10 m0 0 h30 m-118 0 h20 m98 0 h20 m-138 0 q10 0 10 10 m118 0 q0 -10 10 -10 m-128 10 v24 m118 0 v-24 m-118 24 q0 10 10 10 m98 0 q10 0 10 -10 m-108 10 h10 m48 0 h10 m0 0 h30 m-108 -10 v20 m118 0 v-20 m-118 20 v24 m118 0 v-24 m-118 24 q0 10 10 10 m98 0 q10 0 10 -10 m-108 10 h10 m38 0 h10 m0 0 h40 m-108 -10 v20 m118 0 v-20 m-118 20 v24 m118 0 v-24 m-118 24 q0 10 10 10 m98 0 q10 0 10 -10 m-108 10 h10 m48 0 h10 m0 0 h30 m-108 -10 v20 m118 0 v-20 m-118 20 v24 m118 0 v-24 m-118 24 q0 10 10 10 m98 0 q10 0 10 -10 m-108 10 h10 m72 0 h10 m0 0 h6 m-108 -10 v20 m118 0 v-20 m-118 20 v24 m118 0 v-24 m-118 24 q0 10 10 10 m98 0 q10 0 10 -10 m-108 10 h10 m50 0 h10 m0 0 h28 m-108 -10 v20 m118 0 v-20 m-118 20 v24 m118 0 v-24 m-118 24 q0 10 10 10 m98 0 q10 0 10 -10 m-108 10 h10 m72 0 h10 m0 0 h6 m-108 -10 v20 m118 0 v-20 m-118 20 v24 m118 0 v-24 m-118 24 q0 10 10 10 m98 0 q10 0 10 -10 m-108 10 h10 m76 0 h10 m0 0 h2 m-108 -10 v20 m118 0 v-20 m-118 20 v24 m118 0 v-24 m-118 24 q0 10 10 10 m98 0 q10 0 10 -10 m-108 10 h10 m50 0 h10 m0 0 h28 m-108 -10 v20 m118 0 v-20 m-118 20 v24 m118 0 v-24 m-118 24 q0 10 10 10 m98 0 q10 0 10 -10 m-108 10 h10 m76 0 h10 m0 0 h2 m-108 -10 v20 m118 0 v-20 m-118 20 v24 m118 0 v-24 m-118 24 q0 10 10 10 m98 0 q10 0 10 -10 m-108 10 h10 m60 0 h10 m0 0 h18 m-108 -10 v20 m118 0 v-20 m-118 20 v24 m118 0 v-24 m-118 24 q0 10 10 10 m98 0 q10 0 10 -10 m-108 10 h10 m40 0 h10 m0 0 h38 m-108 -10 v20 m118 0 v-20 m-118 20 v24 m118 0 v-24 m-118 24 q0 10 10 10 m98 0 q10 0 10 -10 m-108 10 h10 m48 0 h10 m0 0 h30 m-108 -10 v20 m118 0 v-20 m-118 20 v24 m118 0 v-24 m-118 24 q0 10 10 10 m98 0 q10 0 10 -10 m-108 10 h10 m40 0 h10 m0 0 h38 m-108 -10 v20 m118 0 v-20 m-118 20 v24 m118 0 v-24 m-118 24 q0 10 10 10 m98 0 q10 0 10 -10 m-108 10 h10 m60 0 h10 m0 0 h18 m-108 -10 v20 m118 0 v-20 m-118 20 v24 m118 0 v-24 m-118 24 q0 10 10 10 m98 0 q10 0 10 -10 m-108 10 h10 m56 0 h10 m0 0 h22 m-108 -10 v20 m118 0 v-20 m-118 20 v24 m118 0 v-24 m-118 24 q0 10 10 10 m98 0 q10 0 10 -10 m-108 10 h10 m62 0 h10 m0 0 h16 m-108 -10 v20 m118 0 v-20 m-118 20 v24 m118 0 v-24 m-118 24 q0 10 10 10 m98 0 q10 0 10 -10 m-108 10 h10 m78 0 h10 m-108 -10 v20 m118 0 v-20 m-118 20 v24 m118 0 v-24 m-118 24 q0 10 10 10 m98 0 q10 0 10 -10 m-108 10 h10 m68 0 h10 m0 0 h10 m23 -792 h-3"/>
   <polygon points="167 17 175 13 175 21"/>
   <polygon points="167 17 159 13 159 21"/>
</svg>
