<?xml version="1.0" encoding="UTF-8"?>
<svg xmlns="http://www.w3.org/2000/svg" width="335" height="301">
   <defs>
      <style type="text/css">
    @namespace "http://www.w3.org/2000/svg";
    .line                 {fill: none; stroke: #000045; stroke-width: 1;}
    .bold-line            {stroke: #000014; shape-rendering: crispEdges; stroke-width: 2;}
    .thin-line            {stroke: #00001F; shape-rendering: crispEdges}
    .filled               {fill: #000045; stroke: none;}
    text.terminal         {font-family: Verdana, Sans-serif;
                            font-size: 12px;
                            fill: #000014;
                            font-weight: bold;
                          }
    text.nonterminal      {font-family: Verdana, Sans-serif;
                            font-size: 12px;
                            fill: #00001A;
                            font-weight: normal;
                          }
    text.regexp           {font-family: Verdana, Sans-serif;
                            font-size: 12px;
                            fill: #00001F;
                            font-weight: normal;
                          }
    rect, circle, polygon {fill: #000045; stroke: #000045;}
    rect.terminal         {fill: #CCCCFF; stroke: #000045; stroke-width: 1;}
    rect.nonterminal      {fill: #E3E3FF; stroke: #000045; stroke-width: 1;}
    rect.text             {fill: none; stroke: none;}
    polygon.regexp        {fill: #EFEFFF; stroke: #000045; stroke-width: 1;}
  </style>
   </defs>
   <polygon points="9 17 1 13 1 21"/>
   <polygon points="17 17 9 13 9 21"/>
   <rect x="71" y="35" width="30" height="32" rx="10"/>
   <rect x="69"
         y="33"
         width="30"
         height="32"
         class="terminal"
         rx="10"/>
   <text class="terminal" x="79" y="53">+</text>
   <rect x="71" y="79" width="26" height="32" rx="10"/>
   <rect x="69"
         y="77"
         width="26"
         height="32"
         class="terminal"
         rx="10"/>
   <text class="terminal" x="79" y="97">-</text>
   <a xmlns:xlink="http://www.w3.org/1999/xlink"
      xlink:href="#INTEGER"
      xlink:title="INTEGER">
      <rect x="161" y="3" width="74" height="32"/>
      <rect x="159" y="1" width="74" height="32" class="nonterminal"/>
      <text class="nonterminal" x="169" y="21">INTEGER</text>
   </a>
   <a xmlns:xlink="http://www.w3.org/1999/xlink"
      xlink:href="#BIG_INTEGER"
      xlink:title="BIG_INTEGER">
      <rect x="161" y="47" width="104" height="32"/>
      <rect x="159" y="45" width="104" height="32" class="nonterminal"/>
      <text class="nonterminal" x="169" y="65">BIG_INTEGER</text>
   </a>
   <a xmlns:xlink="http://www.w3.org/1999/xlink"
      xlink:href="#FLOAT"
      xlink:title="FLOAT">
      <rect x="161" y="91" width="58" height="32"/>
      <rect x="159" y="89" width="58" height="32" class="nonterminal"/>
      <text class="nonterminal" x="169" y="109">FLOAT</text>
   </a>
   <a xmlns:xlink="http://www.w3.org/1999/xlink"
      xlink:href="#BIG_DECIMAL"
      xlink:title="BIG_DECIMAL">
      <rect x="161" y="135" width="106" height="32"/>
      <rect x="159" y="133" width="106" height="32" class="nonterminal"/>
      <text class="nonterminal" x="169" y="153">BIG_DECIMAL</text>
   </a>
   <a xmlns:xlink="http://www.w3.org/1999/xlink"
      xlink:href="#BOOLEAN"
      xlink:title="BOOLEAN">
      <rect x="51" y="179" width="78" height="32"/>
      <rect x="49" y="177" width="78" height="32" class="nonterminal"/>
      <text class="nonterminal" x="59" y="197">BOOLEAN</text>
   </a>
   <a xmlns:xlink="http://www.w3.org/1999/xlink"
      xlink:href="#DATE"
      xlink:title="DATE">
      <rect x="51" y="223" width="52" height="32"/>
      <rect x="49" y="221" width="52" height="32" class="nonterminal"/>
      <text class="nonterminal" x="59" y="241">DATE</text>
   </a>
   <a xmlns:xlink="http://www.w3.org/1999/xlink"
      xlink:href="#STRING"
      xlink:title="STRING">
      <rect x="51" y="267" width="66" height="32"/>
      <rect x="49" y="265" width="66" height="32" class="nonterminal"/>
      <text class="nonterminal" x="59" y="285">STRING</text>
   </a>
   <path class="line"
         d="m17 17 h2 m40 0 h10 m0 0 h40 m-70 0 h20 m50 0 h20 m-90 0 q10 0 10 10 m70 0 q0 -10 10 -10 m-80 10 v12 m70 0 v-12 m-70 12 q0 10 10 10 m50 0 q10 0 10 -10 m-60 10 h10 m30 0 h10 m-60 -10 v20 m70 0 v-20 m-70 20 v24 m70 0 v-24 m-70 24 q0 10 10 10 m50 0 q10 0 10 -10 m-60 10 h10 m26 0 h10 m0 0 h4 m40 -76 h10 m74 0 h10 m0 0 h32 m-146 0 h20 m126 0 h20 m-166 0 q10 0 10 10 m146 0 q0 -10 10 -10 m-156 10 v24 m146 0 v-24 m-146 24 q0 10 10 10 m126 0 q10 0 10 -10 m-136 10 h10 m104 0 h10 m0 0 h2 m-136 -10 v20 m146 0 v-20 m-146 20 v24 m146 0 v-24 m-146 24 q0 10 10 10 m126 0 q10 0 10 -10 m-136 10 h10 m58 0 h10 m0 0 h48 m-136 -10 v20 m146 0 v-20 m-146 20 v24 m146 0 v-24 m-146 24 q0 10 10 10 m126 0 q10 0 10 -10 m-136 10 h10 m106 0 h10 m-256 -132 h20 m256 0 h20 m-296 0 q10 0 10 10 m276 0 q0 -10 10 -10 m-286 10 v156 m276 0 v-156 m-276 156 q0 10 10 10 m256 0 q10 0 10 -10 m-266 10 h10 m78 0 h10 m0 0 h158 m-266 -10 v20 m276 0 v-20 m-276 20 v24 m276 0 v-24 m-276 24 q0 10 10 10 m256 0 q10 0 10 -10 m-266 10 h10 m52 0 h10 m0 0 h184 m-266 -10 v20 m276 0 v-20 m-276 20 v24 m276 0 v-24 m-276 24 q0 10 10 10 m256 0 q10 0 10 -10 m-266 10 h10 m66 0 h10 m0 0 h170 m23 -264 h-3"/>
   <polygon points="325 17 333 13 333 21"/>
   <polygon points="325 17 317 13 317 21"/>
</svg>
